<svg xmlns="http://www.w3.org/2000/svg" xmlns:xlink="http://www.w3.org/1999/xlink" xmlns:fi="http://pattern.flaticon.com/" x="0" y="0" width="1920" height="1024" viewBox="0 0 1920 1024"><rect x="0px" y="0px" width="100%" height="100%" opacity="1" fill="#d6fff8"/><defs><path d="M256,0C114.837,0,0,114.837,0,256s114.837,256,256,256s256-114.837,256-256S397.163,0,256,0z" transform="matrix(0.02485922314030451 0.002762135946299987 -0.002762135946299987 0.02485922314030451 85.34314567833485 140.92893207382926)" id="L1_576"/><path d="M256,0C114.837,0,0,114.837,0,256s114.837,256,256,256s256-114.837,256-256S397.163,0,256,0z" transform="matrix(0.02485922314030451 0.002762135946299987 -0.002762135946299987 0.02485922314030451 5.343145678334842 203.92893207382926)"/><path d="M256,0C114.837,0,0,114.837,0,256s114.837,256,256,256s256-114.837,256-256S397.163,0,256,0z" transform="matrix(0.02485922314030451 0.002762135946299987 -0.002762135946299987 0.02485922314030451 91.34314567833485 258.92893207382923)"/><path d="M256,0C114.837,0,0,114.837,0,256s114.837,256,256,256s256-114.837,256-256S397.163,0,256,0z" transform="matrix(0.02485922314030451 0.002762135946299987 -0.002762135946299987 0.02485922314030451 121.34314567833485 261.9289320738291)"/><path d="M256,0C114.837,0,0,114.837,0,256s114.837,256,256,256s256-114.837,256-256S397.163,0,256,0z" transform="matrix(0.019851455608541648 0.015881164974623444 -0.015881164974623444 0.019851455608541648 293.9836055977169 282.8524491307097)"/><path d="M421.833,285.36c-2.573-9.801-8.233-17.179-16.991-22.128l-75.944-43.966l75.944-43.968   c8.758-4.949,14.421-12.322,16.991-22.126c2.566-9.803,1.379-19.082-3.572-27.836L399.99,93.932   c-4.948-8.757-12.319-14.419-22.127-16.989c-9.802-2.565-19.072-1.376-27.833,3.576l-75.944,43.677v-87.65   c0-9.899-3.621-18.464-10.855-25.697C256,3.616,247.433,0,237.537,0h-36.54c-9.9,0-18.464,3.619-25.697,10.849   c-7.232,7.232-10.85,15.798-10.85,25.697v87.65l-75.945-43.68c-8.757-4.952-18.036-6.145-27.837-3.576   c-9.803,2.573-17.179,8.232-22.128,16.989l-18.271,31.405c-4.952,8.754-6.14,18.033-3.571,27.836   c2.574,9.801,8.232,17.178,16.989,22.126l75.945,43.972l-75.945,43.966c-8.757,4.949-14.419,12.323-16.989,22.128   c-2.568,9.801-1.377,19.075,3.571,27.829l18.272,31.408c4.947,8.761,12.32,14.421,22.126,16.995   c9.805,2.562,19.08,1.375,27.837-3.58l75.945-43.681v87.655c0,9.891,3.617,18.466,10.85,25.694   c7.233,7.234,15.8,10.848,25.697,10.848h36.54c9.896,0,18.466-3.613,25.693-10.848c7.238-7.229,10.855-15.804,10.855-25.694   v-87.648l75.944,43.681c8.761,4.948,18.031,6.143,27.833,3.573c9.804-2.574,17.179-8.23,22.127-16.991l18.271-31.405   C423.212,304.438,424.4,295.161,421.833,285.36z" transform="matrix(0.056653582174419424 -0.0066651274670962565 0.0066651274670962565 0.056653582174419424 18.118220365926113 65.01810375828217)" id="L1_577"/><path d="M256,0C114.837,0,0,114.837,0,256s114.837,256,256,256s256-114.837,256-256S397.163,0,256,0z" transform="matrix(0.02929648931093706 0.020926063772613957 -0.020926063772613957 0.02929648931093706 154.85717106218922 76.14302641061094)"/><path d="M256,0C114.837,0,0,114.837,0,256s114.837,256,256,256s256-114.837,256-256S397.163,0,256,0z" transform="matrix(0.027203882850246244 0.018833456480949275 -0.018833456480949275 0.027203882850246244 112.85717084945998 326.2144411312141)"/><path d="M256,0C114.837,0,0,114.837,0,256s114.837,256,256,256s256-114.837,256-256S397.163,0,256,0z" transform="matrix(0.0317623294552243 0.023821745609564716 -0.023821745609564716 0.0317623294552243 184.96721053551116 170.77047678341413)"/><path d="M256,0C114.837,0,0,114.837,0,256s114.837,256,256,256s256-114.837,256-256S397.163,0,256,0z" transform="matrix(0.02485922314030451 0.002762135946299987 -0.002762135946299987 0.02485922314030451 271.34314567833485 123.9289320738293)"/><path d="M256,0C114.837,0,0,114.837,0,256s114.837,256,256,256s256-114.837,256-256S397.163,0,256,0z" transform="matrix(0.015007322902450179 0.010004881846162984 -0.010004881846162984 0.015007322902450179 217.71937508959047 2.5968755843550877)"/><path d="M256,0C114.837,0,0,114.837,0,256s114.837,256,256,256s256-114.837,256-256S397.163,0,256,0z" transform="matrix(0.015007322902450179 0.010004881846162984 -0.010004881846162984 0.015007322902450179 94.71937508959047 125.59687558435509)"/><path d="M256,0C114.837,0,0,114.837,0,256s114.837,256,256,256s256-114.837,256-256S397.163,0,256,0z" transform="matrix(0.015007322902450179 0.010004881846162984 -0.010004881846162984 0.015007322902450179 341.71937508959047 269.5968755843551)"/></defs><g fi:class="KUsePattern" opacity="0.08"><pattern id="pattern_L1_576" width="350" height="350" patternUnits="userSpaceOnUse"><use xlink:href="#L1_576" x="-350" y="-350"/><use xlink:href="#L1_576" x="0" y="-350"/><use xlink:href="#L1_576" x="350" y="-350"/><use xlink:href="#L1_576" x="-350" y="0"/><use xlink:href="#L1_576" x="0" y="0"/><use xlink:href="#L1_576" x="350" y="0"/><use xlink:href="#L1_576" x="-350" y="350"/><use xlink:href="#L1_576" x="0" y="350"/><use xlink:href="#L1_576" x="350" y="350"/></pattern><rect x="0" y="0" width="100%" height="100%" fill="url(#pattern_L1_576)"/></g><g fi:class="KUsePattern" transform="matrix(1 0 0 1 20 20)" opacity="0.08"><pattern id="pattern_UNKNOWN" width="350" height="350" patternUnits="userSpaceOnUse"><use xlink:href="#UNKNOWN" x="-350" y="-350"/><use xlink:href="#UNKNOWN" x="0" y="-350"/><use xlink:href="#UNKNOWN" x="350" y="-350"/><use xlink:href="#UNKNOWN" x="-350" y="0"/><use xlink:href="#UNKNOWN" x="0" y="0"/><use xlink:href="#UNKNOWN" x="350" y="0"/><use xlink:href="#UNKNOWN" x="-350" y="350"/><use xlink:href="#UNKNOWN" x="0" y="350"/><use xlink:href="#UNKNOWN" x="350" y="350"/></pattern><rect x="0" y="0" width="100%" height="100%" fill="url(#pattern_UNKNOWN)"/></g><g fi:class="KUsePattern" transform="matrix(1 0 0 1 20 20)" opacity="0.08"><pattern id="pattern_UNKNOWN" width="350" height="350" patternUnits="userSpaceOnUse"><use xlink:href="#UNKNOWN" x="-350" y="-350"/><use xlink:href="#UNKNOWN" x="0" y="-350"/><use xlink:href="#UNKNOWN" x="350" y="-350"/><use xlink:href="#UNKNOWN" x="-350" y="0"/><use xlink:href="#UNKNOWN" x="0" y="0"/><use xlink:href="#UNKNOWN" x="350" y="0"/><use xlink:href="#UNKNOWN" x="-350" y="350"/><use xlink:href="#UNKNOWN" x="0" y="350"/><use xlink:href="#UNKNOWN" x="350" y="350"/></pattern><rect x="0" y="0" width="100%" height="100%" fill="url(#pattern_UNKNOWN)"/></g><g fi:class="KUsePattern" transform="matrix(1 0 0 1 40 40)" opacity="0.08"><pattern id="pattern_UNKNOWN" width="350" height="350" patternUnits="userSpaceOnUse"><use xlink:href="#UNKNOWN" x="-350" y="-350"/><use xlink:href="#UNKNOWN" x="0" y="-350"/><use xlink:href="#UNKNOWN" x="350" y="-350"/><use xlink:href="#UNKNOWN" x="-350" y="0"/><use xlink:href="#UNKNOWN" x="0" y="0"/><use xlink:href="#UNKNOWN" x="350" y="0"/><use xlink:href="#UNKNOWN" x="-350" y="350"/><use xlink:href="#UNKNOWN" x="0" y="350"/><use xlink:href="#UNKNOWN" x="350" y="350"/></pattern><rect x="0" y="0" width="100%" height="100%" fill="url(#pattern_UNKNOWN)"/></g><g fi:class="KUsePattern" transform="matrix(1 0 0 1 40 40)" opacity="0.08"><pattern id="pattern_UNKNOWN" width="350" height="350" patternUnits="userSpaceOnUse"><use xlink:href="#UNKNOWN" x="-350" y="-350"/><use xlink:href="#UNKNOWN" x="0" y="-350"/><use xlink:href="#UNKNOWN" x="350" y="-350"/><use xlink:href="#UNKNOWN" x="-350" y="0"/><use xlink:href="#UNKNOWN" x="0" y="0"/><use xlink:href="#UNKNOWN" x="350" y="0"/><use xlink:href="#UNKNOWN" x="-350" y="350"/><use xlink:href="#UNKNOWN" x="0" y="350"/><use xlink:href="#UNKNOWN" x="350" y="350"/></pattern><rect x="0" y="0" width="100%" height="100%" fill="url(#pattern_UNKNOWN)"/></g><g fi:class="KUsePattern" opacity="0.05"><pattern id="pattern_L1_577" width="350" height="350" patternUnits="userSpaceOnUse"><use xlink:href="#L1_577" x="-350" y="-350"/><use xlink:href="#L1_577" x="0" y="-350"/><use xlink:href="#L1_577" x="350" y="-350"/><use xlink:href="#L1_577" x="-350" y="0"/><use xlink:href="#L1_577" x="0" y="0"/><use xlink:href="#L1_577" x="350" y="0"/><use xlink:href="#L1_577" x="-350" y="350"/><use xlink:href="#L1_577" x="0" y="350"/><use xlink:href="#L1_577" x="350" y="350"/></pattern><rect x="0" y="0" width="100%" height="100%" fill="url(#pattern_L1_577)"/></g><g fi:class="KUsePattern" transform="matrix(1 0 0 1 60 60)" opacity="0.08"><pattern id="pattern_UNKNOWN" width="350" height="350" patternUnits="userSpaceOnUse"><use xlink:href="#UNKNOWN" x="-350" y="-350"/><use xlink:href="#UNKNOWN" x="0" y="-350"/><use xlink:href="#UNKNOWN" x="350" y="-350"/><use xlink:href="#UNKNOWN" x="-350" y="0"/><use xlink:href="#UNKNOWN" x="0" y="0"/><use xlink:href="#UNKNOWN" x="350" y="0"/><use xlink:href="#UNKNOWN" x="-350" y="350"/><use xlink:href="#UNKNOWN" x="0" y="350"/><use xlink:href="#UNKNOWN" x="350" y="350"/></pattern><rect x="0" y="0" width="100%" height="100%" fill="url(#pattern_UNKNOWN)"/></g><g fi:class="KUsePattern" transform="matrix(1 0 0 1 60 60)" opacity="0.08"><pattern id="pattern_UNKNOWN" width="350" height="350" patternUnits="userSpaceOnUse"><use xlink:href="#UNKNOWN" x="-350" y="-350"/><use xlink:href="#UNKNOWN" x="0" y="-350"/><use xlink:href="#UNKNOWN" x="350" y="-350"/><use xlink:href="#UNKNOWN" x="-350" y="0"/><use xlink:href="#UNKNOWN" x="0" y="0"/><use xlink:href="#UNKNOWN" x="350" y="0"/><use xlink:href="#UNKNOWN" x="-350" y="350"/><use xlink:href="#UNKNOWN" x="0" y="350"/><use xlink:href="#UNKNOWN" x="350" y="350"/></pattern><rect x="0" y="0" width="100%" height="100%" fill="url(#pattern_UNKNOWN)"/></g><g fi:class="KUsePattern" transform="matrix(1 0 0 1 80 80)" opacity="0.08"><pattern id="pattern_UNKNOWN" width="350" height="350" patternUnits="userSpaceOnUse"><use xlink:href="#UNKNOWN" x="-350" y="-350"/><use xlink:href="#UNKNOWN" x="0" y="-350"/><use xlink:href="#UNKNOWN" x="350" y="-350"/><use xlink:href="#UNKNOWN" x="-350" y="0"/><use xlink:href="#UNKNOWN" x="0" y="0"/><use xlink:href="#UNKNOWN" x="350" y="0"/><use xlink:href="#UNKNOWN" x="-350" y="350"/><use xlink:href="#UNKNOWN" x="0" y="350"/><use xlink:href="#UNKNOWN" x="350" y="350"/></pattern><rect x="0" y="0" width="100%" height="100%" fill="url(#pattern_UNKNOWN)"/></g><g fi:class="KUsePattern" transform="matrix(1 0 0 1 40 40)" opacity="0.08"><pattern id="pattern_UNKNOWN" width="350" height="350" patternUnits="userSpaceOnUse"><use xlink:href="#UNKNOWN" x="-350" y="-350"/><use xlink:href="#UNKNOWN" x="0" y="-350"/><use xlink:href="#UNKNOWN" x="350" y="-350"/><use xlink:href="#UNKNOWN" x="-350" y="0"/><use xlink:href="#UNKNOWN" x="0" y="0"/><use xlink:href="#UNKNOWN" x="350" y="0"/><use xlink:href="#UNKNOWN" x="-350" y="350"/><use xlink:href="#UNKNOWN" x="0" y="350"/><use xlink:href="#UNKNOWN" x="350" y="350"/></pattern><rect x="0" y="0" width="100%" height="100%" fill="url(#pattern_UNKNOWN)"/></g><g fi:class="KUsePattern" transform="matrix(1 0 0 1 60 60)" opacity="0.08"><pattern id="pattern_UNKNOWN" width="350" height="350" patternUnits="userSpaceOnUse"><use xlink:href="#UNKNOWN" x="-350" y="-350"/><use xlink:href="#UNKNOWN" x="0" y="-350"/><use xlink:href="#UNKNOWN" x="350" y="-350"/><use xlink:href="#UNKNOWN" x="-350" y="0"/><use xlink:href="#UNKNOWN" x="0" y="0"/><use xlink:href="#UNKNOWN" x="350" y="0"/><use xlink:href="#UNKNOWN" x="-350" y="350"/><use xlink:href="#UNKNOWN" x="0" y="350"/><use xlink:href="#UNKNOWN" x="350" y="350"/></pattern><rect x="0" y="0" width="100%" height="100%" fill="url(#pattern_UNKNOWN)"/></g><g fi:class="KUsePattern" transform="matrix(1 0 0 1 80 80)" opacity="0.08"><pattern id="pattern_UNKNOWN" width="350" height="350" patternUnits="userSpaceOnUse"><use xlink:href="#UNKNOWN" x="-350" y="-350"/><use xlink:href="#UNKNOWN" x="0" y="-350"/><use xlink:href="#UNKNOWN" x="350" y="-350"/><use xlink:href="#UNKNOWN" x="-350" y="0"/><use xlink:href="#UNKNOWN" x="0" y="0"/><use xlink:href="#UNKNOWN" x="350" y="0"/><use xlink:href="#UNKNOWN" x="-350" y="350"/><use xlink:href="#UNKNOWN" x="0" y="350"/><use xlink:href="#UNKNOWN" x="350" y="350"/></pattern><rect x="0" y="0" width="100%" height="100%" fill="url(#pattern_UNKNOWN)"/></g><g fi:class="KUsePattern" transform="matrix(1 0 0 1 80 80)" opacity="0.08"><pattern id="pattern_UNKNOWN" width="350" height="350" patternUnits="userSpaceOnUse"><use xlink:href="#UNKNOWN" x="-350" y="-350"/><use xlink:href="#UNKNOWN" x="0" y="-350"/><use xlink:href="#UNKNOWN" x="350" y="-350"/><use xlink:href="#UNKNOWN" x="-350" y="0"/><use xlink:href="#UNKNOWN" x="0" y="0"/><use xlink:href="#UNKNOWN" x="350" y="0"/><use xlink:href="#UNKNOWN" x="-350" y="350"/><use xlink:href="#UNKNOWN" x="0" y="350"/><use xlink:href="#UNKNOWN" x="350" y="350"/></pattern><rect x="0" y="0" width="100%" height="100%" fill="url(#pattern_UNKNOWN)"/></g></svg>