<svg xmlns="http://www.w3.org/2000/svg" xmlns:xlink="http://www.w3.org/1999/xlink" xmlns:fi="http://pattern.flaticon.com/" x="0" y="0" width="1920" height="1024" viewBox="0 0 1920 1024"><rect x="0px" y="0px" width="100%" height="100%" opacity="1" fill="#fff7f6"/><defs><g transform="matrix(0.1171875 0 0 0.1171875 -22 70.99999944210049)" id="L1_128"><path d="M488.34,282.579c-26.552-8.546-57.318-32.076-82.94-63.299l22.325-53.797c2.571-6.195,1.741-13.124-2.22-18.537     c-3.96-5.413-10.311-8.3-16.998-7.722l-51.959,4.487c-0.393,0.034-0.755-0.166-0.939-0.506l-20.655-38.153     c-2.713-5.011-7.477-8.516-13.067-9.614c-5.593-1.1-11.327,0.342-15.735,3.954l-33.265,27.26     c-0.389,0.318-0.966,0.287-1.316-0.077L236.91,90.643c-3.748-3.886-9.005-6.004-14.388-5.807     c-5.396,0.195-10.473,2.686-13.931,6.833l-27.813,33.359c-0.302,0.359-0.815,0.453-1.225,0.224l-37.6-21.197     c-5.38-3.033-11.921-3.265-17.501-0.619c-5.58,2.645-9.542,7.856-10.6,13.939l-6.909,39.756c-0.091,0.521-0.597,0.874-1.11,0.795     l-3.114-0.492c-4.1-0.645-7.933,2.147-8.578,6.239c-0.646,4.091,2.147,7.932,6.238,8.578l3.114,0.492     c8.572,1.354,16.743-4.498,18.229-13.042l6.91-39.757c0.311-1.791,1.54-2.62,2.245-2.954c0.705-0.335,2.124-0.762,3.71,0.131     l37.6,21.196c6.716,3.787,15.174,2.237,20.112-3.686l27.813-33.359c1.003-1.203,2.28-1.423,2.952-1.448     c0.661-0.026,1.962,0.103,3.049,1.231l34.658,35.93c5.733,5.946,15.231,6.501,21.621,1.267l33.266-27.26     c1.277-1.048,2.634-0.975,3.335-0.838c0.696,0.137,1.982,0.584,2.769,2.038l20.656,38.154c3.028,5.593,9.063,8.859,15.42,8.308     l51.959-4.487c2.032-0.17,3.2,1.086,3.603,1.637c0.403,0.551,1.256,2.036,0.471,3.928l-23.205,55.915     c-31.138,22.291-45.795,67.234-46.481,102.514c-0.08,4.141,3.212,7.563,7.353,7.644c0.05,0.001,0.099,0.001,0.148,0.001     c4.074,0,7.416-3.263,7.496-7.354c0.681-35.043,15.353-69.836,36.345-87.586c11.458,13.684,24.218,26.323,37.219,36.831     c13.349,10.79,26.562,19.068,39.424,24.733c-6.133,7.76-9.273,16.718-8.964,26.064c0.337,10.205,4.79,19.968,12.488,27.872     c-17.257,10.287-47.969,19.003-102.255,24.192c-3.434-4.233-6.316-9.329-8.572-15.224c-1.479-3.869-5.813-5.806-9.685-4.325     c-3.869,1.48-5.806,5.816-4.325,9.684c1.553,4.059,3.374,7.83,5.423,11.326c-3.454,0.26-6.993,0.508-10.617,0.742     c-0.259,0.003-0.52,0.02-0.781,0.05c-28.827,1.844-63.057,2.863-103.705,2.863c-57.786,0-99.617-3.658-129.147-11.4     c-0.267-0.085-0.536-0.156-0.807-0.21c-6.764-1.804-12.876-3.826-18.376-6.071c-0.168-0.068-0.339-0.131-0.511-0.187     l-72.94-23.768c-1.882-0.613-2.479-2.161-2.648-2.798c-0.17-0.637-0.421-2.277,0.908-3.745l24.459-27.019     c5.092-5.625,5.509-14.132,0.991-20.231L15.79,243.389c-1.075-1.451-0.836-2.905-0.598-3.643     c0.238-0.738,0.896-2.057,2.617-2.604l34.647-11.009c7.566-2.403,12.254-10.115,10.903-17.936l-6.45-37.412     c-0.248-1.441,0.279-2.498,0.766-3.131c0.695-0.904,1.722-1.479,2.817-1.577c4.126-0.37,7.17-4.015,6.8-8.14     c-0.37-4.125-4.026-7.163-8.14-6.799c-5.257,0.471-10.13,3.16-13.37,7.376c-3.271,4.255-4.568,9.518-3.654,14.82l6.45,37.413     c0.082,0.476-0.203,0.944-0.664,1.09l-34.647,11.009c-5.845,1.857-10.46,6.45-12.347,12.286     c-1.887,5.835-0.832,12.261,2.819,17.188l27.314,36.855c0.275,0.372,0.25,0.89-0.061,1.233L6.535,317.427     c-4.349,4.802-5.949,11.407-4.284,17.668s6.337,11.197,12.497,13.204l72.684,23.686c3.703,1.503,7.659,2.908,11.859,4.223     c-1.264,3.871-1.938,7.93-1.938,12.056c0,21.456,17.456,38.913,38.913,38.913h29.47c20.836,0,37.898-16.463,38.866-37.065     c11.459,0.374,23.628,0.563,36.576,0.563c1.978,0,3.938-0.003,5.888-0.008c1.246,20.341,18.182,36.51,38.832,36.51h29.47     c21.457,0,38.913-17.456,38.913-38.913c0-0.353-0.024-0.704-0.034-1.057c76.103-5.515,116.813-17.365,137.755-33.795     c0.558-0.34,1.076-0.754,1.54-1.245c11.288-9.42,16.383-20.289,18.107-32.292C514.019,303.375,504.217,287.689,488.34,282.579z      M165.734,412.176h-29.47c-13.186,0-23.913-10.727-23.913-23.913c0-2.79,0.49-5.534,1.427-8.123     c20.187,4.73,45.17,7.812,75.836,9.356C188.972,402.111,178.507,412.176,165.734,412.176z M315.366,412.176h-29.47     c-12.404,0-22.63-9.493-23.799-21.596c28.846-0.262,54.455-1.074,77.178-2.398c0,0.027,0.003,0.054,0.003,0.081     C339.278,401.449,328.551,412.176,315.366,412.176z M496.8,317.741c-0.936,6.515-3.398,13.063-9.205,19.292     c-5.805-5.449-9.167-12.158-9.395-19.035c-0.237-7.15,2.816-13.898,8.854-19.717C493.955,302.036,497.954,309.714,496.8,317.741z     "/><path d="M260.748,234.099l33.266-27.26c1.278-1.048,2.639-0.976,3.334-0.838c0.697,0.137,1.983,0.583,2.77,2.037l20.656,38.153     c1.358,2.508,3.938,3.931,6.603,3.931c1.205,0,2.429-0.291,3.564-0.906c3.642-1.972,4.997-6.523,3.025-10.166l-20.655-38.153     c-2.714-5.011-7.477-8.515-13.068-9.614c-5.593-1.1-11.327,0.342-15.734,3.954l-33.266,27.26     c-3.204,2.626-3.673,7.351-1.047,10.555C252.817,236.256,257.545,236.722,260.748,234.099z"/><path d="M170.229,231.526l-37.601-21.198c-5.379-3.032-11.92-3.264-17.499-0.619c-5.58,2.645-9.543,7.855-10.602,13.941     l-6.909,39.757c-0.709,4.081,2.024,7.964,6.105,8.673c0.434,0.076,0.866,0.112,1.293,0.112c3.578,0,6.747-2.571,7.381-6.217     l6.908-39.756c0.313-1.792,1.542-2.621,2.248-2.955c0.706-0.334,2.125-0.761,3.708,0.131l37.602,21.198     c3.608,2.035,8.182,0.758,10.216-2.85C175.115,238.134,173.838,233.56,170.229,231.526z"/><path d="M404.057,302.176c0-3.778,3.074-6.852,6.853-6.852c3.778,0,6.852,3.074,6.852,6.852c0,4.142,3.357,7.5,7.5,7.5     c4.143,0,7.5-3.358,7.5-7.5c0-12.049-9.803-21.852-21.853-21.852c-12.05,0-21.854,9.803-21.854,21.852c0,4.142,3.357,7.5,7.5,7.5     S404.057,306.319,404.057,302.176z"/><path d="M171.114,304.611l20.318,30.148c3.428,5.086,9.135,8.222,15.266,8.389c0.172,0.004,0.344,0.007,0.516,0.007     c5.941,0,11.587-2.798,15.182-7.55l23.137-30.584c2.499-3.304,1.847-8.007-1.457-10.506c-3.302-2.498-8.007-1.846-10.506,1.456     l-23.137,30.585c-1.089,1.439-2.55,1.621-3.326,1.598c-0.775-0.021-2.226-0.28-3.235-1.778l-20.317-30.147     c-2.316-3.436-6.979-4.344-10.411-2.028C169.708,296.514,168.799,301.176,171.114,304.611z"/></g><g transform="matrix(-0.1171875 0 0 0.1171875 151 128.99999888420098)" id="L1_129"><path d="M488.34,282.579c-26.552-8.546-57.318-32.076-82.94-63.299l22.325-53.797c2.571-6.195,1.741-13.124-2.22-18.537     c-3.96-5.413-10.311-8.3-16.998-7.722l-51.959,4.487c-0.393,0.034-0.755-0.166-0.939-0.506l-20.655-38.153     c-2.713-5.011-7.477-8.516-13.067-9.614c-5.593-1.1-11.327,0.342-15.735,3.954l-33.265,27.26     c-0.389,0.318-0.966,0.287-1.316-0.077L236.91,90.643c-3.748-3.886-9.005-6.004-14.388-5.807     c-5.396,0.195-10.473,2.686-13.931,6.833l-27.813,33.359c-0.302,0.359-0.815,0.453-1.225,0.224l-37.6-21.197     c-5.38-3.033-11.921-3.265-17.501-0.619c-5.58,2.645-9.542,7.856-10.6,13.939l-6.909,39.756c-0.091,0.521-0.597,0.874-1.11,0.795     l-3.114-0.492c-4.1-0.645-7.933,2.147-8.578,6.239c-0.646,4.091,2.147,7.932,6.238,8.578l3.114,0.492     c8.572,1.354,16.743-4.498,18.229-13.042l6.91-39.757c0.311-1.791,1.54-2.62,2.245-2.954c0.705-0.335,2.124-0.762,3.71,0.131     l37.6,21.196c6.716,3.787,15.174,2.237,20.112-3.686l27.813-33.359c1.003-1.203,2.28-1.423,2.952-1.448     c0.661-0.026,1.962,0.103,3.049,1.231l34.658,35.93c5.733,5.946,15.231,6.501,21.621,1.267l33.266-27.26     c1.277-1.048,2.634-0.975,3.335-0.838c0.696,0.137,1.982,0.584,2.769,2.038l20.656,38.154c3.028,5.593,9.063,8.859,15.42,8.308     l51.959-4.487c2.032-0.17,3.2,1.086,3.603,1.637c0.403,0.551,1.256,2.036,0.471,3.928l-23.205,55.915     c-31.138,22.291-45.795,67.234-46.481,102.514c-0.08,4.141,3.212,7.563,7.353,7.644c0.05,0.001,0.099,0.001,0.148,0.001     c4.074,0,7.416-3.263,7.496-7.354c0.681-35.043,15.353-69.836,36.345-87.586c11.458,13.684,24.218,26.323,37.219,36.831     c13.349,10.79,26.562,19.068,39.424,24.733c-6.133,7.76-9.273,16.718-8.964,26.064c0.337,10.205,4.79,19.968,12.488,27.872     c-17.257,10.287-47.969,19.003-102.255,24.192c-3.434-4.233-6.316-9.329-8.572-15.224c-1.479-3.869-5.813-5.806-9.685-4.325     c-3.869,1.48-5.806,5.816-4.325,9.684c1.553,4.059,3.374,7.83,5.423,11.326c-3.454,0.26-6.993,0.508-10.617,0.742     c-0.259,0.003-0.52,0.02-0.781,0.05c-28.827,1.844-63.057,2.863-103.705,2.863c-57.786,0-99.617-3.658-129.147-11.4     c-0.267-0.085-0.536-0.156-0.807-0.21c-6.764-1.804-12.876-3.826-18.376-6.071c-0.168-0.068-0.339-0.131-0.511-0.187     l-72.94-23.768c-1.882-0.613-2.479-2.161-2.648-2.798c-0.17-0.637-0.421-2.277,0.908-3.745l24.459-27.019     c5.092-5.625,5.509-14.132,0.991-20.231L15.79,243.389c-1.075-1.451-0.836-2.905-0.598-3.643     c0.238-0.738,0.896-2.057,2.617-2.604l34.647-11.009c7.566-2.403,12.254-10.115,10.903-17.936l-6.45-37.412     c-0.248-1.441,0.279-2.498,0.766-3.131c0.695-0.904,1.722-1.479,2.817-1.577c4.126-0.37,7.17-4.015,6.8-8.14     c-0.37-4.125-4.026-7.163-8.14-6.799c-5.257,0.471-10.13,3.16-13.37,7.376c-3.271,4.255-4.568,9.518-3.654,14.82l6.45,37.413     c0.082,0.476-0.203,0.944-0.664,1.09l-34.647,11.009c-5.845,1.857-10.46,6.45-12.347,12.286     c-1.887,5.835-0.832,12.261,2.819,17.188l27.314,36.855c0.275,0.372,0.25,0.89-0.061,1.233L6.535,317.427     c-4.349,4.802-5.949,11.407-4.284,17.668s6.337,11.197,12.497,13.204l72.684,23.686c3.703,1.503,7.659,2.908,11.859,4.223     c-1.264,3.871-1.938,7.93-1.938,12.056c0,21.456,17.456,38.913,38.913,38.913h29.47c20.836,0,37.898-16.463,38.866-37.065     c11.459,0.374,23.628,0.563,36.576,0.563c1.978,0,3.938-0.003,5.888-0.008c1.246,20.341,18.182,36.51,38.832,36.51h29.47     c21.457,0,38.913-17.456,38.913-38.913c0-0.353-0.024-0.704-0.034-1.057c76.103-5.515,116.813-17.365,137.755-33.795     c0.558-0.34,1.076-0.754,1.54-1.245c11.288-9.42,16.383-20.289,18.107-32.292C514.019,303.375,504.217,287.689,488.34,282.579z      M165.734,412.176h-29.47c-13.186,0-23.913-10.727-23.913-23.913c0-2.79,0.49-5.534,1.427-8.123     c20.187,4.73,45.17,7.812,75.836,9.356C188.972,402.111,178.507,412.176,165.734,412.176z M315.366,412.176h-29.47     c-12.404,0-22.63-9.493-23.799-21.596c28.846-0.262,54.455-1.074,77.178-2.398c0,0.027,0.003,0.054,0.003,0.081     C339.278,401.449,328.551,412.176,315.366,412.176z M496.8,317.741c-0.936,6.515-3.398,13.063-9.205,19.292     c-5.805-5.449-9.167-12.158-9.395-19.035c-0.237-7.15,2.816-13.898,8.854-19.717C493.955,302.036,497.954,309.714,496.8,317.741z     "/><path d="M260.748,234.099l33.266-27.26c1.278-1.048,2.639-0.976,3.334-0.838c0.697,0.137,1.983,0.583,2.77,2.037l20.656,38.153     c1.358,2.508,3.938,3.931,6.603,3.931c1.205,0,2.429-0.291,3.564-0.906c3.642-1.972,4.997-6.523,3.025-10.166l-20.655-38.153     c-2.714-5.011-7.477-8.515-13.068-9.614c-5.593-1.1-11.327,0.342-15.734,3.954l-33.266,27.26     c-3.204,2.626-3.673,7.351-1.047,10.555C252.817,236.256,257.545,236.722,260.748,234.099z"/><path d="M170.229,231.526l-37.601-21.198c-5.379-3.032-11.92-3.264-17.499-0.619c-5.58,2.645-9.543,7.855-10.602,13.941     l-6.909,39.757c-0.709,4.081,2.024,7.964,6.105,8.673c0.434,0.076,0.866,0.112,1.293,0.112c3.578,0,6.747-2.571,7.381-6.217     l6.908-39.756c0.313-1.792,1.542-2.621,2.248-2.955c0.706-0.334,2.125-0.761,3.708,0.131l37.602,21.198     c3.608,2.035,8.182,0.758,10.216-2.85C175.115,238.134,173.838,233.56,170.229,231.526z"/><path d="M404.057,302.176c0-3.778,3.074-6.852,6.853-6.852c3.778,0,6.852,3.074,6.852,6.852c0,4.142,3.357,7.5,7.5,7.5     c4.143,0,7.5-3.358,7.5-7.5c0-12.049-9.803-21.852-21.853-21.852c-12.05,0-21.854,9.803-21.854,21.852c0,4.142,3.357,7.5,7.5,7.5     S404.057,306.319,404.057,302.176z"/><path d="M171.114,304.611l20.318,30.148c3.428,5.086,9.135,8.222,15.266,8.389c0.172,0.004,0.344,0.007,0.516,0.007     c5.941,0,11.587-2.798,15.182-7.55l23.137-30.584c2.499-3.304,1.847-8.007-1.457-10.506c-3.302-2.498-8.007-1.846-10.506,1.456     l-23.137,30.585c-1.089,1.439-2.55,1.621-3.326,1.598c-0.775-0.021-2.226-0.28-3.235-1.778l-20.317-30.147     c-2.316-3.436-6.979-4.344-10.411-2.028C169.708,296.514,168.799,301.176,171.114,304.611z"/></g><g transform="matrix(0.1171875 0 0 0.1171875 113 213.9999994421005)" id="L1_130"><path d="M488.34,282.579c-26.552-8.546-57.318-32.076-82.94-63.299l22.325-53.797c2.571-6.195,1.741-13.124-2.22-18.537     c-3.96-5.413-10.311-8.3-16.998-7.722l-51.959,4.487c-0.393,0.034-0.755-0.166-0.939-0.506l-20.655-38.153     c-2.713-5.011-7.477-8.516-13.067-9.614c-5.593-1.1-11.327,0.342-15.735,3.954l-33.265,27.26     c-0.389,0.318-0.966,0.287-1.316-0.077L236.91,90.643c-3.748-3.886-9.005-6.004-14.388-5.807     c-5.396,0.195-10.473,2.686-13.931,6.833l-27.813,33.359c-0.302,0.359-0.815,0.453-1.225,0.224l-37.6-21.197     c-5.38-3.033-11.921-3.265-17.501-0.619c-5.58,2.645-9.542,7.856-10.6,13.939l-6.909,39.756c-0.091,0.521-0.597,0.874-1.11,0.795     l-3.114-0.492c-4.1-0.645-7.933,2.147-8.578,6.239c-0.646,4.091,2.147,7.932,6.238,8.578l3.114,0.492     c8.572,1.354,16.743-4.498,18.229-13.042l6.91-39.757c0.311-1.791,1.54-2.62,2.245-2.954c0.705-0.335,2.124-0.762,3.71,0.131     l37.6,21.196c6.716,3.787,15.174,2.237,20.112-3.686l27.813-33.359c1.003-1.203,2.28-1.423,2.952-1.448     c0.661-0.026,1.962,0.103,3.049,1.231l34.658,35.93c5.733,5.946,15.231,6.501,21.621,1.267l33.266-27.26     c1.277-1.048,2.634-0.975,3.335-0.838c0.696,0.137,1.982,0.584,2.769,2.038l20.656,38.154c3.028,5.593,9.063,8.859,15.42,8.308     l51.959-4.487c2.032-0.17,3.2,1.086,3.603,1.637c0.403,0.551,1.256,2.036,0.471,3.928l-23.205,55.915     c-31.138,22.291-45.795,67.234-46.481,102.514c-0.08,4.141,3.212,7.563,7.353,7.644c0.05,0.001,0.099,0.001,0.148,0.001     c4.074,0,7.416-3.263,7.496-7.354c0.681-35.043,15.353-69.836,36.345-87.586c11.458,13.684,24.218,26.323,37.219,36.831     c13.349,10.79,26.562,19.068,39.424,24.733c-6.133,7.76-9.273,16.718-8.964,26.064c0.337,10.205,4.79,19.968,12.488,27.872     c-17.257,10.287-47.969,19.003-102.255,24.192c-3.434-4.233-6.316-9.329-8.572-15.224c-1.479-3.869-5.813-5.806-9.685-4.325     c-3.869,1.48-5.806,5.816-4.325,9.684c1.553,4.059,3.374,7.83,5.423,11.326c-3.454,0.26-6.993,0.508-10.617,0.742     c-0.259,0.003-0.52,0.02-0.781,0.05c-28.827,1.844-63.057,2.863-103.705,2.863c-57.786,0-99.617-3.658-129.147-11.4     c-0.267-0.085-0.536-0.156-0.807-0.21c-6.764-1.804-12.876-3.826-18.376-6.071c-0.168-0.068-0.339-0.131-0.511-0.187     l-72.94-23.768c-1.882-0.613-2.479-2.161-2.648-2.798c-0.17-0.637-0.421-2.277,0.908-3.745l24.459-27.019     c5.092-5.625,5.509-14.132,0.991-20.231L15.79,243.389c-1.075-1.451-0.836-2.905-0.598-3.643     c0.238-0.738,0.896-2.057,2.617-2.604l34.647-11.009c7.566-2.403,12.254-10.115,10.903-17.936l-6.45-37.412     c-0.248-1.441,0.279-2.498,0.766-3.131c0.695-0.904,1.722-1.479,2.817-1.577c4.126-0.37,7.17-4.015,6.8-8.14     c-0.37-4.125-4.026-7.163-8.14-6.799c-5.257,0.471-10.13,3.16-13.37,7.376c-3.271,4.255-4.568,9.518-3.654,14.82l6.45,37.413     c0.082,0.476-0.203,0.944-0.664,1.09l-34.647,11.009c-5.845,1.857-10.46,6.45-12.347,12.286     c-1.887,5.835-0.832,12.261,2.819,17.188l27.314,36.855c0.275,0.372,0.25,0.89-0.061,1.233L6.535,317.427     c-4.349,4.802-5.949,11.407-4.284,17.668s6.337,11.197,12.497,13.204l72.684,23.686c3.703,1.503,7.659,2.908,11.859,4.223     c-1.264,3.871-1.938,7.93-1.938,12.056c0,21.456,17.456,38.913,38.913,38.913h29.47c20.836,0,37.898-16.463,38.866-37.065     c11.459,0.374,23.628,0.563,36.576,0.563c1.978,0,3.938-0.003,5.888-0.008c1.246,20.341,18.182,36.51,38.832,36.51h29.47     c21.457,0,38.913-17.456,38.913-38.913c0-0.353-0.024-0.704-0.034-1.057c76.103-5.515,116.813-17.365,137.755-33.795     c0.558-0.34,1.076-0.754,1.54-1.245c11.288-9.42,16.383-20.289,18.107-32.292C514.019,303.375,504.217,287.689,488.34,282.579z      M165.734,412.176h-29.47c-13.186,0-23.913-10.727-23.913-23.913c0-2.79,0.49-5.534,1.427-8.123     c20.187,4.73,45.17,7.812,75.836,9.356C188.972,402.111,178.507,412.176,165.734,412.176z M315.366,412.176h-29.47     c-12.404,0-22.63-9.493-23.799-21.596c28.846-0.262,54.455-1.074,77.178-2.398c0,0.027,0.003,0.054,0.003,0.081     C339.278,401.449,328.551,412.176,315.366,412.176z M496.8,317.741c-0.936,6.515-3.398,13.063-9.205,19.292     c-5.805-5.449-9.167-12.158-9.395-19.035c-0.237-7.15,2.816-13.898,8.854-19.717C493.955,302.036,497.954,309.714,496.8,317.741z     "/><path d="M260.748,234.099l33.266-27.26c1.278-1.048,2.639-0.976,3.334-0.838c0.697,0.137,1.983,0.583,2.77,2.037l20.656,38.153     c1.358,2.508,3.938,3.931,6.603,3.931c1.205,0,2.429-0.291,3.564-0.906c3.642-1.972,4.997-6.523,3.025-10.166l-20.655-38.153     c-2.714-5.011-7.477-8.515-13.068-9.614c-5.593-1.1-11.327,0.342-15.734,3.954l-33.266,27.26     c-3.204,2.626-3.673,7.351-1.047,10.555C252.817,236.256,257.545,236.722,260.748,234.099z"/><path d="M170.229,231.526l-37.601-21.198c-5.379-3.032-11.92-3.264-17.499-0.619c-5.58,2.645-9.543,7.855-10.602,13.941     l-6.909,39.757c-0.709,4.081,2.024,7.964,6.105,8.673c0.434,0.076,0.866,0.112,1.293,0.112c3.578,0,6.747-2.571,7.381-6.217     l6.908-39.756c0.313-1.792,1.542-2.621,2.248-2.955c0.706-0.334,2.125-0.761,3.708,0.131l37.602,21.198     c3.608,2.035,8.182,0.758,10.216-2.85C175.115,238.134,173.838,233.56,170.229,231.526z"/><path d="M404.057,302.176c0-3.778,3.074-6.852,6.853-6.852c3.778,0,6.852,3.074,6.852,6.852c0,4.142,3.357,7.5,7.5,7.5     c4.143,0,7.5-3.358,7.5-7.5c0-12.049-9.803-21.852-21.853-21.852c-12.05,0-21.854,9.803-21.854,21.852c0,4.142,3.357,7.5,7.5,7.5     S404.057,306.319,404.057,302.176z"/><path d="M171.114,304.611l20.318,30.148c3.428,5.086,9.135,8.222,15.266,8.389c0.172,0.004,0.344,0.007,0.516,0.007     c5.941,0,11.587-2.798,15.182-7.55l23.137-30.584c2.499-3.304,1.847-8.007-1.457-10.506c-3.302-2.498-8.007-1.846-10.506,1.456     l-23.137,30.585c-1.089,1.439-2.55,1.621-3.326,1.598c-0.775-0.021-2.226-0.28-3.235-1.778l-20.317-30.147     c-2.316-3.436-6.979-4.344-10.411-2.028C169.708,296.514,168.799,301.176,171.114,304.611z"/></g><g transform="matrix(-0.08116666395593265 -0.02272666558551609 -0.02272666558551609 0.08116666395593265 356.59460161757283 297.0360449980447)" id="L1_131"><path d="M488.34,282.579c-26.552-8.546-57.318-32.076-82.94-63.299l22.325-53.797c2.571-6.195,1.741-13.124-2.22-18.537     c-3.96-5.413-10.311-8.3-16.998-7.722l-51.959,4.487c-0.393,0.034-0.755-0.166-0.939-0.506l-20.655-38.153     c-2.713-5.011-7.477-8.516-13.067-9.614c-5.593-1.1-11.327,0.342-15.735,3.954l-33.265,27.26     c-0.389,0.318-0.966,0.287-1.316-0.077L236.91,90.643c-3.748-3.886-9.005-6.004-14.388-5.807     c-5.396,0.195-10.473,2.686-13.931,6.833l-27.813,33.359c-0.302,0.359-0.815,0.453-1.225,0.224l-37.6-21.197     c-5.38-3.033-11.921-3.265-17.501-0.619c-5.58,2.645-9.542,7.856-10.6,13.939l-6.909,39.756c-0.091,0.521-0.597,0.874-1.11,0.795     l-3.114-0.492c-4.1-0.645-7.933,2.147-8.578,6.239c-0.646,4.091,2.147,7.932,6.238,8.578l3.114,0.492     c8.572,1.354,16.743-4.498,18.229-13.042l6.91-39.757c0.311-1.791,1.54-2.62,2.245-2.954c0.705-0.335,2.124-0.762,3.71,0.131     l37.6,21.196c6.716,3.787,15.174,2.237,20.112-3.686l27.813-33.359c1.003-1.203,2.28-1.423,2.952-1.448     c0.661-0.026,1.962,0.103,3.049,1.231l34.658,35.93c5.733,5.946,15.231,6.501,21.621,1.267l33.266-27.26     c1.277-1.048,2.634-0.975,3.335-0.838c0.696,0.137,1.982,0.584,2.769,2.038l20.656,38.154c3.028,5.593,9.063,8.859,15.42,8.308     l51.959-4.487c2.032-0.17,3.2,1.086,3.603,1.637c0.403,0.551,1.256,2.036,0.471,3.928l-23.205,55.915     c-31.138,22.291-45.795,67.234-46.481,102.514c-0.08,4.141,3.212,7.563,7.353,7.644c0.05,0.001,0.099,0.001,0.148,0.001     c4.074,0,7.416-3.263,7.496-7.354c0.681-35.043,15.353-69.836,36.345-87.586c11.458,13.684,24.218,26.323,37.219,36.831     c13.349,10.79,26.562,19.068,39.424,24.733c-6.133,7.76-9.273,16.718-8.964,26.064c0.337,10.205,4.79,19.968,12.488,27.872     c-17.257,10.287-47.969,19.003-102.255,24.192c-3.434-4.233-6.316-9.329-8.572-15.224c-1.479-3.869-5.813-5.806-9.685-4.325     c-3.869,1.48-5.806,5.816-4.325,9.684c1.553,4.059,3.374,7.83,5.423,11.326c-3.454,0.26-6.993,0.508-10.617,0.742     c-0.259,0.003-0.52,0.02-0.781,0.05c-28.827,1.844-63.057,2.863-103.705,2.863c-57.786,0-99.617-3.658-129.147-11.4     c-0.267-0.085-0.536-0.156-0.807-0.21c-6.764-1.804-12.876-3.826-18.376-6.071c-0.168-0.068-0.339-0.131-0.511-0.187     l-72.94-23.768c-1.882-0.613-2.479-2.161-2.648-2.798c-0.17-0.637-0.421-2.277,0.908-3.745l24.459-27.019     c5.092-5.625,5.509-14.132,0.991-20.231L15.79,243.389c-1.075-1.451-0.836-2.905-0.598-3.643     c0.238-0.738,0.896-2.057,2.617-2.604l34.647-11.009c7.566-2.403,12.254-10.115,10.903-17.936l-6.45-37.412     c-0.248-1.441,0.279-2.498,0.766-3.131c0.695-0.904,1.722-1.479,2.817-1.577c4.126-0.37,7.17-4.015,6.8-8.14     c-0.37-4.125-4.026-7.163-8.14-6.799c-5.257,0.471-10.13,3.16-13.37,7.376c-3.271,4.255-4.568,9.518-3.654,14.82l6.45,37.413     c0.082,0.476-0.203,0.944-0.664,1.09l-34.647,11.009c-5.845,1.857-10.46,6.45-12.347,12.286     c-1.887,5.835-0.832,12.261,2.819,17.188l27.314,36.855c0.275,0.372,0.25,0.89-0.061,1.233L6.535,317.427     c-4.349,4.802-5.949,11.407-4.284,17.668s6.337,11.197,12.497,13.204l72.684,23.686c3.703,1.503,7.659,2.908,11.859,4.223     c-1.264,3.871-1.938,7.93-1.938,12.056c0,21.456,17.456,38.913,38.913,38.913h29.47c20.836,0,37.898-16.463,38.866-37.065     c11.459,0.374,23.628,0.563,36.576,0.563c1.978,0,3.938-0.003,5.888-0.008c1.246,20.341,18.182,36.51,38.832,36.51h29.47     c21.457,0,38.913-17.456,38.913-38.913c0-0.353-0.024-0.704-0.034-1.057c76.103-5.515,116.813-17.365,137.755-33.795     c0.558-0.34,1.076-0.754,1.54-1.245c11.288-9.42,16.383-20.289,18.107-32.292C514.019,303.375,504.217,287.689,488.34,282.579z      M165.734,412.176h-29.47c-13.186,0-23.913-10.727-23.913-23.913c0-2.79,0.49-5.534,1.427-8.123     c20.187,4.73,45.17,7.812,75.836,9.356C188.972,402.111,178.507,412.176,165.734,412.176z M315.366,412.176h-29.47     c-12.404,0-22.63-9.493-23.799-21.596c28.846-0.262,54.455-1.074,77.178-2.398c0,0.027,0.003,0.054,0.003,0.081     C339.278,401.449,328.551,412.176,315.366,412.176z M496.8,317.741c-0.936,6.515-3.398,13.063-9.205,19.292     c-5.805-5.449-9.167-12.158-9.395-19.035c-0.237-7.15,2.816-13.898,8.854-19.717C493.955,302.036,497.954,309.714,496.8,317.741z     "/><path d="M260.748,234.099l33.266-27.26c1.278-1.048,2.639-0.976,3.334-0.838c0.697,0.137,1.983,0.583,2.77,2.037l20.656,38.153     c1.358,2.508,3.938,3.931,6.603,3.931c1.205,0,2.429-0.291,3.564-0.906c3.642-1.972,4.997-6.523,3.025-10.166l-20.655-38.153     c-2.714-5.011-7.477-8.515-13.068-9.614c-5.593-1.1-11.327,0.342-15.734,3.954l-33.266,27.26     c-3.204,2.626-3.673,7.351-1.047,10.555C252.817,236.256,257.545,236.722,260.748,234.099z"/><path d="M170.229,231.526l-37.601-21.198c-5.379-3.032-11.92-3.264-17.499-0.619c-5.58,2.645-9.543,7.855-10.602,13.941     l-6.909,39.757c-0.709,4.081,2.024,7.964,6.105,8.673c0.434,0.076,0.866,0.112,1.293,0.112c3.578,0,6.747-2.571,7.381-6.217     l6.908-39.756c0.313-1.792,1.542-2.621,2.248-2.955c0.706-0.334,2.125-0.761,3.708,0.131l37.602,21.198     c3.608,2.035,8.182,0.758,10.216-2.85C175.115,238.134,173.838,233.56,170.229,231.526z"/><path d="M404.057,302.176c0-3.778,3.074-6.852,6.853-6.852c3.778,0,6.852,3.074,6.852,6.852c0,4.142,3.357,7.5,7.5,7.5     c4.143,0,7.5-3.358,7.5-7.5c0-12.049-9.803-21.852-21.853-21.852c-12.05,0-21.854,9.803-21.854,21.852c0,4.142,3.357,7.5,7.5,7.5     S404.057,306.319,404.057,302.176z"/><path d="M171.114,304.611l20.318,30.148c3.428,5.086,9.135,8.222,15.266,8.389c0.172,0.004,0.344,0.007,0.516,0.007     c5.941,0,11.587-2.798,15.182-7.55l23.137-30.584c2.499-3.304,1.847-8.007-1.457-10.506c-3.302-2.498-8.007-1.846-10.506,1.456     l-23.137,30.585c-1.089,1.439-2.55,1.621-3.326,1.598c-0.775-0.021-2.226-0.28-3.235-1.778l-20.317-30.147     c-2.316-3.436-6.979-4.344-10.411-2.028C169.708,296.514,168.799,301.176,171.114,304.611z"/></g><g transform="matrix(0.1171875 0 0 0.1171875 210 348)" id="L1_132"><path d="M488.34,282.579c-26.552-8.546-57.318-32.076-82.94-63.299l22.325-53.797c2.571-6.195,1.741-13.124-2.22-18.537     c-3.96-5.413-10.311-8.3-16.998-7.722l-51.959,4.487c-0.393,0.034-0.755-0.166-0.939-0.506l-20.655-38.153     c-2.713-5.011-7.477-8.516-13.067-9.614c-5.593-1.1-11.327,0.342-15.735,3.954l-33.265,27.26     c-0.389,0.318-0.966,0.287-1.316-0.077L236.91,90.643c-3.748-3.886-9.005-6.004-14.388-5.807     c-5.396,0.195-10.473,2.686-13.931,6.833l-27.813,33.359c-0.302,0.359-0.815,0.453-1.225,0.224l-37.6-21.197     c-5.38-3.033-11.921-3.265-17.501-0.619c-5.58,2.645-9.542,7.856-10.6,13.939l-6.909,39.756c-0.091,0.521-0.597,0.874-1.11,0.795     l-3.114-0.492c-4.1-0.645-7.933,2.147-8.578,6.239c-0.646,4.091,2.147,7.932,6.238,8.578l3.114,0.492     c8.572,1.354,16.743-4.498,18.229-13.042l6.91-39.757c0.311-1.791,1.54-2.62,2.245-2.954c0.705-0.335,2.124-0.762,3.71,0.131     l37.6,21.196c6.716,3.787,15.174,2.237,20.112-3.686l27.813-33.359c1.003-1.203,2.28-1.423,2.952-1.448     c0.661-0.026,1.962,0.103,3.049,1.231l34.658,35.93c5.733,5.946,15.231,6.501,21.621,1.267l33.266-27.26     c1.277-1.048,2.634-0.975,3.335-0.838c0.696,0.137,1.982,0.584,2.769,2.038l20.656,38.154c3.028,5.593,9.063,8.859,15.42,8.308     l51.959-4.487c2.032-0.17,3.2,1.086,3.603,1.637c0.403,0.551,1.256,2.036,0.471,3.928l-23.205,55.915     c-31.138,22.291-45.795,67.234-46.481,102.514c-0.08,4.141,3.212,7.563,7.353,7.644c0.05,0.001,0.099,0.001,0.148,0.001     c4.074,0,7.416-3.263,7.496-7.354c0.681-35.043,15.353-69.836,36.345-87.586c11.458,13.684,24.218,26.323,37.219,36.831     c13.349,10.79,26.562,19.068,39.424,24.733c-6.133,7.76-9.273,16.718-8.964,26.064c0.337,10.205,4.79,19.968,12.488,27.872     c-17.257,10.287-47.969,19.003-102.255,24.192c-3.434-4.233-6.316-9.329-8.572-15.224c-1.479-3.869-5.813-5.806-9.685-4.325     c-3.869,1.48-5.806,5.816-4.325,9.684c1.553,4.059,3.374,7.83,5.423,11.326c-3.454,0.26-6.993,0.508-10.617,0.742     c-0.259,0.003-0.52,0.02-0.781,0.05c-28.827,1.844-63.057,2.863-103.705,2.863c-57.786,0-99.617-3.658-129.147-11.4     c-0.267-0.085-0.536-0.156-0.807-0.21c-6.764-1.804-12.876-3.826-18.376-6.071c-0.168-0.068-0.339-0.131-0.511-0.187     l-72.94-23.768c-1.882-0.613-2.479-2.161-2.648-2.798c-0.17-0.637-0.421-2.277,0.908-3.745l24.459-27.019     c5.092-5.625,5.509-14.132,0.991-20.231L15.79,243.389c-1.075-1.451-0.836-2.905-0.598-3.643     c0.238-0.738,0.896-2.057,2.617-2.604l34.647-11.009c7.566-2.403,12.254-10.115,10.903-17.936l-6.45-37.412     c-0.248-1.441,0.279-2.498,0.766-3.131c0.695-0.904,1.722-1.479,2.817-1.577c4.126-0.37,7.17-4.015,6.8-8.14     c-0.37-4.125-4.026-7.163-8.14-6.799c-5.257,0.471-10.13,3.16-13.37,7.376c-3.271,4.255-4.568,9.518-3.654,14.82l6.45,37.413     c0.082,0.476-0.203,0.944-0.664,1.09l-34.647,11.009c-5.845,1.857-10.46,6.45-12.347,12.286     c-1.887,5.835-0.832,12.261,2.819,17.188l27.314,36.855c0.275,0.372,0.25,0.89-0.061,1.233L6.535,317.427     c-4.349,4.802-5.949,11.407-4.284,17.668s6.337,11.197,12.497,13.204l72.684,23.686c3.703,1.503,7.659,2.908,11.859,4.223     c-1.264,3.871-1.938,7.93-1.938,12.056c0,21.456,17.456,38.913,38.913,38.913h29.47c20.836,0,37.898-16.463,38.866-37.065     c11.459,0.374,23.628,0.563,36.576,0.563c1.978,0,3.938-0.003,5.888-0.008c1.246,20.341,18.182,36.51,38.832,36.51h29.47     c21.457,0,38.913-17.456,38.913-38.913c0-0.353-0.024-0.704-0.034-1.057c76.103-5.515,116.813-17.365,137.755-33.795     c0.558-0.34,1.076-0.754,1.54-1.245c11.288-9.42,16.383-20.289,18.107-32.292C514.019,303.375,504.217,287.689,488.34,282.579z      M165.734,412.176h-29.47c-13.186,0-23.913-10.727-23.913-23.913c0-2.79,0.49-5.534,1.427-8.123     c20.187,4.73,45.17,7.812,75.836,9.356C188.972,402.111,178.507,412.176,165.734,412.176z M315.366,412.176h-29.47     c-12.404,0-22.63-9.493-23.799-21.596c28.846-0.262,54.455-1.074,77.178-2.398c0,0.027,0.003,0.054,0.003,0.081     C339.278,401.449,328.551,412.176,315.366,412.176z M496.8,317.741c-0.936,6.515-3.398,13.063-9.205,19.292     c-5.805-5.449-9.167-12.158-9.395-19.035c-0.237-7.15,2.816-13.898,8.854-19.717C493.955,302.036,497.954,309.714,496.8,317.741z     "/><path d="M260.748,234.099l33.266-27.26c1.278-1.048,2.639-0.976,3.334-0.838c0.697,0.137,1.983,0.583,2.77,2.037l20.656,38.153     c1.358,2.508,3.938,3.931,6.603,3.931c1.205,0,2.429-0.291,3.564-0.906c3.642-1.972,4.997-6.523,3.025-10.166l-20.655-38.153     c-2.714-5.011-7.477-8.515-13.068-9.614c-5.593-1.1-11.327,0.342-15.734,3.954l-33.266,27.26     c-3.204,2.626-3.673,7.351-1.047,10.555C252.817,236.256,257.545,236.722,260.748,234.099z"/><path d="M170.229,231.526l-37.601-21.198c-5.379-3.032-11.92-3.264-17.499-0.619c-5.58,2.645-9.543,7.855-10.602,13.941     l-6.909,39.757c-0.709,4.081,2.024,7.964,6.105,8.673c0.434,0.076,0.866,0.112,1.293,0.112c3.578,0,6.747-2.571,7.381-6.217     l6.908-39.756c0.313-1.792,1.542-2.621,2.248-2.955c0.706-0.334,2.125-0.761,3.708,0.131l37.602,21.198     c3.608,2.035,8.182,0.758,10.216-2.85C175.115,238.134,173.838,233.56,170.229,231.526z"/><path d="M404.057,302.176c0-3.778,3.074-6.852,6.853-6.852c3.778,0,6.852,3.074,6.852,6.852c0,4.142,3.357,7.5,7.5,7.5     c4.143,0,7.5-3.358,7.5-7.5c0-12.049-9.803-21.852-21.853-21.852c-12.05,0-21.854,9.803-21.854,21.852c0,4.142,3.357,7.5,7.5,7.5     S404.057,306.319,404.057,302.176z"/><path d="M171.114,304.611l20.318,30.148c3.428,5.086,9.135,8.222,15.266,8.389c0.172,0.004,0.344,0.007,0.516,0.007     c5.941,0,11.587-2.798,15.182-7.55l23.137-30.584c2.499-3.304,1.847-8.007-1.457-10.506c-3.302-2.498-8.007-1.846-10.506,1.456     l-23.137,30.585c-1.089,1.439-2.55,1.621-3.326,1.598c-0.775-0.021-2.226-0.28-3.235-1.778l-20.317-30.147     c-2.316-3.436-6.979-4.344-10.411-2.028C169.708,296.514,168.799,301.176,171.114,304.611z"/></g><g transform="matrix(0.12986665847811957 -0.08765998838451007 0.08765998838451007 0.12986665847811957 -44.67875729522842 205.19625776245474)" id="L1_133"><path d="M488.34,282.579c-26.552-8.546-57.318-32.076-82.94-63.299l22.325-53.797c2.571-6.195,1.741-13.124-2.22-18.537     c-3.96-5.413-10.311-8.3-16.998-7.722l-51.959,4.487c-0.393,0.034-0.755-0.166-0.939-0.506l-20.655-38.153     c-2.713-5.011-7.477-8.516-13.067-9.614c-5.593-1.1-11.327,0.342-15.735,3.954l-33.265,27.26     c-0.389,0.318-0.966,0.287-1.316-0.077L236.91,90.643c-3.748-3.886-9.005-6.004-14.388-5.807     c-5.396,0.195-10.473,2.686-13.931,6.833l-27.813,33.359c-0.302,0.359-0.815,0.453-1.225,0.224l-37.6-21.197     c-5.38-3.033-11.921-3.265-17.501-0.619c-5.58,2.645-9.542,7.856-10.6,13.939l-6.909,39.756c-0.091,0.521-0.597,0.874-1.11,0.795     l-3.114-0.492c-4.1-0.645-7.933,2.147-8.578,6.239c-0.646,4.091,2.147,7.932,6.238,8.578l3.114,0.492     c8.572,1.354,16.743-4.498,18.229-13.042l6.91-39.757c0.311-1.791,1.54-2.62,2.245-2.954c0.705-0.335,2.124-0.762,3.71,0.131     l37.6,21.196c6.716,3.787,15.174,2.237,20.112-3.686l27.813-33.359c1.003-1.203,2.28-1.423,2.952-1.448     c0.661-0.026,1.962,0.103,3.049,1.231l34.658,35.93c5.733,5.946,15.231,6.501,21.621,1.267l33.266-27.26     c1.277-1.048,2.634-0.975,3.335-0.838c0.696,0.137,1.982,0.584,2.769,2.038l20.656,38.154c3.028,5.593,9.063,8.859,15.42,8.308     l51.959-4.487c2.032-0.17,3.2,1.086,3.603,1.637c0.403,0.551,1.256,2.036,0.471,3.928l-23.205,55.915     c-31.138,22.291-45.795,67.234-46.481,102.514c-0.08,4.141,3.212,7.563,7.353,7.644c0.05,0.001,0.099,0.001,0.148,0.001     c4.074,0,7.416-3.263,7.496-7.354c0.681-35.043,15.353-69.836,36.345-87.586c11.458,13.684,24.218,26.323,37.219,36.831     c13.349,10.79,26.562,19.068,39.424,24.733c-6.133,7.76-9.273,16.718-8.964,26.064c0.337,10.205,4.79,19.968,12.488,27.872     c-17.257,10.287-47.969,19.003-102.255,24.192c-3.434-4.233-6.316-9.329-8.572-15.224c-1.479-3.869-5.813-5.806-9.685-4.325     c-3.869,1.48-5.806,5.816-4.325,9.684c1.553,4.059,3.374,7.83,5.423,11.326c-3.454,0.26-6.993,0.508-10.617,0.742     c-0.259,0.003-0.52,0.02-0.781,0.05c-28.827,1.844-63.057,2.863-103.705,2.863c-57.786,0-99.617-3.658-129.147-11.4     c-0.267-0.085-0.536-0.156-0.807-0.21c-6.764-1.804-12.876-3.826-18.376-6.071c-0.168-0.068-0.339-0.131-0.511-0.187     l-72.94-23.768c-1.882-0.613-2.479-2.161-2.648-2.798c-0.17-0.637-0.421-2.277,0.908-3.745l24.459-27.019     c5.092-5.625,5.509-14.132,0.991-20.231L15.79,243.389c-1.075-1.451-0.836-2.905-0.598-3.643     c0.238-0.738,0.896-2.057,2.617-2.604l34.647-11.009c7.566-2.403,12.254-10.115,10.903-17.936l-6.45-37.412     c-0.248-1.441,0.279-2.498,0.766-3.131c0.695-0.904,1.722-1.479,2.817-1.577c4.126-0.37,7.17-4.015,6.8-8.14     c-0.37-4.125-4.026-7.163-8.14-6.799c-5.257,0.471-10.13,3.16-13.37,7.376c-3.271,4.255-4.568,9.518-3.654,14.82l6.45,37.413     c0.082,0.476-0.203,0.944-0.664,1.09l-34.647,11.009c-5.845,1.857-10.46,6.45-12.347,12.286     c-1.887,5.835-0.832,12.261,2.819,17.188l27.314,36.855c0.275,0.372,0.25,0.89-0.061,1.233L6.535,317.427     c-4.349,4.802-5.949,11.407-4.284,17.668s6.337,11.197,12.497,13.204l72.684,23.686c3.703,1.503,7.659,2.908,11.859,4.223     c-1.264,3.871-1.938,7.93-1.938,12.056c0,21.456,17.456,38.913,38.913,38.913h29.47c20.836,0,37.898-16.463,38.866-37.065     c11.459,0.374,23.628,0.563,36.576,0.563c1.978,0,3.938-0.003,5.888-0.008c1.246,20.341,18.182,36.51,38.832,36.51h29.47     c21.457,0,38.913-17.456,38.913-38.913c0-0.353-0.024-0.704-0.034-1.057c76.103-5.515,116.813-17.365,137.755-33.795     c0.558-0.34,1.076-0.754,1.54-1.245c11.288-9.42,16.383-20.289,18.107-32.292C514.019,303.375,504.217,287.689,488.34,282.579z      M165.734,412.176h-29.47c-13.186,0-23.913-10.727-23.913-23.913c0-2.79,0.49-5.534,1.427-8.123     c20.187,4.73,45.17,7.812,75.836,9.356C188.972,402.111,178.507,412.176,165.734,412.176z M315.366,412.176h-29.47     c-12.404,0-22.63-9.493-23.799-21.596c28.846-0.262,54.455-1.074,77.178-2.398c0,0.027,0.003,0.054,0.003,0.081     C339.278,401.449,328.551,412.176,315.366,412.176z M496.8,317.741c-0.936,6.515-3.398,13.063-9.205,19.292     c-5.805-5.449-9.167-12.158-9.395-19.035c-0.237-7.15,2.816-13.898,8.854-19.717C493.955,302.036,497.954,309.714,496.8,317.741z     "/><path d="M260.748,234.099l33.266-27.26c1.278-1.048,2.639-0.976,3.334-0.838c0.697,0.137,1.983,0.583,2.77,2.037l20.656,38.153     c1.358,2.508,3.938,3.931,6.603,3.931c1.205,0,2.429-0.291,3.564-0.906c3.642-1.972,4.997-6.523,3.025-10.166l-20.655-38.153     c-2.714-5.011-7.477-8.515-13.068-9.614c-5.593-1.1-11.327,0.342-15.734,3.954l-33.266,27.26     c-3.204,2.626-3.673,7.351-1.047,10.555C252.817,236.256,257.545,236.722,260.748,234.099z"/><path d="M170.229,231.526l-37.601-21.198c-5.379-3.032-11.92-3.264-17.499-0.619c-5.58,2.645-9.543,7.855-10.602,13.941     l-6.909,39.757c-0.709,4.081,2.024,7.964,6.105,8.673c0.434,0.076,0.866,0.112,1.293,0.112c3.578,0,6.747-2.571,7.381-6.217     l6.908-39.756c0.313-1.792,1.542-2.621,2.248-2.955c0.706-0.334,2.125-0.761,3.708,0.131l37.602,21.198     c3.608,2.035,8.182,0.758,10.216-2.85C175.115,238.134,173.838,233.56,170.229,231.526z"/><path d="M404.057,302.176c0-3.778,3.074-6.852,6.853-6.852c3.778,0,6.852,3.074,6.852,6.852c0,4.142,3.357,7.5,7.5,7.5     c4.143,0,7.5-3.358,7.5-7.5c0-12.049-9.803-21.852-21.853-21.852c-12.05,0-21.854,9.803-21.854,21.852c0,4.142,3.357,7.5,7.5,7.5     S404.057,306.319,404.057,302.176z"/><path d="M171.114,304.611l20.318,30.148c3.428,5.086,9.135,8.222,15.266,8.389c0.172,0.004,0.344,0.007,0.516,0.007     c5.941,0,11.587-2.798,15.182-7.55l23.137-30.584c2.499-3.304,1.847-8.007-1.457-10.506c-3.302-2.498-8.007-1.846-10.506,1.456     l-23.137,30.585c-1.089,1.439-2.55,1.621-3.326,1.598c-0.775-0.021-2.226-0.28-3.235-1.778l-20.317-30.147     c-2.316-3.436-6.979-4.344-10.411-2.028C169.708,296.514,168.799,301.176,171.114,304.611z"/></g><g transform="matrix(0.09415332615618659 0.05194666196518396 -0.05194666196518396 0.09415332615618659 214.19031536881175 127.59628244255657)" id="L1_134"><path d="M488.34,282.579c-26.552-8.546-57.318-32.076-82.94-63.299l22.325-53.797c2.571-6.195,1.741-13.124-2.22-18.537     c-3.96-5.413-10.311-8.3-16.998-7.722l-51.959,4.487c-0.393,0.034-0.755-0.166-0.939-0.506l-20.655-38.153     c-2.713-5.011-7.477-8.516-13.067-9.614c-5.593-1.1-11.327,0.342-15.735,3.954l-33.265,27.26     c-0.389,0.318-0.966,0.287-1.316-0.077L236.91,90.643c-3.748-3.886-9.005-6.004-14.388-5.807     c-5.396,0.195-10.473,2.686-13.931,6.833l-27.813,33.359c-0.302,0.359-0.815,0.453-1.225,0.224l-37.6-21.197     c-5.38-3.033-11.921-3.265-17.501-0.619c-5.58,2.645-9.542,7.856-10.6,13.939l-6.909,39.756c-0.091,0.521-0.597,0.874-1.11,0.795     l-3.114-0.492c-4.1-0.645-7.933,2.147-8.578,6.239c-0.646,4.091,2.147,7.932,6.238,8.578l3.114,0.492     c8.572,1.354,16.743-4.498,18.229-13.042l6.91-39.757c0.311-1.791,1.54-2.62,2.245-2.954c0.705-0.335,2.124-0.762,3.71,0.131     l37.6,21.196c6.716,3.787,15.174,2.237,20.112-3.686l27.813-33.359c1.003-1.203,2.28-1.423,2.952-1.448     c0.661-0.026,1.962,0.103,3.049,1.231l34.658,35.93c5.733,5.946,15.231,6.501,21.621,1.267l33.266-27.26     c1.277-1.048,2.634-0.975,3.335-0.838c0.696,0.137,1.982,0.584,2.769,2.038l20.656,38.154c3.028,5.593,9.063,8.859,15.42,8.308     l51.959-4.487c2.032-0.17,3.2,1.086,3.603,1.637c0.403,0.551,1.256,2.036,0.471,3.928l-23.205,55.915     c-31.138,22.291-45.795,67.234-46.481,102.514c-0.08,4.141,3.212,7.563,7.353,7.644c0.05,0.001,0.099,0.001,0.148,0.001     c4.074,0,7.416-3.263,7.496-7.354c0.681-35.043,15.353-69.836,36.345-87.586c11.458,13.684,24.218,26.323,37.219,36.831     c13.349,10.79,26.562,19.068,39.424,24.733c-6.133,7.76-9.273,16.718-8.964,26.064c0.337,10.205,4.79,19.968,12.488,27.872     c-17.257,10.287-47.969,19.003-102.255,24.192c-3.434-4.233-6.316-9.329-8.572-15.224c-1.479-3.869-5.813-5.806-9.685-4.325     c-3.869,1.48-5.806,5.816-4.325,9.684c1.553,4.059,3.374,7.83,5.423,11.326c-3.454,0.26-6.993,0.508-10.617,0.742     c-0.259,0.003-0.52,0.02-0.781,0.05c-28.827,1.844-63.057,2.863-103.705,2.863c-57.786,0-99.617-3.658-129.147-11.4     c-0.267-0.085-0.536-0.156-0.807-0.21c-6.764-1.804-12.876-3.826-18.376-6.071c-0.168-0.068-0.339-0.131-0.511-0.187     l-72.94-23.768c-1.882-0.613-2.479-2.161-2.648-2.798c-0.17-0.637-0.421-2.277,0.908-3.745l24.459-27.019     c5.092-5.625,5.509-14.132,0.991-20.231L15.79,243.389c-1.075-1.451-0.836-2.905-0.598-3.643     c0.238-0.738,0.896-2.057,2.617-2.604l34.647-11.009c7.566-2.403,12.254-10.115,10.903-17.936l-6.45-37.412     c-0.248-1.441,0.279-2.498,0.766-3.131c0.695-0.904,1.722-1.479,2.817-1.577c4.126-0.37,7.17-4.015,6.8-8.14     c-0.37-4.125-4.026-7.163-8.14-6.799c-5.257,0.471-10.13,3.16-13.37,7.376c-3.271,4.255-4.568,9.518-3.654,14.82l6.45,37.413     c0.082,0.476-0.203,0.944-0.664,1.09l-34.647,11.009c-5.845,1.857-10.46,6.45-12.347,12.286     c-1.887,5.835-0.832,12.261,2.819,17.188l27.314,36.855c0.275,0.372,0.25,0.89-0.061,1.233L6.535,317.427     c-4.349,4.802-5.949,11.407-4.284,17.668s6.337,11.197,12.497,13.204l72.684,23.686c3.703,1.503,7.659,2.908,11.859,4.223     c-1.264,3.871-1.938,7.93-1.938,12.056c0,21.456,17.456,38.913,38.913,38.913h29.47c20.836,0,37.898-16.463,38.866-37.065     c11.459,0.374,23.628,0.563,36.576,0.563c1.978,0,3.938-0.003,5.888-0.008c1.246,20.341,18.182,36.51,38.832,36.51h29.47     c21.457,0,38.913-17.456,38.913-38.913c0-0.353-0.024-0.704-0.034-1.057c76.103-5.515,116.813-17.365,137.755-33.795     c0.558-0.34,1.076-0.754,1.54-1.245c11.288-9.42,16.383-20.289,18.107-32.292C514.019,303.375,504.217,287.689,488.34,282.579z      M165.734,412.176h-29.47c-13.186,0-23.913-10.727-23.913-23.913c0-2.79,0.49-5.534,1.427-8.123     c20.187,4.73,45.17,7.812,75.836,9.356C188.972,402.111,178.507,412.176,165.734,412.176z M315.366,412.176h-29.47     c-12.404,0-22.63-9.493-23.799-21.596c28.846-0.262,54.455-1.074,77.178-2.398c0,0.027,0.003,0.054,0.003,0.081     C339.278,401.449,328.551,412.176,315.366,412.176z M496.8,317.741c-0.936,6.515-3.398,13.063-9.205,19.292     c-5.805-5.449-9.167-12.158-9.395-19.035c-0.237-7.15,2.816-13.898,8.854-19.717C493.955,302.036,497.954,309.714,496.8,317.741z     "/><path d="M260.748,234.099l33.266-27.26c1.278-1.048,2.639-0.976,3.334-0.838c0.697,0.137,1.983,0.583,2.77,2.037l20.656,38.153     c1.358,2.508,3.938,3.931,6.603,3.931c1.205,0,2.429-0.291,3.564-0.906c3.642-1.972,4.997-6.523,3.025-10.166l-20.655-38.153     c-2.714-5.011-7.477-8.515-13.068-9.614c-5.593-1.1-11.327,0.342-15.734,3.954l-33.266,27.26     c-3.204,2.626-3.673,7.351-1.047,10.555C252.817,236.256,257.545,236.722,260.748,234.099z"/><path d="M170.229,231.526l-37.601-21.198c-5.379-3.032-11.92-3.264-17.499-0.619c-5.58,2.645-9.543,7.855-10.602,13.941     l-6.909,39.757c-0.709,4.081,2.024,7.964,6.105,8.673c0.434,0.076,0.866,0.112,1.293,0.112c3.578,0,6.747-2.571,7.381-6.217     l6.908-39.756c0.313-1.792,1.542-2.621,2.248-2.955c0.706-0.334,2.125-0.761,3.708,0.131l37.602,21.198     c3.608,2.035,8.182,0.758,10.216-2.85C175.115,238.134,173.838,233.56,170.229,231.526z"/><path d="M404.057,302.176c0-3.778,3.074-6.852,6.853-6.852c3.778,0,6.852,3.074,6.852,6.852c0,4.142,3.357,7.5,7.5,7.5     c4.143,0,7.5-3.358,7.5-7.5c0-12.049-9.803-21.852-21.853-21.852c-12.05,0-21.854,9.803-21.854,21.852c0,4.142,3.357,7.5,7.5,7.5     S404.057,306.319,404.057,302.176z"/><path d="M171.114,304.611l20.318,30.148c3.428,5.086,9.135,8.222,15.266,8.389c0.172,0.004,0.344,0.007,0.516,0.007     c5.941,0,11.587-2.798,15.182-7.55l23.137-30.584c2.499-3.304,1.847-8.007-1.457-10.506c-3.302-2.498-8.007-1.846-10.506,1.456     l-23.137,30.585c-1.089,1.439-2.55,1.621-3.326,1.598c-0.775-0.021-2.226-0.28-3.235-1.778l-20.317-30.147     c-2.316-3.436-6.979-4.344-10.411-2.028C169.708,296.514,168.799,301.176,171.114,304.611z"/></g><g transform="matrix(-0.10713999724943718 0.048699998044328195 -0.048699998044328195 -0.10713999724943718 123.89055885908016 330.9400026868927)" id="L1_136"><path d="M488.34,282.579c-26.552-8.546-57.318-32.076-82.94-63.299l22.325-53.797c2.571-6.195,1.741-13.124-2.22-18.537     c-3.96-5.413-10.311-8.3-16.998-7.722l-51.959,4.487c-0.393,0.034-0.755-0.166-0.939-0.506l-20.655-38.153     c-2.713-5.011-7.477-8.516-13.067-9.614c-5.593-1.1-11.327,0.342-15.735,3.954l-33.265,27.26     c-0.389,0.318-0.966,0.287-1.316-0.077L236.91,90.643c-3.748-3.886-9.005-6.004-14.388-5.807     c-5.396,0.195-10.473,2.686-13.931,6.833l-27.813,33.359c-0.302,0.359-0.815,0.453-1.225,0.224l-37.6-21.197     c-5.38-3.033-11.921-3.265-17.501-0.619c-5.58,2.645-9.542,7.856-10.6,13.939l-6.909,39.756c-0.091,0.521-0.597,0.874-1.11,0.795     l-3.114-0.492c-4.1-0.645-7.933,2.147-8.578,6.239c-0.646,4.091,2.147,7.932,6.238,8.578l3.114,0.492     c8.572,1.354,16.743-4.498,18.229-13.042l6.91-39.757c0.311-1.791,1.54-2.62,2.245-2.954c0.705-0.335,2.124-0.762,3.71,0.131     l37.6,21.196c6.716,3.787,15.174,2.237,20.112-3.686l27.813-33.359c1.003-1.203,2.28-1.423,2.952-1.448     c0.661-0.026,1.962,0.103,3.049,1.231l34.658,35.93c5.733,5.946,15.231,6.501,21.621,1.267l33.266-27.26     c1.277-1.048,2.634-0.975,3.335-0.838c0.696,0.137,1.982,0.584,2.769,2.038l20.656,38.154c3.028,5.593,9.063,8.859,15.42,8.308     l51.959-4.487c2.032-0.17,3.2,1.086,3.603,1.637c0.403,0.551,1.256,2.036,0.471,3.928l-23.205,55.915     c-31.138,22.291-45.795,67.234-46.481,102.514c-0.08,4.141,3.212,7.563,7.353,7.644c0.05,0.001,0.099,0.001,0.148,0.001     c4.074,0,7.416-3.263,7.496-7.354c0.681-35.043,15.353-69.836,36.345-87.586c11.458,13.684,24.218,26.323,37.219,36.831     c13.349,10.79,26.562,19.068,39.424,24.733c-6.133,7.76-9.273,16.718-8.964,26.064c0.337,10.205,4.79,19.968,12.488,27.872     c-17.257,10.287-47.969,19.003-102.255,24.192c-3.434-4.233-6.316-9.329-8.572-15.224c-1.479-3.869-5.813-5.806-9.685-4.325     c-3.869,1.48-5.806,5.816-4.325,9.684c1.553,4.059,3.374,7.83,5.423,11.326c-3.454,0.26-6.993,0.508-10.617,0.742     c-0.259,0.003-0.52,0.02-0.781,0.05c-28.827,1.844-63.057,2.863-103.705,2.863c-57.786,0-99.617-3.658-129.147-11.4     c-0.267-0.085-0.536-0.156-0.807-0.21c-6.764-1.804-12.876-3.826-18.376-6.071c-0.168-0.068-0.339-0.131-0.511-0.187     l-72.94-23.768c-1.882-0.613-2.479-2.161-2.648-2.798c-0.17-0.637-0.421-2.277,0.908-3.745l24.459-27.019     c5.092-5.625,5.509-14.132,0.991-20.231L15.79,243.389c-1.075-1.451-0.836-2.905-0.598-3.643     c0.238-0.738,0.896-2.057,2.617-2.604l34.647-11.009c7.566-2.403,12.254-10.115,10.903-17.936l-6.45-37.412     c-0.248-1.441,0.279-2.498,0.766-3.131c0.695-0.904,1.722-1.479,2.817-1.577c4.126-0.37,7.17-4.015,6.8-8.14     c-0.37-4.125-4.026-7.163-8.14-6.799c-5.257,0.471-10.13,3.16-13.37,7.376c-3.271,4.255-4.568,9.518-3.654,14.82l6.45,37.413     c0.082,0.476-0.203,0.944-0.664,1.09l-34.647,11.009c-5.845,1.857-10.46,6.45-12.347,12.286     c-1.887,5.835-0.832,12.261,2.819,17.188l27.314,36.855c0.275,0.372,0.25,0.89-0.061,1.233L6.535,317.427     c-4.349,4.802-5.949,11.407-4.284,17.668s6.337,11.197,12.497,13.204l72.684,23.686c3.703,1.503,7.659,2.908,11.859,4.223     c-1.264,3.871-1.938,7.93-1.938,12.056c0,21.456,17.456,38.913,38.913,38.913h29.47c20.836,0,37.898-16.463,38.866-37.065     c11.459,0.374,23.628,0.563,36.576,0.563c1.978,0,3.938-0.003,5.888-0.008c1.246,20.341,18.182,36.51,38.832,36.51h29.47     c21.457,0,38.913-17.456,38.913-38.913c0-0.353-0.024-0.704-0.034-1.057c76.103-5.515,116.813-17.365,137.755-33.795     c0.558-0.34,1.076-0.754,1.54-1.245c11.288-9.42,16.383-20.289,18.107-32.292C514.019,303.375,504.217,287.689,488.34,282.579z      M165.734,412.176h-29.47c-13.186,0-23.913-10.727-23.913-23.913c0-2.79,0.49-5.534,1.427-8.123     c20.187,4.73,45.17,7.812,75.836,9.356C188.972,402.111,178.507,412.176,165.734,412.176z M315.366,412.176h-29.47     c-12.404,0-22.63-9.493-23.799-21.596c28.846-0.262,54.455-1.074,77.178-2.398c0,0.027,0.003,0.054,0.003,0.081     C339.278,401.449,328.551,412.176,315.366,412.176z M496.8,317.741c-0.936,6.515-3.398,13.063-9.205,19.292     c-5.805-5.449-9.167-12.158-9.395-19.035c-0.237-7.15,2.816-13.898,8.854-19.717C493.955,302.036,497.954,309.714,496.8,317.741z     "/><path d="M260.748,234.099l33.266-27.26c1.278-1.048,2.639-0.976,3.334-0.838c0.697,0.137,1.983,0.583,2.77,2.037l20.656,38.153     c1.358,2.508,3.938,3.931,6.603,3.931c1.205,0,2.429-0.291,3.564-0.906c3.642-1.972,4.997-6.523,3.025-10.166l-20.655-38.153     c-2.714-5.011-7.477-8.515-13.068-9.614c-5.593-1.1-11.327,0.342-15.734,3.954l-33.266,27.26     c-3.204,2.626-3.673,7.351-1.047,10.555C252.817,236.256,257.545,236.722,260.748,234.099z"/><path d="M170.229,231.526l-37.601-21.198c-5.379-3.032-11.92-3.264-17.499-0.619c-5.58,2.645-9.543,7.855-10.602,13.941     l-6.909,39.757c-0.709,4.081,2.024,7.964,6.105,8.673c0.434,0.076,0.866,0.112,1.293,0.112c3.578,0,6.747-2.571,7.381-6.217     l6.908-39.756c0.313-1.792,1.542-2.621,2.248-2.955c0.706-0.334,2.125-0.761,3.708,0.131l37.602,21.198     c3.608,2.035,8.182,0.758,10.216-2.85C175.115,238.134,173.838,233.56,170.229,231.526z"/><path d="M404.057,302.176c0-3.778,3.074-6.852,6.853-6.852c3.778,0,6.852,3.074,6.852,6.852c0,4.142,3.357,7.5,7.5,7.5     c4.143,0,7.5-3.358,7.5-7.5c0-12.049-9.803-21.852-21.853-21.852c-12.05,0-21.854,9.803-21.854,21.852c0,4.142,3.357,7.5,7.5,7.5     S404.057,306.319,404.057,302.176z"/><path d="M171.114,304.611l20.318,30.148c3.428,5.086,9.135,8.222,15.266,8.389c0.172,0.004,0.344,0.007,0.516,0.007     c5.941,0,11.587-2.798,15.182-7.55l23.137-30.584c2.499-3.304,1.847-8.007-1.457-10.506c-3.302-2.498-8.007-1.846-10.506,1.456     l-23.137,30.585c-1.089,1.439-2.55,1.621-3.326,1.598c-0.775-0.021-2.226-0.28-3.235-1.778l-20.317-30.147     c-2.316-3.436-6.979-4.344-10.411-2.028C169.708,296.514,168.799,301.176,171.114,304.611z"/></g><g transform="matrix(0.07467333227396011 0 0 0.07467333227396011 103.88362693786621 64.87971492343445)" id="L1_137"><path d="M488.34,282.579c-26.552-8.546-57.318-32.076-82.94-63.299l22.325-53.797c2.571-6.195,1.741-13.124-2.22-18.537     c-3.96-5.413-10.311-8.3-16.998-7.722l-51.959,4.487c-0.393,0.034-0.755-0.166-0.939-0.506l-20.655-38.153     c-2.713-5.011-7.477-8.516-13.067-9.614c-5.593-1.1-11.327,0.342-15.735,3.954l-33.265,27.26     c-0.389,0.318-0.966,0.287-1.316-0.077L236.91,90.643c-3.748-3.886-9.005-6.004-14.388-5.807     c-5.396,0.195-10.473,2.686-13.931,6.833l-27.813,33.359c-0.302,0.359-0.815,0.453-1.225,0.224l-37.6-21.197     c-5.38-3.033-11.921-3.265-17.501-0.619c-5.58,2.645-9.542,7.856-10.6,13.939l-6.909,39.756c-0.091,0.521-0.597,0.874-1.11,0.795     l-3.114-0.492c-4.1-0.645-7.933,2.147-8.578,6.239c-0.646,4.091,2.147,7.932,6.238,8.578l3.114,0.492     c8.572,1.354,16.743-4.498,18.229-13.042l6.91-39.757c0.311-1.791,1.54-2.62,2.245-2.954c0.705-0.335,2.124-0.762,3.71,0.131     l37.6,21.196c6.716,3.787,15.174,2.237,20.112-3.686l27.813-33.359c1.003-1.203,2.28-1.423,2.952-1.448     c0.661-0.026,1.962,0.103,3.049,1.231l34.658,35.93c5.733,5.946,15.231,6.501,21.621,1.267l33.266-27.26     c1.277-1.048,2.634-0.975,3.335-0.838c0.696,0.137,1.982,0.584,2.769,2.038l20.656,38.154c3.028,5.593,9.063,8.859,15.42,8.308     l51.959-4.487c2.032-0.17,3.2,1.086,3.603,1.637c0.403,0.551,1.256,2.036,0.471,3.928l-23.205,55.915     c-31.138,22.291-45.795,67.234-46.481,102.514c-0.08,4.141,3.212,7.563,7.353,7.644c0.05,0.001,0.099,0.001,0.148,0.001     c4.074,0,7.416-3.263,7.496-7.354c0.681-35.043,15.353-69.836,36.345-87.586c11.458,13.684,24.218,26.323,37.219,36.831     c13.349,10.79,26.562,19.068,39.424,24.733c-6.133,7.76-9.273,16.718-8.964,26.064c0.337,10.205,4.79,19.968,12.488,27.872     c-17.257,10.287-47.969,19.003-102.255,24.192c-3.434-4.233-6.316-9.329-8.572-15.224c-1.479-3.869-5.813-5.806-9.685-4.325     c-3.869,1.48-5.806,5.816-4.325,9.684c1.553,4.059,3.374,7.83,5.423,11.326c-3.454,0.26-6.993,0.508-10.617,0.742     c-0.259,0.003-0.52,0.02-0.781,0.05c-28.827,1.844-63.057,2.863-103.705,2.863c-57.786,0-99.617-3.658-129.147-11.4     c-0.267-0.085-0.536-0.156-0.807-0.21c-6.764-1.804-12.876-3.826-18.376-6.071c-0.168-0.068-0.339-0.131-0.511-0.187     l-72.94-23.768c-1.882-0.613-2.479-2.161-2.648-2.798c-0.17-0.637-0.421-2.277,0.908-3.745l24.459-27.019     c5.092-5.625,5.509-14.132,0.991-20.231L15.79,243.389c-1.075-1.451-0.836-2.905-0.598-3.643     c0.238-0.738,0.896-2.057,2.617-2.604l34.647-11.009c7.566-2.403,12.254-10.115,10.903-17.936l-6.45-37.412     c-0.248-1.441,0.279-2.498,0.766-3.131c0.695-0.904,1.722-1.479,2.817-1.577c4.126-0.37,7.17-4.015,6.8-8.14     c-0.37-4.125-4.026-7.163-8.14-6.799c-5.257,0.471-10.13,3.16-13.37,7.376c-3.271,4.255-4.568,9.518-3.654,14.82l6.45,37.413     c0.082,0.476-0.203,0.944-0.664,1.09l-34.647,11.009c-5.845,1.857-10.46,6.45-12.347,12.286     c-1.887,5.835-0.832,12.261,2.819,17.188l27.314,36.855c0.275,0.372,0.25,0.89-0.061,1.233L6.535,317.427     c-4.349,4.802-5.949,11.407-4.284,17.668s6.337,11.197,12.497,13.204l72.684,23.686c3.703,1.503,7.659,2.908,11.859,4.223     c-1.264,3.871-1.938,7.93-1.938,12.056c0,21.456,17.456,38.913,38.913,38.913h29.47c20.836,0,37.898-16.463,38.866-37.065     c11.459,0.374,23.628,0.563,36.576,0.563c1.978,0,3.938-0.003,5.888-0.008c1.246,20.341,18.182,36.51,38.832,36.51h29.47     c21.457,0,38.913-17.456,38.913-38.913c0-0.353-0.024-0.704-0.034-1.057c76.103-5.515,116.813-17.365,137.755-33.795     c0.558-0.34,1.076-0.754,1.54-1.245c11.288-9.42,16.383-20.289,18.107-32.292C514.019,303.375,504.217,287.689,488.34,282.579z      M165.734,412.176h-29.47c-13.186,0-23.913-10.727-23.913-23.913c0-2.79,0.49-5.534,1.427-8.123     c20.187,4.73,45.17,7.812,75.836,9.356C188.972,402.111,178.507,412.176,165.734,412.176z M315.366,412.176h-29.47     c-12.404,0-22.63-9.493-23.799-21.596c28.846-0.262,54.455-1.074,77.178-2.398c0,0.027,0.003,0.054,0.003,0.081     C339.278,401.449,328.551,412.176,315.366,412.176z M496.8,317.741c-0.936,6.515-3.398,13.063-9.205,19.292     c-5.805-5.449-9.167-12.158-9.395-19.035c-0.237-7.15,2.816-13.898,8.854-19.717C493.955,302.036,497.954,309.714,496.8,317.741z     "/><path d="M260.748,234.099l33.266-27.26c1.278-1.048,2.639-0.976,3.334-0.838c0.697,0.137,1.983,0.583,2.77,2.037l20.656,38.153     c1.358,2.508,3.938,3.931,6.603,3.931c1.205,0,2.429-0.291,3.564-0.906c3.642-1.972,4.997-6.523,3.025-10.166l-20.655-38.153     c-2.714-5.011-7.477-8.515-13.068-9.614c-5.593-1.1-11.327,0.342-15.734,3.954l-33.266,27.26     c-3.204,2.626-3.673,7.351-1.047,10.555C252.817,236.256,257.545,236.722,260.748,234.099z"/><path d="M170.229,231.526l-37.601-21.198c-5.379-3.032-11.92-3.264-17.499-0.619c-5.58,2.645-9.543,7.855-10.602,13.941     l-6.909,39.757c-0.709,4.081,2.024,7.964,6.105,8.673c0.434,0.076,0.866,0.112,1.293,0.112c3.578,0,6.747-2.571,7.381-6.217     l6.908-39.756c0.313-1.792,1.542-2.621,2.248-2.955c0.706-0.334,2.125-0.761,3.708,0.131l37.602,21.198     c3.608,2.035,8.182,0.758,10.216-2.85C175.115,238.134,173.838,233.56,170.229,231.526z"/><path d="M404.057,302.176c0-3.778,3.074-6.852,6.853-6.852c3.778,0,6.852,3.074,6.852,6.852c0,4.142,3.357,7.5,7.5,7.5     c4.143,0,7.5-3.358,7.5-7.5c0-12.049-9.803-21.852-21.853-21.852c-12.05,0-21.854,9.803-21.854,21.852c0,4.142,3.357,7.5,7.5,7.5     S404.057,306.319,404.057,302.176z"/><path d="M171.114,304.611l20.318,30.148c3.428,5.086,9.135,8.222,15.266,8.389c0.172,0.004,0.344,0.007,0.516,0.007     c5.941,0,11.587-2.798,15.182-7.55l23.137-30.584c2.499-3.304,1.847-8.007-1.457-10.506c-3.302-2.498-8.007-1.846-10.506,1.456     l-23.137,30.585c-1.089,1.439-2.55,1.621-3.326,1.598c-0.775-0.021-2.226-0.28-3.235-1.778l-20.317-30.147     c-2.316-3.436-6.979-4.344-10.411-2.028C169.708,296.514,168.799,301.176,171.114,304.611z"/></g><g transform="matrix(0.06673459816736886 0.06673459816736886 -0.06673459816736886 0.06673459816736886 230.99386073467483 254.82724375363227)" id="L1_138"><path d="M488.34,282.579c-26.552-8.546-57.318-32.076-82.94-63.299l22.325-53.797c2.571-6.195,1.741-13.124-2.22-18.537     c-3.96-5.413-10.311-8.3-16.998-7.722l-51.959,4.487c-0.393,0.034-0.755-0.166-0.939-0.506l-20.655-38.153     c-2.713-5.011-7.477-8.516-13.067-9.614c-5.593-1.1-11.327,0.342-15.735,3.954l-33.265,27.26     c-0.389,0.318-0.966,0.287-1.316-0.077L236.91,90.643c-3.748-3.886-9.005-6.004-14.388-5.807     c-5.396,0.195-10.473,2.686-13.931,6.833l-27.813,33.359c-0.302,0.359-0.815,0.453-1.225,0.224l-37.6-21.197     c-5.38-3.033-11.921-3.265-17.501-0.619c-5.58,2.645-9.542,7.856-10.6,13.939l-6.909,39.756c-0.091,0.521-0.597,0.874-1.11,0.795     l-3.114-0.492c-4.1-0.645-7.933,2.147-8.578,6.239c-0.646,4.091,2.147,7.932,6.238,8.578l3.114,0.492     c8.572,1.354,16.743-4.498,18.229-13.042l6.91-39.757c0.311-1.791,1.54-2.62,2.245-2.954c0.705-0.335,2.124-0.762,3.71,0.131     l37.6,21.196c6.716,3.787,15.174,2.237,20.112-3.686l27.813-33.359c1.003-1.203,2.28-1.423,2.952-1.448     c0.661-0.026,1.962,0.103,3.049,1.231l34.658,35.93c5.733,5.946,15.231,6.501,21.621,1.267l33.266-27.26     c1.277-1.048,2.634-0.975,3.335-0.838c0.696,0.137,1.982,0.584,2.769,2.038l20.656,38.154c3.028,5.593,9.063,8.859,15.42,8.308     l51.959-4.487c2.032-0.17,3.2,1.086,3.603,1.637c0.403,0.551,1.256,2.036,0.471,3.928l-23.205,55.915     c-31.138,22.291-45.795,67.234-46.481,102.514c-0.08,4.141,3.212,7.563,7.353,7.644c0.05,0.001,0.099,0.001,0.148,0.001     c4.074,0,7.416-3.263,7.496-7.354c0.681-35.043,15.353-69.836,36.345-87.586c11.458,13.684,24.218,26.323,37.219,36.831     c13.349,10.79,26.562,19.068,39.424,24.733c-6.133,7.76-9.273,16.718-8.964,26.064c0.337,10.205,4.79,19.968,12.488,27.872     c-17.257,10.287-47.969,19.003-102.255,24.192c-3.434-4.233-6.316-9.329-8.572-15.224c-1.479-3.869-5.813-5.806-9.685-4.325     c-3.869,1.48-5.806,5.816-4.325,9.684c1.553,4.059,3.374,7.83,5.423,11.326c-3.454,0.26-6.993,0.508-10.617,0.742     c-0.259,0.003-0.52,0.02-0.781,0.05c-28.827,1.844-63.057,2.863-103.705,2.863c-57.786,0-99.617-3.658-129.147-11.4     c-0.267-0.085-0.536-0.156-0.807-0.21c-6.764-1.804-12.876-3.826-18.376-6.071c-0.168-0.068-0.339-0.131-0.511-0.187     l-72.94-23.768c-1.882-0.613-2.479-2.161-2.648-2.798c-0.17-0.637-0.421-2.277,0.908-3.745l24.459-27.019     c5.092-5.625,5.509-14.132,0.991-20.231L15.79,243.389c-1.075-1.451-0.836-2.905-0.598-3.643     c0.238-0.738,0.896-2.057,2.617-2.604l34.647-11.009c7.566-2.403,12.254-10.115,10.903-17.936l-6.45-37.412     c-0.248-1.441,0.279-2.498,0.766-3.131c0.695-0.904,1.722-1.479,2.817-1.577c4.126-0.37,7.17-4.015,6.8-8.14     c-0.37-4.125-4.026-7.163-8.14-6.799c-5.257,0.471-10.13,3.16-13.37,7.376c-3.271,4.255-4.568,9.518-3.654,14.82l6.45,37.413     c0.082,0.476-0.203,0.944-0.664,1.09l-34.647,11.009c-5.845,1.857-10.46,6.45-12.347,12.286     c-1.887,5.835-0.832,12.261,2.819,17.188l27.314,36.855c0.275,0.372,0.25,0.89-0.061,1.233L6.535,317.427     c-4.349,4.802-5.949,11.407-4.284,17.668s6.337,11.197,12.497,13.204l72.684,23.686c3.703,1.503,7.659,2.908,11.859,4.223     c-1.264,3.871-1.938,7.93-1.938,12.056c0,21.456,17.456,38.913,38.913,38.913h29.47c20.836,0,37.898-16.463,38.866-37.065     c11.459,0.374,23.628,0.563,36.576,0.563c1.978,0,3.938-0.003,5.888-0.008c1.246,20.341,18.182,36.51,38.832,36.51h29.47     c21.457,0,38.913-17.456,38.913-38.913c0-0.353-0.024-0.704-0.034-1.057c76.103-5.515,116.813-17.365,137.755-33.795     c0.558-0.34,1.076-0.754,1.54-1.245c11.288-9.42,16.383-20.289,18.107-32.292C514.019,303.375,504.217,287.689,488.34,282.579z      M165.734,412.176h-29.47c-13.186,0-23.913-10.727-23.913-23.913c0-2.79,0.49-5.534,1.427-8.123     c20.187,4.73,45.17,7.812,75.836,9.356C188.972,402.111,178.507,412.176,165.734,412.176z M315.366,412.176h-29.47     c-12.404,0-22.63-9.493-23.799-21.596c28.846-0.262,54.455-1.074,77.178-2.398c0,0.027,0.003,0.054,0.003,0.081     C339.278,401.449,328.551,412.176,315.366,412.176z M496.8,317.741c-0.936,6.515-3.398,13.063-9.205,19.292     c-5.805-5.449-9.167-12.158-9.395-19.035c-0.237-7.15,2.816-13.898,8.854-19.717C493.955,302.036,497.954,309.714,496.8,317.741z     "/><path d="M260.748,234.099l33.266-27.26c1.278-1.048,2.639-0.976,3.334-0.838c0.697,0.137,1.983,0.583,2.77,2.037l20.656,38.153     c1.358,2.508,3.938,3.931,6.603,3.931c1.205,0,2.429-0.291,3.564-0.906c3.642-1.972,4.997-6.523,3.025-10.166l-20.655-38.153     c-2.714-5.011-7.477-8.515-13.068-9.614c-5.593-1.1-11.327,0.342-15.734,3.954l-33.266,27.26     c-3.204,2.626-3.673,7.351-1.047,10.555C252.817,236.256,257.545,236.722,260.748,234.099z"/><path d="M170.229,231.526l-37.601-21.198c-5.379-3.032-11.92-3.264-17.499-0.619c-5.58,2.645-9.543,7.855-10.602,13.941     l-6.909,39.757c-0.709,4.081,2.024,7.964,6.105,8.673c0.434,0.076,0.866,0.112,1.293,0.112c3.578,0,6.747-2.571,7.381-6.217     l6.908-39.756c0.313-1.792,1.542-2.621,2.248-2.955c0.706-0.334,2.125-0.761,3.708,0.131l37.602,21.198     c3.608,2.035,8.182,0.758,10.216-2.85C175.115,238.134,173.838,233.56,170.229,231.526z"/><path d="M404.057,302.176c0-3.778,3.074-6.852,6.853-6.852c3.778,0,6.852,3.074,6.852,6.852c0,4.142,3.357,7.5,7.5,7.5     c4.143,0,7.5-3.358,7.5-7.5c0-12.049-9.803-21.852-21.853-21.852c-12.05,0-21.854,9.803-21.854,21.852c0,4.142,3.357,7.5,7.5,7.5     S404.057,306.319,404.057,302.176z"/><path d="M171.114,304.611l20.318,30.148c3.428,5.086,9.135,8.222,15.266,8.389c0.172,0.004,0.344,0.007,0.516,0.007     c5.941,0,11.587-2.798,15.182-7.55l23.137-30.584c2.499-3.304,1.847-8.007-1.457-10.506c-3.302-2.498-8.007-1.846-10.506,1.456     l-23.137,30.585c-1.089,1.439-2.55,1.621-3.326,1.598c-0.775-0.021-2.226-0.28-3.235-1.778l-20.317-30.147     c-2.316-3.436-6.979-4.344-10.411-2.028C169.708,296.514,168.799,301.176,171.114,304.611z"/></g><g transform="matrix(1.1230519984565466 -0.2911616338072105 0.2911616338072105 1.1230519984565466 252.22666151304415 212.1261570624893)" id="L1_139"><path d="M17.424,26.788c-5.163,0-9.363-4.2-9.363-9.363c0-5.164,4.2-9.364,9.363-9.364s9.363,4.201,9.363,9.364   C26.788,22.588,22.587,26.788,17.424,26.788z M17.424,9.061c-4.611,0-8.363,3.752-8.363,8.364c0,4.611,3.752,8.363,8.363,8.363   s8.363-3.752,8.363-8.363C25.788,12.813,22.036,9.061,17.424,9.061z"/><g><path d="M17.424,4.982c-0.276,0-0.5-0.224-0.5-0.5V0.5c0-0.276,0.224-0.5,0.5-0.5s0.5,0.224,0.5,0.5v3.982    C17.924,4.759,17.701,4.982,17.424,4.982z"/><path d="M17.424,34.85c-0.276,0-0.5-0.224-0.5-0.5v-3.982c0-0.276,0.224-0.5,0.5-0.5s0.5,0.224,0.5,0.5v3.982    C17.924,34.626,17.701,34.85,17.424,34.85z"/></g><g><path d="M4.482,17.925H0.5c-0.276,0-0.5-0.224-0.5-0.5s0.224-0.5,0.5-0.5h3.981c0.276,0,0.5,0.224,0.5,0.5    S4.758,17.925,4.482,17.925z"/><path d="M34.349,17.925h-3.982c-0.276,0-0.5-0.224-0.5-0.5s0.224-0.5,0.5-0.5h3.982c0.276,0,0.5,0.224,0.5,0.5    S34.625,17.925,34.349,17.925z"/></g><g><path d="M8.274,8.771c-0.128,0-0.256-0.049-0.354-0.146L5.104,5.811c-0.195-0.195-0.195-0.512,0-0.707s0.512-0.195,0.707,0    l2.816,2.814c0.195,0.195,0.195,0.512,0,0.707C8.53,8.723,8.402,8.771,8.274,8.771z"/><path d="M29.393,29.893c-0.128,0-0.256-0.049-0.354-0.146l-2.816-2.817c-0.195-0.195-0.195-0.512,0-0.707s0.512-0.195,0.707,0    l2.816,2.817c0.195,0.195,0.195,0.512,0,0.707C29.649,29.844,29.521,29.893,29.393,29.893z"/></g><g><path d="M5.458,29.893c-0.128,0-0.256-0.049-0.354-0.146c-0.195-0.195-0.195-0.512,0-0.707l2.816-2.817    c0.195-0.195,0.512-0.195,0.707,0s0.195,0.512,0,0.707l-2.816,2.817C5.713,29.844,5.585,29.893,5.458,29.893z"/><path d="M26.577,8.771c-0.128,0-0.256-0.049-0.354-0.146c-0.195-0.195-0.195-0.512,0-0.707l2.816-2.814    c0.195-0.195,0.512-0.195,0.707,0s0.195,0.512,0,0.707L26.93,8.625C26.833,8.723,26.705,8.771,26.577,8.771z"/></g></g><path d="M453.443,160.214l-119.7-8.6c-2.5-0.2-4.7-1.7-5.6-4.1l-45.6-111c-6.3-15.3-20.5-24.8-37.1-24.8s-30.7,9.5-37.1,24.9   l-45.7,111.1c-1,2.3-3.1,3.9-5.6,4.1l-119.5,8.6c-16.2,0.9-30,11.5-35.3,27.1c-5.4,15.8-0.9,32.4,11.9,43.3l92.5,76.4   c1.9,1.6,2.8,4.2,2.2,6.6l-28.2,115.4c-3.3,12-1,24.4,6.3,34.1c7.5,9.8,19.2,15.7,31.5,15.7c7.6,0,15-2.3,21.1-6.4l101.1-62.9   c2.1-1.3,4.8-1.3,6.9,0l102.1,62.7c6.4,4.3,13.8,6.6,21.3,6.6c11.5,0,22.9-5.5,30.3-14.8c7.7-9.6,10.5-22.1,7.7-34.6l-28.3-115.7   c-0.6-2.5,0.3-5.1,2.2-6.7l93.9-76.6c12.6-10.8,17.1-27.4,11.8-43.2C483.343,171.814,469.443,161.114,453.443,160.214z    M461.143,211.714l-93.7,76.5c-9.2,7.5-13.4,19.9-10.5,31.5l28.3,115.5c1.5,6.8-1.2,11.5-3,13.7c-2.8,3.5-7,5.7-11.2,5.7   c-2.6,0-5.2-0.8-8-2.7l-102.5-63c-4.9-3-10.5-4.6-16.3-4.6s-11.5,1.6-16.4,4.7l-101.5,63.1c-6.5,4.3-15.2,2.4-19.8-3.6   c-1.9-2.5-3.9-6.8-2.1-13.1l28.3-115.8c2.8-11.5-1.3-23.8-10.4-31.3l-92.3-76.3c-7.3-6.3-5.3-14.4-4.5-16.7s4.1-10,13.7-10.5   l119.7-8.6c11.8-0.9,22-8.2,26.5-19.2l45.7-111.1c3.7-9,12-9.7,14.4-9.7c2.4,0,10.7,0.7,14.4,9.7l45.7,111.1   c4.5,11,14.7,18.3,26.5,19.2l119.9,8.7c9.4,0.5,12.7,8.2,13.5,10.5C466.143,197.514,468.143,205.614,461.143,211.714z" transform="matrix(0.05612139611083993 -0.023630061780700207 0.023630061780700207 0.05612139611083993 245.407847159195 89.01925622859316)" id="L1_140"/><g transform="matrix(0.06400361502333203 0.008348297563221908 -0.008348297563221908 0.06400361502333203 21.752238730211808 12.477910377842193)" id="L1_141"><path d="M472.208,201.712c9.271-9.037,12.544-22.3,8.544-34.613c-4.001-12.313-14.445-21.118-27.257-22.979l-112.03-16.279    c-2.199-0.319-4.1-1.7-5.084-3.694L286.28,22.632c-5.729-11.61-17.331-18.822-30.278-18.822c-12.947,0-24.549,7.212-30.278,18.822    l-50.101,101.516c-0.985,1.993-2.885,3.374-5.085,3.694L58.51,144.12c-12.812,1.861-23.255,10.666-27.257,22.979    c-4.002,12.313-0.728,25.576,8.544,34.613l81.065,79.019c1.591,1.552,2.318,3.787,1.942,5.978l-19.137,111.576    c-2.188,12.761,2.958,25.414,13.432,33.024c10.474,7.612,24.102,8.595,35.56,2.572l100.201-52.679    c1.968-1.035,4.317-1.035,6.286,0l100.202,52.679c4.984,2.62,10.377,3.915,15.744,3.914c6.97,0,13.896-2.184,19.813-6.487    c10.474-7.611,15.621-20.265,13.432-33.024l-19.137-111.576c-0.375-2.191,0.351-4.426,1.942-5.978L472.208,201.712z     M362.579,291.276l19.137,111.578c0.64,3.734-1.665,5.863-2.686,6.604c-1.022,0.74-3.76,2.277-7.112,0.513l-100.202-52.679    c-4.919-2.585-10.315-3.879-15.712-3.879c-5.397,0-10.794,1.294-15.712,3.878l-100.201,52.678    c-3.354,1.763-6.091,0.228-7.112-0.513c-1.021-0.741-3.327-2.87-2.686-6.604l19.137-111.576    c1.879-10.955-1.75-22.127-9.711-29.886l-81.065-79.019c-2.713-2.646-2.099-5.723-1.708-6.923    c0.389-1.201,1.702-4.052,5.451-4.596l112.027-16.279c10.999-1.598,20.504-8.502,25.424-18.471l50.101-101.516    c1.677-3.397,4.793-3.764,6.056-3.764c1.261,0,4.377,0.366,6.055,3.764v0.001l50.101,101.516    c4.919,9.969,14.423,16.873,25.422,18.471l112.029,16.279c3.749,0.544,5.061,3.395,5.451,4.596    c0.39,1.201,1.005,4.279-1.709,6.923l-81.065,79.019C364.329,269.149,360.7,280.321,362.579,291.276z"/><path d="M413.783,22.625c-6.036-4.384-14.481-3.046-18.865,2.988l-14.337,19.732c-4.384,6.034-3.047,14.481,2.988,18.865    c2.399,1.741,5.176,2.58,7.928,2.58c4.177,0,8.295-1.931,10.937-5.567l14.337-19.732    C421.155,35.456,419.818,27.009,413.783,22.625z"/><path d="M131.36,45.265l-14.337-19.732c-4.383-6.032-12.829-7.37-18.865-2.988c-6.034,4.384-7.372,12.831-2.988,18.865    l14.337,19.732c2.643,3.639,6.761,5.569,10.939,5.569c2.753,0,5.531-0.839,7.927-2.581C134.407,59.747,135.745,51.3,131.36,45.265    z"/><path d="M49.552,306.829c-2.305-7.093-9.924-10.976-17.019-8.671l-23.197,7.538c-7.095,2.305-10.976,9.926-8.671,17.019    c1.854,5.709,7.149,9.337,12.842,9.337c1.383,0,2.79-0.215,4.177-0.666l23.197-7.538    C47.975,321.543,51.857,313.924,49.552,306.829z"/><path d="M256.005,456.786c-7.459,0-13.506,6.047-13.506,13.506v24.392c0,7.459,6.047,13.506,13.506,13.506    c7.459,0,13.506-6.047,13.506-13.506v-24.392C269.511,462.832,263.465,456.786,256.005,456.786z"/><path d="M502.664,305.715l-23.197-7.538c-7.092-2.303-14.714,1.577-17.019,8.672c-2.305,7.095,1.576,14.714,8.671,17.019    l23.197,7.538c1.387,0.45,2.793,0.664,4.176,0.664c5.694,0,10.989-3.629,12.843-9.337    C513.64,315.639,509.758,308.02,502.664,305.715z"/></g><g transform="matrix(0.06446953117847443 0 0 0.06446953117847443 154.49580001831055 325.43746840427036)" id="L1_142"><path d="M503.686,326.871c-7.932-6.33-19.109-6.452-27.18-0.29c-35.597,27.194-78.143,41.567-123.041,41.567     c-12.218,0-24.465-1.1-36.401-3.268c-4.761-0.868-9.317,2.291-10.181,7.051c-0.865,4.758,2.292,9.317,7.051,10.181     c12.966,2.356,26.266,3.55,39.53,3.55c48.774,0,94.997-15.617,133.671-45.162c1.67-1.276,3.982-1.25,5.624,0.059     c1.641,1.31,2.176,3.559,1.303,5.469c-19.069,41.693-49.47,77.047-87.915,102.238c-39.456,25.851-85.352,39.517-132.724,39.517     c-133.718,0-242.506-108.788-242.506-242.506c0-47.375,13.665-93.27,39.517-132.723c25.191-38.447,60.544-68.847,102.242-87.917     c1.908-0.874,4.152-0.337,5.462,1.305c1.309,1.641,1.336,3.953,0.061,5.621c-29.546,38.68-45.163,84.903-45.163,133.673     c0,47.23,14.783,92.296,42.752,130.328c27.397,37.254,64.95,64.578,108.6,79.017c4.595,1.516,9.545-0.974,11.065-5.564     c1.518-4.592-0.973-9.547-5.564-11.065c-83.343-27.567-139.338-105.013-139.338-192.715c0-44.895,14.374-87.442,41.567-123.042     c6.163-8.068,6.042-19.244-0.292-27.179c-6.337-7.94-17.215-10.527-26.439-6.304c-44.699,20.442-82.6,53.032-109.603,94.242     c-27.727,42.313-42.382,91.528-42.382,142.323c0,143.376,116.646,260.021,260.021,260.021     c50.792,0,100.007-14.655,142.324-42.382c41.209-27.003,73.8-64.903,94.245-109.603     C514.213,344.081,511.622,333.208,503.686,326.871z"/><path d="M251.454,164.085c20.691,0,37.526,16.834,37.526,37.525c0,4.836,3.921,8.757,8.757,8.757s8.757-3.921,8.757-8.757     c0-20.691,16.834-37.525,37.525-37.525c4.836,0,8.757-3.921,8.757-8.757c0-4.836-3.921-8.757-8.757-8.757     c-20.691,0-37.525-16.835-37.525-37.526c0-4.836-3.921-8.757-8.757-8.757s-8.757,3.921-8.757,8.757     c0,20.691-16.835,37.526-37.526,37.526c-4.836,0-8.757,3.921-8.757,8.757C242.697,160.164,246.618,164.085,251.454,164.085z      M297.737,138.804c4.267,6.614,9.909,12.256,16.523,16.524c-6.614,4.267-12.255,9.909-16.523,16.523     c-4.267-6.614-9.91-12.255-16.524-16.523C287.827,151.061,293.47,145.418,297.737,138.804z"/><path d="M375.404,276.696c15.022,0,27.244-12.221,27.244-27.242c0-15.022-12.222-27.244-27.244-27.244     s-27.243,12.222-27.243,27.244C348.163,264.475,360.383,276.696,375.404,276.696z M375.404,239.726     c5.364,0,9.729,4.364,9.729,9.729c0,5.363-4.364,9.727-9.729,9.727s-9.728-4.363-9.728-9.727     C365.677,244.09,370.04,239.726,375.404,239.726z"/><path d="M40.451,436.768c-15.022,0-27.243,12.221-27.243,27.243c0,15.022,12.221,27.244,27.243,27.244     c15.022,0,27.243-12.222,27.243-27.244C67.694,448.989,55.473,436.768,40.451,436.768z M40.451,473.739     c-5.364,0-9.728-4.364-9.728-9.729c0-5.365,4.364-9.727,9.728-9.727s9.728,4.363,9.728,9.728     C50.179,469.375,45.816,473.739,40.451,473.739z"/><circle cx="297" cy="260" r="10"/><circle cx="10" cy="392" r="10"/><circle cx="368" cy="90" r="10"/></g><g transform="matrix(0.03572303575408766 -0.006495097599742379 0.006495097599742379 0.03572303575408766 304.8978275580423 155.8762822978043)" id="L1_143"><path d="m438.558594 255.703125c-1.089844 0-2.179688.023437-3.273438.070313-.972656-5.289063-2.476562-10.382813-4.425781-15.246094 34.199219-8.90625 63.507813-32.0625 80.015625-63.859375 1.902344-3.660157 1.359375-8.113281-1.363281-11.210938-2.726563-3.097656-7.074219-4.203125-10.945313-2.789062-11.628906 4.253906-23.859375 6.410156-36.359375 6.410156-58.335937 0-105.796875-47.460937-105.796875-105.796875 0-17.164062 3.984375-33.539062 11.839844-48.671875 1.902344-3.660156 1.359375-8.113281-1.363281-11.210937-2.726563-3.101563-7.070313-4.207032-10.945313-2.789063-49.386718 18.070313-82.570312 65.558594-82.570312 118.167969 0 3.492187.15625 6.976562.445312 10.449218-16.074218-6.71875-33.574218-10.375-51.667968-10.375-32.148438 0-63.242188 11.554688-87.550782 32.539063-21.710937 18.738281-36.8125 43.894531-43.148437 71.585937-.546875-.011718-1.089844-.015624-1.636719-.015624-49.523438 0-89.8125 40.289062-89.8125 89.8125 0 49.523437 40.289062 89.808593 89.808594 89.808593h134.375c5.523437 0 10-4.476562 10-10 0-5.519531-4.476563-10-10-10h-134.375c-38.492188 0-69.808594-31.316406-69.808594-69.808593 0-38.492188 31.316406-69.8125 69.808594-69.8125 2.855468 0 5.734375.179687 8.5625.523437 5.34375.660156 10.261718-3.046875 11.097656-8.375 8.742188-55.773437 56.128906-96.253906 112.679688-96.253906 45.347656 0 86.390624 26.859375 104.5625 68.425781 2.03125 4.652344 7.226562 7.039062 12.082031 5.558594 5.691406-1.738282 11.617187-2.617188 17.613281-2.617188 21.371094 0 40.207031 11.121094 50.898438 28.003906.148437.269532.3125.527344.484374.78125 5.085938 8.308594 8.230469 17.957032 8.753907 28.34375.144531 2.890626 1.535156 5.578126 3.8125 7.363282 2.277343 1.785156 5.21875 2.5 8.0625 1.953125 3.328125-.640625 6.738281-.964844 10.140625-.964844 29.46875 0 53.441406 23.972656 53.441406 53.441406 0 29.464844-23.972656 53.4375-53.441406 53.4375h-134.375c-5.523438 0-10 4.480469-10 10 0 5.523438 4.476562 10 10 10h134.375c40.496094 0 73.441406-32.945312 73.441406-73.4375 0-40.496093-32.945312-73.441406-73.441406-73.441406zm-82.152344-65.480469c-5.054688 0-10.074219.46875-15.003906 1.402344-10.769532-20.945312-26.660156-38.300781-45.726563-50.804688-1.527343-7.210937-2.304687-14.605468-2.304687-22.039062 0-35.851562 18.320312-68.875 47.359375-88.203125-2.851563 10.632813-4.324219 21.652344-4.324219 32.703125 0 69.367188 56.433594 125.800781 125.800781 125.800781 5.726563 0 11.402344-.382812 17.015625-1.140625-15.128906 17.484375-35.71875 29.703125-58.574218 34.429688-14.65625-19.566406-38.015626-32.148438-64.242188-32.148438zm0 0"/><path d="m264.183594 382.582031c-5.507813 0-10 4.492188-10 10 0 5.507813 4.492187 10 10 10 5.507812 0 10-4.492187 10-10 0-5.507812-4.492188-10-10-10zm0 0"/></g></defs><g fi:class="KUsePattern" opacity="0.06"><pattern id="pattern_L1_128" width="350" height="350" patternUnits="userSpaceOnUse"><use xlink:href="#L1_128" x="-350" y="-350"/><use xlink:href="#L1_128" x="0" y="-350"/><use xlink:href="#L1_128" x="350" y="-350"/><use xlink:href="#L1_128" x="-350" y="0"/><use xlink:href="#L1_128" x="0" y="0"/><use xlink:href="#L1_128" x="350" y="0"/><use xlink:href="#L1_128" x="-350" y="350"/><use xlink:href="#L1_128" x="0" y="350"/><use xlink:href="#L1_128" x="350" y="350"/></pattern><rect x="0" y="0" width="100%" height="100%" fill="url(#pattern_L1_128)"/></g><g fi:class="KUsePattern" opacity="0.06"><pattern id="pattern_L1_129" width="350" height="350" patternUnits="userSpaceOnUse"><use xlink:href="#L1_129" x="-350" y="-350"/><use xlink:href="#L1_129" x="0" y="-350"/><use xlink:href="#L1_129" x="350" y="-350"/><use xlink:href="#L1_129" x="-350" y="0"/><use xlink:href="#L1_129" x="0" y="0"/><use xlink:href="#L1_129" x="350" y="0"/><use xlink:href="#L1_129" x="-350" y="350"/><use xlink:href="#L1_129" x="0" y="350"/><use xlink:href="#L1_129" x="350" y="350"/></pattern><rect x="0" y="0" width="100%" height="100%" fill="url(#pattern_L1_129)"/></g><g fi:class="KUsePattern" opacity="0.06"><pattern id="pattern_L1_130" width="350" height="350" patternUnits="userSpaceOnUse"><use xlink:href="#L1_130" x="-350" y="-350"/><use xlink:href="#L1_130" x="0" y="-350"/><use xlink:href="#L1_130" x="350" y="-350"/><use xlink:href="#L1_130" x="-350" y="0"/><use xlink:href="#L1_130" x="0" y="0"/><use xlink:href="#L1_130" x="350" y="0"/><use xlink:href="#L1_130" x="-350" y="350"/><use xlink:href="#L1_130" x="0" y="350"/><use xlink:href="#L1_130" x="350" y="350"/></pattern><rect x="0" y="0" width="100%" height="100%" fill="url(#pattern_L1_130)"/></g><g fi:class="KUsePattern" opacity="0.06"><pattern id="pattern_L1_131" width="350" height="350" patternUnits="userSpaceOnUse"><use xlink:href="#L1_131" x="-350" y="-350"/><use xlink:href="#L1_131" x="0" y="-350"/><use xlink:href="#L1_131" x="350" y="-350"/><use xlink:href="#L1_131" x="-350" y="0"/><use xlink:href="#L1_131" x="0" y="0"/><use xlink:href="#L1_131" x="350" y="0"/><use xlink:href="#L1_131" x="-350" y="350"/><use xlink:href="#L1_131" x="0" y="350"/><use xlink:href="#L1_131" x="350" y="350"/></pattern><rect x="0" y="0" width="100%" height="100%" fill="url(#pattern_L1_131)"/></g><g fi:class="KUsePattern" opacity="0.06"><pattern id="pattern_L1_132" width="350" height="350" patternUnits="userSpaceOnUse"><use xlink:href="#L1_132" x="-350" y="-350"/><use xlink:href="#L1_132" x="0" y="-350"/><use xlink:href="#L1_132" x="350" y="-350"/><use xlink:href="#L1_132" x="-350" y="0"/><use xlink:href="#L1_132" x="0" y="0"/><use xlink:href="#L1_132" x="350" y="0"/><use xlink:href="#L1_132" x="-350" y="350"/><use xlink:href="#L1_132" x="0" y="350"/><use xlink:href="#L1_132" x="350" y="350"/></pattern><rect x="0" y="0" width="100%" height="100%" fill="url(#pattern_L1_132)"/></g><g fi:class="KUsePattern" opacity="0.06"><pattern id="pattern_L1_133" width="350" height="350" patternUnits="userSpaceOnUse"><use xlink:href="#L1_133" x="-350" y="-350"/><use xlink:href="#L1_133" x="0" y="-350"/><use xlink:href="#L1_133" x="350" y="-350"/><use xlink:href="#L1_133" x="-350" y="0"/><use xlink:href="#L1_133" x="0" y="0"/><use xlink:href="#L1_133" x="350" y="0"/><use xlink:href="#L1_133" x="-350" y="350"/><use xlink:href="#L1_133" x="0" y="350"/><use xlink:href="#L1_133" x="350" y="350"/></pattern><rect x="0" y="0" width="100%" height="100%" fill="url(#pattern_L1_133)"/></g><g fi:class="KUsePattern" opacity="0.08"><pattern id="pattern_L1_134" width="350" height="350" patternUnits="userSpaceOnUse"><use xlink:href="#L1_134" x="-350" y="-350"/><use xlink:href="#L1_134" x="0" y="-350"/><use xlink:href="#L1_134" x="350" y="-350"/><use xlink:href="#L1_134" x="-350" y="0"/><use xlink:href="#L1_134" x="0" y="0"/><use xlink:href="#L1_134" x="350" y="0"/><use xlink:href="#L1_134" x="-350" y="350"/><use xlink:href="#L1_134" x="0" y="350"/><use xlink:href="#L1_134" x="350" y="350"/></pattern><rect x="0" y="0" width="100%" height="100%" fill="url(#pattern_L1_134)"/></g><g fi:class="KUsePattern" opacity="0.06"><pattern id="pattern_L1_136" width="350" height="350" patternUnits="userSpaceOnUse"><use xlink:href="#L1_136" x="-350" y="-350"/><use xlink:href="#L1_136" x="0" y="-350"/><use xlink:href="#L1_136" x="350" y="-350"/><use xlink:href="#L1_136" x="-350" y="0"/><use xlink:href="#L1_136" x="0" y="0"/><use xlink:href="#L1_136" x="350" y="0"/><use xlink:href="#L1_136" x="-350" y="350"/><use xlink:href="#L1_136" x="0" y="350"/><use xlink:href="#L1_136" x="350" y="350"/></pattern><rect x="0" y="0" width="100%" height="100%" fill="url(#pattern_L1_136)"/></g><g fi:class="KUsePattern" opacity="0.06"><pattern id="pattern_L1_137" width="350" height="350" patternUnits="userSpaceOnUse"><use xlink:href="#L1_137" x="-350" y="-350"/><use xlink:href="#L1_137" x="0" y="-350"/><use xlink:href="#L1_137" x="350" y="-350"/><use xlink:href="#L1_137" x="-350" y="0"/><use xlink:href="#L1_137" x="0" y="0"/><use xlink:href="#L1_137" x="350" y="0"/><use xlink:href="#L1_137" x="-350" y="350"/><use xlink:href="#L1_137" x="0" y="350"/><use xlink:href="#L1_137" x="350" y="350"/></pattern><rect x="0" y="0" width="100%" height="100%" fill="url(#pattern_L1_137)"/></g><g fi:class="KUsePattern" opacity="0.06"><pattern id="pattern_L1_138" width="350" height="350" patternUnits="userSpaceOnUse"><use xlink:href="#L1_138" x="-350" y="-350"/><use xlink:href="#L1_138" x="0" y="-350"/><use xlink:href="#L1_138" x="350" y="-350"/><use xlink:href="#L1_138" x="-350" y="0"/><use xlink:href="#L1_138" x="0" y="0"/><use xlink:href="#L1_138" x="350" y="0"/><use xlink:href="#L1_138" x="-350" y="350"/><use xlink:href="#L1_138" x="0" y="350"/><use xlink:href="#L1_138" x="350" y="350"/></pattern><rect x="0" y="0" width="100%" height="100%" fill="url(#pattern_L1_138)"/></g><g fi:class="KUsePattern" opacity="0.07"><pattern id="pattern_L1_139" width="350" height="350" patternUnits="userSpaceOnUse"><use xlink:href="#L1_139" x="-350" y="-350"/><use xlink:href="#L1_139" x="0" y="-350"/><use xlink:href="#L1_139" x="350" y="-350"/><use xlink:href="#L1_139" x="-350" y="0"/><use xlink:href="#L1_139" x="0" y="0"/><use xlink:href="#L1_139" x="350" y="0"/><use xlink:href="#L1_139" x="-350" y="350"/><use xlink:href="#L1_139" x="0" y="350"/><use xlink:href="#L1_139" x="350" y="350"/></pattern><rect x="0" y="0" width="100%" height="100%" fill="url(#pattern_L1_139)"/></g><g fi:class="KUsePattern" opacity="0.07"><pattern id="pattern_L1_140" width="350" height="350" patternUnits="userSpaceOnUse"><use xlink:href="#L1_140" x="-350" y="-350"/><use xlink:href="#L1_140" x="0" y="-350"/><use xlink:href="#L1_140" x="350" y="-350"/><use xlink:href="#L1_140" x="-350" y="0"/><use xlink:href="#L1_140" x="0" y="0"/><use xlink:href="#L1_140" x="350" y="0"/><use xlink:href="#L1_140" x="-350" y="350"/><use xlink:href="#L1_140" x="0" y="350"/><use xlink:href="#L1_140" x="350" y="350"/></pattern><rect x="0" y="0" width="100%" height="100%" fill="url(#pattern_L1_140)"/></g><g fi:class="KUsePattern" opacity="0.07"><pattern id="pattern_L1_141" width="350" height="350" patternUnits="userSpaceOnUse"><use xlink:href="#L1_141" x="-350" y="-350"/><use xlink:href="#L1_141" x="0" y="-350"/><use xlink:href="#L1_141" x="350" y="-350"/><use xlink:href="#L1_141" x="-350" y="0"/><use xlink:href="#L1_141" x="0" y="0"/><use xlink:href="#L1_141" x="350" y="0"/><use xlink:href="#L1_141" x="-350" y="350"/><use xlink:href="#L1_141" x="0" y="350"/><use xlink:href="#L1_141" x="350" y="350"/></pattern><rect x="0" y="0" width="100%" height="100%" fill="url(#pattern_L1_141)"/></g><g fi:class="KUsePattern" opacity="0.07"><pattern id="pattern_L1_142" width="350" height="350" patternUnits="userSpaceOnUse"><use xlink:href="#L1_142" x="-350" y="-350"/><use xlink:href="#L1_142" x="0" y="-350"/><use xlink:href="#L1_142" x="350" y="-350"/><use xlink:href="#L1_142" x="-350" y="0"/><use xlink:href="#L1_142" x="0" y="0"/><use xlink:href="#L1_142" x="350" y="0"/><use xlink:href="#L1_142" x="-350" y="350"/><use xlink:href="#L1_142" x="0" y="350"/><use xlink:href="#L1_142" x="350" y="350"/></pattern><rect x="0" y="0" width="100%" height="100%" fill="url(#pattern_L1_142)"/></g><g fi:class="KUsePattern" opacity="0.07"><pattern id="pattern_L1_143" width="350" height="350" patternUnits="userSpaceOnUse"><use xlink:href="#L1_143" x="-350" y="-350"/><use xlink:href="#L1_143" x="0" y="-350"/><use xlink:href="#L1_143" x="350" y="-350"/><use xlink:href="#L1_143" x="-350" y="0"/><use xlink:href="#L1_143" x="0" y="0"/><use xlink:href="#L1_143" x="350" y="0"/><use xlink:href="#L1_143" x="-350" y="350"/><use xlink:href="#L1_143" x="0" y="350"/><use xlink:href="#L1_143" x="350" y="350"/></pattern><rect x="0" y="0" width="100%" height="100%" fill="url(#pattern_L1_143)"/></g></svg>