<svg xmlns="http://www.w3.org/2000/svg" xmlns:xlink="http://www.w3.org/1999/xlink" xmlns:fi="http://pattern.flaticon.com/" x="0" y="0" width="1920" height="1024" viewBox="0 0 1920 1024"><rect x="0px" y="0px" width="100%" height="100%" opacity="1" fill="#ecfffb"/><defs><g transform="matrix(0.0923492417639618 -0.0256525668047581 0.0256525668047581 0.0923492417639618 249.51519565940214 127.9060056787124)" id="L1_107"><path d="m321.992188 197.597656c-5.355469 0-10.515626-1.207031-15.382813-3.90625-4.121094-2.277344-5.609375-7.464844-3.332031-11.585937 2.285156-4.121094 7.488281-5.605469 11.589844-3.324219 18.394531 10.21875 57.03125-24.339844 83.734374-63.617188 21.976563-32.316406 21.609376-71.027343-.835937-86.289062-21.09375-14.351562-55-2.765625-77.257813 26.324219-2.84375 3.738281-8.1875 4.460937-11.941406 1.589843-3.738281-2.859374-4.453125-8.207031-1.585937-11.941406 28.195312-36.898437 71.355469-49.8125 100.375-30.066406 30.214843 20.550781 32.609375 69.882812 5.34375 109.972656-20.070313 29.507813-58.707031 72.839844-90.707031 72.84375zm0 0"/><path d="m126.582031 228.027344c-1.457031 0-2.9375-.375-4.28125-1.160156-36.710937-21.390626-54.238281-64.921876-42.640625-105.84375l1.046875-3.722657c3.632813-12.804687 12.046875-23.402343 23.695313-29.839843 11.660156-6.4375 25.113281-7.917969 37.871094-4.167969 8.480468 2.480469 15.578124 8.460937 19.457031 16.398437 3.886719 7.941406 4.253906 17.210938 1.007812 25.4375-6.378906 16.171875-24.722656 24.148438-40.90625 17.753906l-12.230469-4.828124c-4.375-1.726563-6.519531-6.679688-4.796874-11.054688 1.730468-4.375 6.667968-6.519531 11.058593-4.796875l12.226563 4.828125c7.441406 2.929688 15.855468-.730469 18.792968-8.160156 1.515626-3.832032 1.347657-7.988282-.464843-11.683594-1.808594-3.699219-4.980469-6.378906-8.9375-7.539062-8.363281-2.449219-17.183594-1.480469-24.832031 2.734374-7.640626 4.222657-13.164063 11.171876-15.546876 19.570313l-1.042968 3.714844c-9.480469 33.441406 4.84375 69 34.820312 86.476562 4.070313 2.371094 5.445313 7.589844 3.070313 11.65625-1.578125 2.710938-4.433594 4.226563-7.367188 4.226563zm0 0"/><path d="m91.523438 289.859375c-38.605469 0-73.382813-23.792969-87.089844-60.921875l-1.339844-3.625c-4.609375-12.488281-4.054688-26.011719 1.574219-38.074219 5.621093-12.0625 15.621093-21.1875 28.148437-25.683593 8.332032-2.984376 17.574219-2.328126 25.390625 1.800781 7.8125 4.132812 13.566407 11.40625 15.78125 19.957031 4.375 16.832031-5.769531 34.082031-22.597656 38.445312l-12.722656 3.300782c-4.570313 1.195312-9.207031-1.550782-10.386719-6.101563-1.191406-4.558593 1.550781-9.210937 6.097656-10.390625l12.730469-3.304687c7.734375-2.003907 12.390625-9.933594 10.386719-17.667969-1.035156-3.984375-3.613282-7.242188-7.253906-9.164062-3.644532-1.925782-7.789063-2.230469-11.671876-.828126-8.214843 2.945313-14.765624 8.921876-18.457031 16.832032-3.683593 7.914062-4.054687 16.785156-1.03125 24.972656l1.34375 3.625c12.355469 33.480469 45.6875 53.640625 81.03125 49.140625 4.605469-.660156 8.933594 2.703125 9.539063 7.367187.601562 4.667969-2.695313 8.941407-7.367188 9.539063-4.058594.527344-8.105468.78125-12.105468.78125zm0 0"/><path d="m263.277344 465.078125c-.25 0-.503906-.003906-.75-.035156-31.03125-2.703125-61.121094-12.257813-87.007813-27.628907-2.1875-1.296874-3.683593-3.507812-4.074219-6.019531-.390624-2.507812.363282-5.066406 2.054688-6.96875 25.367188-28.558593 39.921875-70.917969 39.921875-116.210937 0-47.71875-16.714844-92.992188-44.710937-121.105469-1.820313-1.824219-2.710938-4.378906-2.433594-6.9375.28125-2.566406 1.707031-4.863281 3.875-6.253906 18.667968-11.953125 39.46875-20.6875 61.820312-25.960938 4.582032-1.117187 9.175782 1.753907 10.25 6.332031 1.085938 4.582032-1.753906 9.175782-6.332031 10.25-17.035156 4.023438-33.0625 10.226563-47.78125 18.480469 27.035156 31.566407 42.351563 76.527344 42.351563 125.195313 0 45.328125-13.566407 88.195312-37.507813 119.398437 21.632813 11.234375 45.996094 18.265625 71.054687 20.457031 4.683594.402344 8.152344 4.539063 7.75 9.226563-.386718 4.4375-4.117187 7.78125-8.480468 7.78125zm0 0"/><path d="m179.859375 438.609375c-1.472656 0-2.976563-.382813-4.339844-1.195313-50.980469-30.265624-81.410156-80.160156-81.410156-133.460937 0-51.707031 27.71875-99.101563 76.042969-130.035156 3.960937-2.550781 9.238281-1.382813 11.773437 2.585937 2.539063 3.964844 1.378907 9.230469-2.585937 11.769532-43.332032 27.734374-68.1875 69.898437-68.1875 115.679687 0 47.222656 27.3125 91.640625 73.066406 118.808594 4.046875 2.398437 5.378906 7.628906 2.972656 11.675781-1.589844 2.683594-4.421875 4.171875-7.332031 4.171875zm0 0"/><path d="m369.449219 445.976562c-2.363281 0-4.695313-.988281-6.347657-2.835937-2.542968-2.839844-2.886718-7.015625-.859374-10.238281 21.8125-34.570313 33.824218-78.847656 33.824218-124.6875 0-49.210938-13.582031-95.863282-38.234375-131.371094-2.523437-3.632812-1.832031-8.546875 1.480469-11.351562 2.011719-4.203126 7.03125-6.011719 11.277344-4.023438 53.355468 24.910156 89.167968 70.039062 96.859375 121.558594l54.695312 12.621094c3.65625.84375 6.324219 3.96875 6.582031 7.703124.269532 3.742188-1.933593 7.214844-5.429687 8.554688l-57.671875 22.179688c-10.234375 47.066406-43.695312 87.347656-92.453125 111.03125-1.1875.578124-2.460937.859374-3.722656.859374zm15.5625-257.089843c18.230469 34.664062 28.097656 76.140625 28.097656 119.328125 0 37.71875-7.667969 74.546875-21.90625 106.492187 31.34375-22.359375 52.222656-53.484375 58.605469-88.425781.539062-2.921875 2.546875-5.355469 5.320312-6.421875l36.042969-13.863281-33.339844-7.695313c-3.546875-.820312-6.183593-3.792969-6.558593-7.414062-4.285157-40.714844-28.542969-77.523438-66.261719-102zm0 0"/><path d="m281.601562 465.878906c-6.367187 0-12.792968-.277344-19.074218-.835937-3.382813-.292969-6.261719-2.5625-7.339844-5.777344-1.074219-3.21875-.152344-6.761719 2.367188-9.03125 34.835937-31.4375 55.628906-84.53125 55.628906-142.019531 0-40.910156-10.671875-80.421875-30.042969-111.246094-2.507813-3.988281-1.308594-9.246094 2.679687-11.75 3.976563-2.523438 9.238282-1.308594 11.753907 2.675781 21.054687 33.515625 32.652343 76.242188 32.652343 120.320313 0 54.441406-17.527343 105.507812-47.585937 140.613281 29.035156-.148437 57.746094-6.726563 83.078125-19.042969 4.265625-2.054687 9.34375-.285156 11.390625 3.941406 2.058594 4.234376.292969 9.335938-3.933594 11.390626-27.949219 13.582031-59.617187 20.761718-91.574219 20.761718zm0 0"/><path d="m162.289062 303.953125c-14.097656 0-25.570312-11.46875-25.570312-25.570313 0-14.097656 11.472656-25.566406 25.570312-25.566406 14.097657 0 25.566407 11.46875 25.566407 25.566406 0 14.101563-11.46875 25.570313-25.566407 25.570313zm0-34.089844c-4.703124 0-8.523437 3.824219-8.523437 8.519531 0 4.703126 3.820313 8.527344 8.523437 8.527344 4.695313 0 8.519532-3.824218 8.519532-8.527344 0-4.695312-3.824219-8.519531-8.519532-8.519531zm0 0"/><path d="m294.261719 196.566406c-16.144531 0-35.796875-10.054687-55.28125-28.574218-21.214844-20.164063-37.007813-45.316407-42.230469-67.285157-5.328125-22.367187-3.949219-45.027343 3.878906-63.785156 8.214844-19.703125 22.503906-32.875 40.234375-37.085937 35.605469-8.476563 73.609375 23.03125 84.824219 70.191406 10.035156 42.210937 16.402344 116.160156-23.386719 125.625-2.566406.617187-5.253906.914062-8.039062.914062zm-41.398438-181.09375c-2.699219 0-5.386719.308594-8.054687.9375-12.289063 2.925782-22.386719 12.539063-28.449219 27.070313-6.453125 15.464843-7.53125 34.382812-3.035156 53.28125 4.429687 18.597656 18.757812 41.15625 37.398437 58.875 17.785156 16.902343 36.535156 26.089843 47.632813 23.4375 20.898437-4.96875 21.84375-58.425781 10.75-105.101563-8.136719-34.179687-32.273438-58.5-56.242188-58.5zm0 0"/></g><g transform="matrix(0.10623613939109061 0.0303531818182687 -0.0303531818182687 0.10623613939109061 -6.930305286710237 54.86475779819181)" id="L1_108"><path d="m295.046875 486.25h-187.042969c-37.804687 0-68.558594-30.753906-68.558594-68.5625v-285.460938c0-4.71875 3.8125-8.53125 8.527344-8.53125s8.53125 3.8125 8.53125 8.53125v285.460938c0 28.402344 23.101563 51.5 51.5 51.5h187.042969c28.398437 0 51.5-23.097656 51.5-51.5v-286.183594c0-4.71875 3.8125-8.535156 8.527344-8.535156 4.714843 0 8.535156 3.816406 8.535156 8.535156v286.183594c0 37.808594-30.757813 68.5625-68.5625 68.5625zm0 0"/><path d="m206.402344 139.957031c-14.242188 0-28.480469-3.878906-40.898438-11.65625l-3.15625-1.957031c-19.46875-12.191406-44.597656-12.132812-64 .164062-25.148437 15.90625-57.589844 15.867188-82.675781-.082031l-13.734375-8.738281c-2.308594-1.46875-3.773438-3.957031-3.929688-6.691406-.171874-2.738282.996094-5.378906 3.113282-7.113282l72.609375-59.308593c1.527343-1.238281 3.433593-1.921875 5.398437-1.921875h244.792969c1.792969 0 3.53125.566406 4.980469 1.613281l82.34375 59.300781c2.296875 1.660156 3.621094 4.34375 3.546875 7.167969-.082031 2.828125-1.566407 5.429687-3.949219 6.953125l-13.730469 8.742188c-25.09375 15.945312-57.535156 15.996093-82.675781.085937-19.398438-12.292969-44.527344-12.351563-63.988281-.1875l-3.171875 1.980469c-12.410156 7.769531-26.648438 11.636718-40.875 11.648437zm-75.910156-39.753906c14.226562 0 28.457031 3.890625 40.886718 11.660156l3.15625 1.960938c19.359375 12.113281 44.363282 12.113281 63.703125.019531l3.175781-1.988281c24.992188-15.621094 57.25-15.527344 82.15625.242187 19.5625 12.394532 44.835938 12.359375 64.378907-.066406l3.105469-1.972656-69.886719-50.34375h-238.996094l-61.113281 49.917968 3.78125 2.398438c19.515625 12.421875 44.8125 12.457031 64.378906.066406 12.523438-7.929687 26.902344-11.894531 41.273438-11.894531zm0 0"/><path d="m355.082031 392.414062h-307.109375c-4.714844 0-8.527344-3.816406-8.527344-8.535156v-196.203125c0-4.714843 3.8125-8.53125 8.527344-8.53125h307.109375c4.714844 0 8.527344 3.816407 8.527344 8.53125v196.203125c0 4.71875-3.8125 8.535156-8.527344 8.535156zm-298.578125-17.0625h290.042969v-179.148437h-290.042969zm0 0"/><path d="m205.789062 358.289062c-30.570312 0-55.445312-24.875-55.445312-55.449218 0-30.574219 24.875-55.449219 55.445312-55.449219 30.578126 0 55.453126 24.875 55.453126 55.449219 0 30.574218-24.875 55.449218-55.453126 55.449218zm0-93.839843c-21.164062 0-38.386718 17.222656-38.386718 38.390625 0 21.167968 17.222656 38.386718 38.386718 38.386718 21.171876 0 38.394532-17.21875 38.394532-38.386718 0-21.167969-17.222656-38.390625-38.394532-38.390625zm0 0"/><path d="m201.535156 264.449219c-2.445312 0-4.871094-1.039063-6.5625-3.066407-3.015625-3.621093-2.527344-9.003906 1.089844-12.019531l51.183594-42.65625c3.644531-3.015625 9.007812-2.523437 12.023437 1.09375 3.015625 3.625 2.523438 9.007813-1.09375 12.023438l-51.183593 42.652343c-1.601563 1.324219-3.535157 1.972657-5.457032 1.972657zm0 0"/><path d="m342.28125 59.714844h-281.507812c-16.464844 0-29.859376-13.394532-29.859376-29.855469 0-16.464844 13.394532-29.859375 29.859376-29.859375h281.507812c16.464844 0 29.859375 13.394531 29.859375 29.859375 0 16.460937-13.394531 29.855469-29.859375 29.855469zm-281.507812-42.65625c-7.058594 0-12.800782 5.742187-12.800782 12.800781 0 7.054687 5.742188 12.792969 12.800782 12.792969h281.507812c7.058594 0 12.800781-5.738282 12.800781-12.792969 0-7.058594-5.742187-12.800781-12.800781-12.800781zm0 0"/></g><g transform="matrix(0.1288541497613509 -0.01879122998977746 0.01879122998977746 0.1288541497613509 90.47762276816563 273.16485408547)" id="L1_109"><path d="m104.402344 235.921875c-2.5625 0-5.035156-1.160156-6.679688-3.234375-7.328125-9.246094-10.199218-18.363281-11.140625-25.621094-37.101562 11.546875-62.363281-10.9375-63.527343-12.007812-.339844-.304688-.660157-.636719-.9375-1.003906-13.011719-16.40625.414062-40.988282 9.386718-53.984376-32.394531-19.480468-36.011718-51.691406-36.164062-53.164062-.210938-2.0625.34375-4.132812 1.550781-5.808594.863281-1.214844 20.015625-27.367187 57.792969-28.191406-1.332032-15.726562-.753906-43.734375 18.667968-51.519531.433594-.164063.875-.304688 1.320313-.402344 1.558594-.34375 34.675781-7.265625 61.101563 21.144531 4.417968-5.824218 11.441406-12.3125 22.402343-16.691406 3.179688-1.285156 6.871094-.507812 9.277344 1.96875 1.121094 1.152344 27.3125 28.558594 25.425781 64.777344-1.082031 20.773437-11.058594 39.890625-29.6875 56.886718 7.765625 24.117188 6.902344 45.660157-2.558594 64.082032-16.371093 31.871094-52.445312 42.046875-53.976562 42.464844-.746094.203124-1.503906.304687-2.253906.304687zm-8.988282-50.121094c1.945313 0 3.867188.667969 5.4375 1.953125 2.59375 2.15625 3.683594 5.636719 2.769532 8.882813-.09375.339843-2.28125 9.476562 4.113281 20.546875 9.40625-3.78125 28.320313-13.378906 37.792969-31.921875 7.855468-15.398438 7.773437-34.1875-.257813-55.867188-1.257812-3.382812-.242187-7.1875 2.53125-9.503906 17.660157-14.757813 27.097657-31.058594 28.050781-48.457031 1.152344-21.175782-10.480468-39.347656-16.773437-47.53125-10.988281 6.429687-13.609375 15.417968-13.730469 15.851562-.894531 3.214844-3.601562 5.65625-6.882812 6.183594-3.273438.519531-6.601563-.859375-8.449219-3.628906-18.992187-28.480469-45.984375-25.601563-50.933594-24.804688-8.722656 4.527344-8.957031 27.964844-6.285156 42.800782.476563 2.628906-.3125 5.332031-2.132813 7.292968-1.8125 1.957032-4.492187 2.921875-7.105468 2.703125-28.097656-2.832031-45 12.066407-50.652344 18.175781 1.859375 8.152344 9.054688 29.351563 34.941406 40.917969 2.4375 1.09375 4.222656 3.273438 4.828125 5.878907.597657 2.609374-.070312 5.34375-1.785156 7.390624-9.683594 11.542969-21.140625 32.011719-15.804687 40.265626 3.789062 3.070312 25.835937 19.085937 56.53125 3.773437 1.199218-.613281 2.5-.902344 3.796874-.902344zm0 0"/><path d="m104.792969 349.015625c-29.199219 0-52.953125-23.75-52.953125-52.949219 0-29.199218 23.753906-52.953125 52.953125-52.953125s52.949219 23.753907 52.949219 52.953125c0 29.199219-23.753907 52.949219-52.949219 52.949219zm0-88.851563c-19.800781 0-35.90625 16.105469-35.90625 35.90625 0 19.796876 16.105469 35.90625 35.90625 35.90625 19.796875 0 35.90625-16.109374 35.90625-35.90625 0-19.800781-16.109375-35.90625-35.90625-35.90625zm0 0"/><path d="m197.6875 349.015625c-29.195312 0-52.957031-23.75-52.957031-52.949219 0-29.199218 23.753906-52.953125 52.957031-52.953125 29.195312 0 52.949219 23.753907 52.949219 52.953125 0 29.199219-23.757813 52.949219-52.949219 52.949219zm0-88.851563c-19.804688 0-35.90625 16.105469-35.90625 35.90625 0 19.796876 16.101562 35.90625 35.90625 35.90625 19.800781 0 35.902344-16.109374 35.902344-35.90625 0-19.800781-16.101563-35.90625-35.902344-35.90625zm0 0"/><path d="m153.257812 425.753906c-29.199218 0-52.953124-23.753906-52.953124-52.949218 0-29.195313 23.753906-52.953126 52.953124-52.953126 29.195313 0 52.949219 23.757813 52.949219 52.953126 0 29.195312-23.753906 52.949218-52.949219 52.949218zm0-88.851562c-19.800781 0-35.910156 16.101562-35.910156 35.90625 0 19.800781 16.109375 35.902344 35.910156 35.902344 19.796876 0 35.90625-16.101563 35.90625-35.902344 0-19.804688-16.109374-35.90625-35.90625-35.90625zm0 0"/><path d="m246.148438 425.753906c-29.199219 0-52.953126-23.753906-52.953126-52.949218 0-29.195313 23.753907-52.953126 52.953126-52.953126 29.203124 0 52.957031 23.757813 52.957031 52.953126 0 29.195312-23.753907 52.949218-52.957031 52.949218zm0-88.851562c-19.800782 0-35.902344 16.101562-35.902344 35.90625 0 19.800781 16.101562 35.902344 35.902344 35.902344 19.800781 0 35.910156-16.101563 35.910156-35.902344 0-19.804688-16.109375-35.90625-35.910156-35.90625zm0 0"/><path d="m201.71875 502.5c-29.195312 0-52.949219-23.753906-52.949219-52.953125 0-29.207031 23.753907-52.953125 52.949219-52.953125 29.199219 0 52.953125 23.746094 52.953125 52.953125 0 29.199219-23.753906 52.953125-52.953125 52.953125zm0-88.863281c-19.796875 0-35.90625 16.113281-35.90625 35.910156 0 19.800781 16.109375 35.90625 35.90625 35.90625 19.800781 0 35.910156-16.105469 35.910156-35.90625 0-19.796875-16.109375-35.910156-35.910156-35.910156zm0 0"/><path d="m290.582031 349.015625c-29.207031 0-52.953125-23.75-52.953125-52.949219 0-29.199218 23.746094-52.953125 52.953125-52.953125 29.195313 0 52.953125 23.753907 52.953125 52.953125 0 29.199219-23.757812 52.949219-52.953125 52.949219zm0-88.851563c-19.796875 0-35.910156 16.105469-35.910156 35.90625 0 19.796876 16.113281 35.90625 35.910156 35.90625 19.800781 0 35.90625-16.109374 35.90625-35.90625 0-19.800781-16.105469-35.90625-35.90625-35.90625zm0 0"/><path d="m197.675781 260.152344c-4.351562 0-8.0625-3.300782-8.480469-7.714844-.125-1.371094-11.160156-137.574219 136.527344-158.671875 4.667969-.667969 8.984375 2.570313 9.648438 7.234375.660156 4.660156-2.570313 8.976562-7.234375 9.644531-131.410157 18.765625-122.414063 135.257813-121.964844 140.214844.425781 4.683594-3.027344 8.832031-7.703125 9.265625-.269531.023438-.53125.027344-.792969.027344zm0 0"/><path d="m197.6875 251.589844c-4.710938 0-8.523438-3.8125-8.523438-8.523438v-34.039062c0-49.757813-40.476562-90.230469-90.230468-90.230469h-10.292969c-4.710937 0-8.523437-3.8125-8.523437-8.523437 0-4.710938 3.8125-8.519532 8.523437-8.519532h10.292969c59.152344 0 107.273437 48.125 107.273437 107.273438v34.039062c0 4.710938-3.808593 8.523438-8.519531 8.523438zm0 0"/><path d="m258.832031 228.378906c-3.921875 0-7.890625-.992187-11.523437-3.070312-11.128906-6.371094-15.003906-20.617188-8.632813-31.75l6.25-10.917969c-10.074219-2.351563-20.839843 2.046875-26.199219 11.433594l-10.710937 18.699219c-2.355469 4.082031-7.546875 5.496093-11.636719 3.164062-4.085937-2.351562-5.5-7.550781-3.164062-11.636719l10.714844-18.703125c10.070312-17.582031 31.234374-24.894531 49.683593-18.125l14.355469-25.089844c2.332031-4.074218 7.527344-5.507812 11.636719-3.164062 4.085937 2.339844 5.5 7.546875 3.160156 11.632812l-14.078125 24.589844 5.402344 3.085938c11.128906 6.375 14.996094 20.613281 8.625 31.746094l-3.652344 6.394531c-4.289062 7.5-12.15625 11.710937-20.230469 11.710937zm1.386719-38.152344-6.746094 11.800782c-.835937 1.441406-1.039062 3.113281-.605468 4.722656.429687 1.605469 1.46875 2.933594 2.910156 3.757812 2.984375 1.71875 6.785156.683594 8.484375-2.300781l3.660156-6.394531c1.707031-2.976562.671875-6.792969-2.308594-8.488281zm0 0"/></g><path d="m437.019531 137.179688c-1.21875-.351563-2.28125-1.039063-3.074219-1.984376-12.472656-14.828124-30.714843-23.332031-50.058593-23.332031-11.136719 0-22.101563 2.839844-31.777344 8.226563-11.324219-8.398438-24.746094-12.832032-38.894531-12.832032-12.066406 0-23.8125 3.300782-34.058594 9.5625-.152344-.109374-.308594-.207031-.464844-.316406 5.414063-22.496094 17.816406-41.699218 35.285156-54.453125 7.40625-5.40625 12.265626-13.375 13.679688-22.4375s-.785156-18.128906-6.191406-25.535156c-11.160156-15.289063-32.679688-18.652344-47.976563-7.488281-34.273437 25.019531-56.9375 62.699218-64.113281 106.417968-2.0625 1.15625-4.074219 2.421876-6.019531 3.8125-10.246094-6.261718-21.992188-9.5625-34.058594-9.5625-14.148437 0-27.574219 4.433594-38.894531 12.832032-9.679688-5.386719-20.644532-8.226563-31.777344-8.226563-3.101562 0-6.222656.21875-9.277344.652344-4.101562.585937-6.953125 4.382813-6.371094 8.480469.582032 4.101562 4.386719 6.949218 8.480469 6.371094 2.359375-.335938 4.769531-.503907 7.167969-.503907 8.851562 0 17.5625 2.324219 25.179688 6.726563 4.714843 2.726562 10.5625 2.347656 14.890624-.96875 8.851563-6.78125 19.433594-10.367188 30.601563-10.367188 9.625 0 18.980469 2.726563 27.058594 7.878906 4.566406 2.914063 10.5625 2.707032 14.917969-.523437 2.574218-1.910156 5.296874-3.550781 8.128906-4.917969.058594-.03125.117187-.058594.175781-.089844 6.71875-3.21875 14.070313-4.894531 21.675781-4.894531 10.886719 0 21.253906 3.421875 29.984375 9.902344 4.351563 3.230469 10.347657 3.441406 14.914063.523437 8.078125-5.152343 17.433594-7.878906 27.0625-7.878906 11.164062 0 21.746094 3.585938 30.601562 10.367188 4.328125 3.316406 10.171875 3.699218 14.890625.96875 7.617188-4.402344 16.324219-6.726563 25.179688-6.726563 14.902343 0 28.964843 6.554688 38.574219 17.984375 2.71875 3.234375 6.316406 5.566406 10.40625 6.742188 20.101562 5.796875 34.144531 24.46875 34.144531 45.414062v4.789063c0 23.300781-18.957031 42.257812-42.261719 42.257812-.226562 0-.457031.011719-.6875.03125-121.300781 11.167969-244.316406 11.167969-365.617188 0-.226562-.019531-.457031-.03125-.6875-.03125-23.300781 0-42.257812-18.957031-42.257812-42.257812v-4.789063c0-20.945312 14.039062-39.617187 34.140625-45.414062 4.089844-1.175782 7.6875-3.507813 10.40625-6.742188 1.207031-1.4375 2.507813-2.816406 3.867187-4.109375 3-2.855469 3.117188-7.601562.261719-10.605469-2.851562-3-7.601562-3.117187-10.601562-.261718-1.761719 1.671875-3.445313 3.464844-5.007813 5.324218-.796875.945313-1.859375 1.628907-3.078125 1.980469-26.488281 7.636719-44.988281 32.238281-44.988281 59.824219v4.792969c0 25.542969 16.816406 47.234375 39.957031 54.585937 4.019531 67.226563 23.125 128.890625 54.054688 174.144532 36.425781 53.300781 87.167969 81.472656 146.742187 81.472656 48.894532 0 91.0625-18.421875 125.332032-54.753906 2.839843-3.011719 2.703124-7.761719-.3125-10.601563-3.011719-2.84375-7.757813-2.703125-10.601563.308594-31.320313 33.210937-69.816406 50.046875-114.417969 50.046875-117.613281 0-177.394531-118.101563-185.59375-238 .578125.019531 1.15625.050781 1.742188.054687 60.996094 5.605469 122.425781 8.40625 183.851562 8.40625 61.425782 0 122.855469-2.804687 183.851563-8.40625.585937-.003906 1.164062-.035156 1.742187-.054687-4.238281 62.21875-21.863281 119.210937-50.027344 161.273437-2.304687 3.441407-1.378906 8.101563 2.0625 10.40625 1.28125.855469 2.730469 1.269531 4.164063 1.269531 2.417969 0 4.792969-1.167968 6.242187-3.332031 30.148438-45.035156 48.796876-106.019531 52.761719-172.234375 23.140625-7.351562 39.957031-29.042968 39.957031-54.585937v-4.792969c.003907-27.585938-18.496093-52.1875-44.988281-59.820312zm-171.917969-27.980469c-7.523437-2.957031-15.570312-4.492188-23.847656-4.492188-5.234375 0-10.375.613281-15.351562 1.8125 7.980468-35.992187 27.714844-66.847656 56.433594-87.8125 8.609374-6.285156 20.730468-4.394531 27.011718 4.214844 3.046875 4.171875 4.285156 9.277344 3.488282 14.382813-.796876 5.101562-3.53125 9.585937-7.703126 12.632812-19.359374 14.128906-33.332031 34.9375-40.03125 59.261719zm-123.410156 212.957031v15.539062c0 4.140626 3.359375 7.5 7.5 7.5 4.144532 0 7.5-3.359374 7.5-7.5v-15.539062c0-4.140625-3.355468-7.5-7.5-7.5-4.140625 0-7.5 3.355469-7.5 7.5zm184.125 0v15.539062c0 4.140626 3.359375 7.5 7.5 7.5 4.144532 0 7.5-3.359374 7.5-7.5v-15.539062c0-4.140625-3.355468-7.5-7.5-7.5-4.140625 0-7.5 3.355469-7.5 7.5zm-121.25 27.429688c0 22.144531 16.457032 40.160156 36.6875 40.160156 20.230469 0 36.6875-18.015625 36.6875-40.160156 0-27.234376-24.777344-27.234376-36.6875-27.234376-11.90625 0-36.6875 0-36.6875 27.234376zm58.375 0c0 13.871093-9.726562 25.160156-21.6875 25.160156-11.957031 0-21.683594-11.289063-21.683594-25.160156 0-9.328126 2.988282-12.234376 21.683594-12.234376 18.695313 0 21.6875 2.90625 21.6875 12.234376zm132.40625-127.53125c2.746094-3.152344 6.714844-4.960938 10.882813-4.960938s8.132812 1.808594 10.878906 4.960938c1.484375 1.699218 3.566406 2.570312 5.65625 2.570312 1.75 0 3.503906-.605469 4.925781-1.847656 3.121094-2.71875 3.449219-7.457032.726563-10.582032-5.597657-6.421874-13.683594-10.101562-22.1875-10.101562-8.507813 0-16.59375 3.683594-22.191407 10.101562-2.722656 3.125-2.394531 7.863282.726563 10.582032 3.125 2.722656 7.859375 2.398437 10.582031-.722656zm-75.972656-47.019532c2.746094-3.152344 6.710938-4.960937 10.878906-4.960937 4.167969 0 8.132813 1.808593 10.878906 4.960937 1.484376 1.699219 3.566407 2.570313 5.65625 2.570313 1.75 0 3.507813-.605469 4.925782-1.84375 3.125-2.722657 3.449218-7.460938.726562-10.585938-5.597656-6.421875-13.683594-10.101562-22.1875-10.101562s-16.59375 3.683593-22.1875 10.101562c-2.722656 3.125-2.398437 7.863281.726563 10.585938 3.121093 2.71875 7.859375 2.394531 10.582031-.726563zm-208.421875 7.53125c2.75-3.152344 6.714844-4.960937 10.882813-4.960937 4.167968 0 8.132812 1.808593 10.878906 4.960937 1.484375 1.699219 3.5625 2.570313 5.65625 2.570313 1.75 0 3.503906-.605469 4.925781-1.84375 3.121094-2.722657 3.449219-7.460938.726563-10.582031-5.597657-6.421876-13.683594-10.105469-22.1875-10.105469-8.503907 0-16.59375 3.683593-22.191407 10.105469-2.71875 3.121093-2.394531 7.859374.730469 10.582031 3.121094 2.71875 7.855469 2.394531 10.578125-.726563zm-69.453125 25.863282c-2.722656 3.125-2.394531 7.859374.726562 10.582031 3.125 2.722656 7.859376 2.394531 10.582032-.726563 2.75-3.152344 6.714844-4.960937 10.882812-4.960937 4.167969 0 8.132813 1.808593 10.878906 4.960937 1.484376 1.703125 3.566407 2.574219 5.660157 2.574219 1.746093 0 3.503906-.609375 4.921875-1.847656 3.125-2.722657 3.449218-7.457031.730468-10.582031-5.597656-6.421876-13.6875-10.105469-22.191406-10.105469-8.507812.003906-16.59375 3.683593-22.191406 10.105469zm188.875.539062c2.746094-3.152344 6.714844-4.960938 10.878906-4.960938 4.167969 0 8.132813 1.808594 10.882813 4.960938 1.480469 1.703125 3.5625 2.574219 5.65625 2.574219 1.746093 0 3.503906-.609375 4.925781-1.847657 3.121094-2.722656 3.445312-7.457031.726562-10.582031-5.597656-6.421875-13.6875-10.105469-22.191406-10.105469s-16.589844 3.683594-22.1875 10.105469c-2.722656 3.125-2.394531 7.859375.726563 10.582031 3.125 2.722657 7.859375 2.394532 10.582031-.726562zm0 0" transform="matrix(-0.08025869343739218 -0.15774985207015355 0.15774985207015355 -0.08025869343739218 228.18088179372097 295.3865112686031)" id="L1_110"/><path d="m200.527344 342.566406v7.964844c0 4.144531 3.355468 7.5 7.5 7.5 4.140625 0 7.5-3.355469 7.5-7.5v-7.964844c0-4.140625-3.359375-7.5-7.5-7.5-4.144532 0-7.5 3.359375-7.5 7.5zm62.46875 3.390625c-1.769532 2.027344-4.316406 3.1875-6.996094 3.1875s-5.226562-1.160156-6.992188-3.1875c-2.722656-3.121093-7.460937-3.445312-10.582031-.726562-3.125 2.722656-3.449219 7.460937-.726562 10.582031 4.613281 5.296875 11.285156 8.332031 18.300781 8.332031s13.683594-3.035156 18.300781-8.332031c2.722657-3.121094 2.398438-7.859375-.722656-10.582031-3.125-2.71875-7.859375-2.398438-10.582031.726562zm210.34375-183.699219h-24.765625l-17.328125-75.445312c-5.640625-24.570312-19.605469-46.75-39.328125-62.460938-19.722657-15.703124-44.464844-24.351562-69.679688-24.351562h-132.480469c-25.210937 0-49.953124 8.648438-69.675781 24.351562-12.15625 9.683594-22.394531 22.144532-29.605469 36.035157-1.90625 3.679687-.472656 8.203125 3.203126 10.113281 3.675781 1.90625 8.203124.476562 10.109374-3.203125 6.25-12.035156 15.113282-22.828125 25.640626-31.210937 17.074218-13.597657 38.5-21.085938 60.332031-21.085938h2.121093v30.242188h-2.121093c-31.230469 0-57.921875 21.257812-64.910157 51.695312l-15 65.316406h-31.035156l14.660156-63.832031c.925782-4.035156-1.59375-8.0625-5.632812-8.988281-4.039062-.925782-8.0625 1.59375-8.988281 5.632812l-15.429688 67.1875h-24.765625c-21.316406.003906-38.660156 17.34375-38.660156 38.660156 0 20.300782 15.734375 36.988282 35.644531 38.53125l19.320313 106.300782c7.179687 39.492187 41.519531 68.15625 81.660156 68.15625h238.75c20.113281 0 39.527344-7.296875 54.664062-20.546875 3.117188-2.726563 3.433594-7.464844.703126-10.582031-2.726563-3.117188-7.464844-3.433594-10.582032-.703126-12.402344 10.855469-28.308594 16.832032-44.785156 16.832032h-238.75c-32.886719 0-61.023438-23.480469-66.902344-55.835938l-18.808594-103.492187h111.152344l12.054688 12.054687s.003906 0 .003906.003906c0 0 .003906 0 .003906.003907l57.320313 57.320312c6.769531 6.765625 15.660156 10.148438 24.550781 10.148438s17.78125-3.382813 24.550781-10.148438l69.382813-69.382812h111.152344l-18.808594 103.492187c-.726563 4-1.816406 7.949219-3.234375 11.738282-1.453125 3.878906.515625 8.199218 4.394531 9.652343.863281.324219 1.753906.476563 2.628906.476563 3.035156 0 5.894532-1.859375 7.023438-4.871094 1.730468-4.621094 3.058594-9.441406 3.945312-14.316406l19.320313-106.304688c19.910156-1.539062 35.644531-18.226562 35.644531-38.527344 0-21.316406-17.34375-38.65625-38.660156-38.65625zm-153.222656-147.257812h2.121093c21.832031 0 43.257813 7.488281 60.332031 21.085938 17.078126 13.601562 29.171876 32.808593 34.058594 54.082031l16.554688 72.089843h-31.03125l-15-65.320312c-6.992188-30.4375-33.683594-51.695312-64.914063-51.695312h-2.121093zm-56.617188 0h41.617188v30.242188h-41.617188zm-56.617188 0h41.617188v30.242188h-41.617188zm-67.414062 85.296875c5.414062-23.582031 26.09375-40.054687 50.289062-40.054687h132.480469c24.195313 0 44.878907 16.472656 50.292969 40.054687l14.230469 61.960937h-261.523438zm-97.335938 124.277344c-.035156 0-.070312 0-.109374 0h-3.367188c-13.042969 0-23.65625-10.613281-23.65625-23.660157 0-13.046874 10.613281-23.65625 23.660156-23.65625h30.710938.035156.023438 30.320312l47.316406 47.316407zm78.832032-47.316407h116.929687l-58.464843 58.464844zm148.976562 121.089844c-7.683594 7.691406-20.195312 7.691406-27.886718 0l-52.019532-52.019531 65.964844-65.964844 65.964844 65.964844zm62.628906-62.625-58.464843-58.464844h116.929687zm140.769532-11.148437h-3.429688c-.003906 0-.007812 0-.011718 0h-104.964844l47.316406-47.316407h30.320312.023438.035156 30.710938c13.046875 0 23.660156 10.609376 23.660156 23.65625 0 13.046876-10.613281 23.660157-23.660156 23.660157zm-176.867188 117.992187v7.964844c0 4.144531 3.359375 7.5 7.5 7.5 4.144532 0 7.5-3.355469 7.5-7.5v-7.964844c0-4.140625-3.355468-7.5-7.5-7.5-4.140625 0-7.5 3.359375-7.5 7.5zm0 0" transform="matrix(0.10806120932102203 0 0 0.10806120932102203 78.267615712127 157.89614716183428)" id="L1_111"/><g transform="matrix(0.15082350373268127 0 0 0.15082350373268127 -5.999999005802124 205)" id="L1_112"><path d="M249.828,176.855c-2.08-2.966-6.032-3.938-9.251-2.275l-58.6,35.52c-3.422,2.068-4.52,6.519-2.451,9.941    c0.004,0.006,0.008,0.013,0.011,0.019c2.071,3.405,6.505,4.496,9.92,2.44l58.6-35.56    C251.331,184.644,252.124,180.129,249.828,176.855z"/><path d="M345.537,322.5l-84.28-192.92c-0.779-1.764-1.674-3.475-2.68-5.12c-6.632-10.623-17.28-18.111-29.52-20.76    c-9.585-2.217-19.576-1.969-29.04,0.72c4.707-11.577,7.659-23.791,8.76-36.24c1.719-14.883,0.551-29.959-3.44-44.4    c-4.28-13.76-12-22.72-21.8-23.72h-0.44c-9.8-0.8-18.92,6.48-25.72,19c-6.693,13.314-10.767,27.789-12,42.64    c-0.013,0.253-0.013,0.507,0,0.76c-0.982,9.307-0.982,18.692,0,28c-7.856-5.274-16.25-9.699-25.04-13.2    c-13.807-5.842-28.61-8.966-43.6-9.2c-14.4,0.24-25.16,5-28.88,14.24c-3.72,9.24,0.72,20,10.92,30.28    c10.977,10.228,23.826,18.241,37.84,23.6c11.489,4.757,23.622,7.777,36,8.96c-6.547,7.181-11.195,15.885-13.52,25.32    c-3.331,12.045-1.658,24.925,4.64,35.72c1.012,1.66,2.134,3.251,3.36,4.76l132,164c13.44,16.72,30.12,23.44,45.6,22.84    c16.614-0.666,31.72-9.821,40-24.24C352.377,360.1,354.137,342.18,345.537,322.5z M159.937,63.82v-0.04v-0.32    c1.02-13.029,4.537-25.74,10.36-37.44c4-7.36,8.24-11.8,11.76-11.52c3.56,0.36,6.88,5.52,9.36,13.56    c3.39,12.432,4.381,25.397,2.92,38.2c-0.028,0.373-0.028,0.747,0,1.12c-1.053,12.835-4.542,25.351-10.28,36.88    c-4,7.2-8,11.56-11.48,11.52h-0.68c-2.027-0.561-3.751-1.897-4.8-3.72c-0.453-0.853-0.96-1.707-1.52-2.56    c-1.13-2.25-2.066-4.592-2.8-7v-0.32C159.397,89.691,158.433,76.671,159.937,63.82z M102.297,122.58L102.297,122.58    c-12.223-4.631-23.44-11.57-33.04-20.44c-6.16-5.92-9-11.2-7.68-14.6s7.24-5.04,15.68-5.16c13.062,0.209,25.962,2.924,38,8    c12.218,4.671,23.422,11.652,33,20.56c1.911,1.867,3.652,3.902,5.2,6.08c0.453,0.8,0.933,1.573,1.44,2.32    c1.225,1.82,1.604,4.08,1.04,6.2c-1.32,3.32-7.24,5.04-15.68,5.2C127.198,130.475,114.311,127.705,102.297,122.58z     M332.377,366.42c-5.762,10.125-16.358,16.543-28,16.96c-11.24,0.44-23.56-4.72-33.8-17.44l-41.24-51l27.76-16.88    c3.413-2.088,4.488-6.547,2.4-9.96c-2.088-3.413-6.547-4.488-9.96-2.4l-29.4,17.88l-76.6-95.28l51.12-31.4    c3.424-2.088,4.508-6.556,2.42-9.98c-2.088-3.424-6.556-4.508-9.98-2.42l-51.4,31.56l-0.76,0.52    c-3.301-7.068-3.967-15.083-1.88-22.6v0c2.331-9.07,7.52-17.149,14.8-23.04c1.396-1.136,2.866-2.178,4.4-3.12l41.44-24.88    c1.543-0.933,3.147-1.761,4.8-2.48c8.58-3.722,18.129-4.591,27.24-2.48c8.466,1.742,15.868,6.835,20.52,14.12    c0.661,1.093,1.249,2.229,1.76,3.4l25.88,59.24l-46.8,27.96c-3.202,2.395-3.856,6.932-1.461,10.134    c2.115,2.827,5.96,3.717,9.101,2.106l45-27.12l42.36,97.12l-37.4,22.52c-3.435,2.066-4.546,6.525-2.48,9.96    c2.066,3.435,6.525,4.546,9.96,2.48l35.8-21.56l4.4,10.04C338.937,343.34,337.777,356.66,332.377,366.42z"/></g><g transform="matrix(0.15034617483615875 0 0 0.15034617483615875 188 321)" id="L1_113"><path d="M371.84,100.04c-2.01-3.457-6.443-4.63-9.9-2.62l-35.36,20.44c-3.457,2.01-4.63,6.443-2.62,9.9    c2.01,3.457,6.443,4.63,9.9,2.62l35.36-20.44C372.677,107.929,373.85,103.497,371.84,100.04z"/><path d="M369.22,289.18l-35.36-20.44c-3.457-2.01-7.89-0.837-9.9,2.62c-2.01,3.457-0.837,7.89,2.62,9.9l35.36,20.44    c3.457,2.01,7.89,0.837,9.9-2.62C373.85,295.622,372.677,291.19,369.22,289.18z"/><path d="M200.099,342.62c-4.01-0.298-7.501,2.711-7.799,6.721c-0.027,0.359-0.027,0.719,0,1.078v40.84    c-0.298,4.01,2.711,7.501,6.721,7.799s7.501-2.711,7.799-6.721c0.027-0.359,0.027-0.719,0-1.078v-40.84    C207.117,346.41,204.108,342.918,200.099,342.62z"/><path d="M72.5,117.86L37.14,97.42c-3.457-2.01-7.89-0.837-9.9,2.62c-2.01,3.457-0.837,7.89,2.62,9.9l35.36,20.44    c3.457,2.01,7.89,0.837,9.9-2.62C77.13,124.302,75.957,119.87,72.5,117.86z"/><path d="M200.099,0.02c-4.01-0.298-7.501,2.711-7.799,6.721c-0.027,0.359-0.027,0.719,0,1.078v40.84    c0.022,3.989,3.251,7.218,7.24,7.24c4.021,0,7.28-3.259,7.28-7.28V7.82C207.117,3.81,204.108,0.318,200.099,0.02z"/><path d="M130.34,65.22l-20.4-35.36c-2.01-3.457-6.443-4.63-9.9-2.62c-3.457,2.01-4.63,6.443-2.62,9.9l20.4,35.36    c2.01,3.457,6.443,4.63,9.9,2.62C131.177,73.109,132.35,68.677,130.34,65.22z"/><path d="M200.618,134.94c-0.359-0.027-0.719-0.027-1.078,0c-35.678,0-64.6,28.922-64.6,64.6c0,4.021,3.259,7.28,7.28,7.28    c4.005-0.022,7.24-3.275,7.24-7.28c-0.022-27.636,22.364-50.058,50-50.08c0.027,0,0.053,0,0.08,0    c4.01,0.298,7.501-2.711,7.799-6.721S204.628,135.237,200.618,134.94z"/><path d="M397.98,198.98c-0.267-3.595-3.125-6.454-6.721-6.721h-40.84c-4.01-0.298-7.501,2.711-7.799,6.721    s2.711,7.501,6.721,7.799c0.359,0.027,0.72,0.027,1.079,0h40.84C395.269,206.482,398.278,202.99,397.98,198.98z"/><path d="M49.738,192.3c-0.359-0.027-0.719-0.027-1.078,0H7.82c-4.01,0.298-7.019,3.79-6.721,7.799    c0.267,3.595,3.125,6.454,6.721,6.721h40.84c4.01,0.298,7.501-2.711,7.799-6.721C56.757,196.089,53.748,192.597,49.738,192.3z"/><path d="M199.569,92.7c-59.006-0.008-106.846,47.819-106.855,106.825c-0.004,28.347,11.258,55.534,31.305,75.575    c20.009,20.059,47.188,31.316,75.52,31.28c59.006,0.008,106.847-47.819,106.855-106.825S258.575,92.708,199.569,92.7z     M264.819,264.94c-36.053,36.053-94.507,36.053-130.56,0c-17.343-17.343-27.072-40.874-27.04-65.4    c-0.035-24.492,9.697-47.987,27.04-65.28v0.12c36.053-36.053,94.507-36.053,130.56,0    C300.873,170.433,300.873,228.887,264.819,264.94z"/><path d="M301.678,361.972c-0.006-0.011-0.012-0.022-0.019-0.032l-20.44-35.36c-2.01-3.457-6.443-4.63-9.9-2.62    c-3.457,2.01-4.63,6.443-2.62,9.9l20.44,35.36c2.002,3.453,6.422,4.634,9.88,2.64    C302.484,369.863,303.675,365.436,301.678,361.972z"/><path d="M299.28,27.24c-3.457-2.01-7.89-0.837-9.9,2.62l-20.44,35.36c-2.024,3.449-0.868,7.885,2.58,9.908    c0.007,0.004,0.013,0.008,0.02,0.012h0c3.454,2.014,7.887,0.847,9.901-2.608c0.006-0.011,0.013-0.022,0.019-0.032l20.44-35.36    C303.91,33.682,302.737,29.25,299.28,27.24z"/><path d="M127.76,323.96c-3.457-2.01-7.89-0.837-9.9,2.62l-20.44,35.36c-2.01,3.457-0.837,7.89,2.62,9.9s7.89,0.837,9.9-2.62    l20.44-35.36C132.39,330.402,131.217,325.97,127.76,323.96z"/><path d="M75.12,271.32c-2.01-3.457-6.443-4.63-9.9-2.62l-35.36,20.44c-3.457,2.01-4.63,6.443-2.62,9.9    c2.01,3.457,6.443,4.63,9.9,2.62l35.36-20.44C75.957,279.209,77.13,274.777,75.12,271.32z"/></g><g transform="matrix(0.15085762739181519 0 0 0.15085762739181519 273 290)" id="L1_114"><path d="M297.336,161.943c-0.011-0.011-0.022-0.022-0.033-0.033l0.04-0.04c-10.508-10.549-27.578-10.581-38.127-0.073    c-0.024,0.024-0.049,0.049-0.073,0.073c-10.549,10.508-10.581,27.578-0.073,38.127c0.024,0.024,0.049,0.049,0.073,0.073    c10.519,10.538,27.59,10.552,38.127,0.033c0.011-0.011,0.022-0.022,0.033-0.033C307.84,189.551,307.855,172.481,297.336,161.943z     M287.143,189.87c-4.915,4.926-12.893,4.936-17.819,0.021c-4.926-4.915-4.936-12.893-0.021-17.819    c4.915-4.926,12.893-4.936,17.819-0.021c2.374,2.368,3.706,5.586,3.701,8.939c0.002,3.339-1.338,6.539-3.72,8.88H287.143z"/><path d="M276.564,286.808c-5.719-5.628-13.438-8.756-21.461-8.697c-8.039,0.055-15.725,3.307-21.36,9.04    c-11.73,11.919-11.577,31.091,0.343,42.821c11.919,11.73,31.091,11.577,42.821-0.343    C288.637,317.709,288.483,298.538,276.564,286.808z M266.343,319.63h-0.08c-6.333,6.162-16.463,6.024-22.625-0.31    c-6.162-6.333-6.024-16.463,0.31-22.625c6.333-6.162,16.463-6.024,22.625,0.31c2.971,3.053,4.601,7.166,4.53,11.425    C271.08,312.65,269.365,316.685,266.343,319.63z"/><path d="M166.243,146.93c-9.698-9.709-25.431-9.718-35.14-0.02c-9.545,9.505-9.74,24.896-0.44,34.64l0.44,0.52    c9.7,9.695,25.42,9.695,35.12,0C175.932,172.372,175.941,156.639,166.243,146.93z M155.943,171.87    c-4.029,4.032-10.563,4.034-14.595,0.005c-0.002-0.002-0.004-0.004-0.005-0.005l-0.28-0.28c-3.732-4.087-3.609-10.382,0.28-14.32    v-0.04c4.043-4.032,10.588-4.023,14.62,0.02C159.995,161.293,159.986,167.839,155.943,171.87z"/><path d="M340.56,178.207c-15.543-34.412-43.077-61.987-77.457-77.585v-0.272c0.2-2.2,0.32-4.28,0.32-6.2    c-0.014-21.044-10.303-40.756-27.56-52.8l20.8-29.8c2.286-3.314,1.454-7.854-1.86-10.14c-3.314-2.286-7.854-1.454-10.14,1.86    l-21.56,31.16c-15.406-6.165-32.594-6.165-48,0l-21.8-31.28c-2.286-3.314-6.826-4.146-10.14-1.86    c-3.314,2.286-4.146,6.826-1.86,10.14l20.8,29.8c-17.257,12.044-27.546,31.756-27.56,52.8c0,1.92,0,4,0.32,6.2v0.28    C56.606,135.857,21.82,227.95,57.166,306.207c35.346,78.257,127.44,113.043,205.697,77.697    C341.12,348.558,375.906,256.464,340.56,178.207z M144.163,363.789c-2.734,0.007-5.36-1.071-7.3-2.999    c-4.032-4.032-4.032-10.568,0-14.6s10.568-4.032,14.6,0l0.28,0.28c3.866,4.188,3.605,10.717-0.583,14.583    C149.254,362.813,146.756,363.789,144.163,363.789z M191.823,383.43c-12.855-0.648-25.56-3.057-37.76-7.16    c2.857-1.214,5.461-2.95,7.68-5.12c9.545-9.505,9.74-24.896,0.44-34.64l-0.44-0.48c-9.708-9.693-25.436-9.682-35.129,0.026    c-6.129,6.138-8.612,15.028-6.551,23.454c-64.606-43.555-81.67-131.237-38.115-195.843    c24.821-36.818,65.528-59.801,109.875-62.037V383.43z M149.223,95.15v-0.88c-0.78-27.537,20.911-50.492,48.448-51.272    s50.492,20.911,51.272,48.448c0.027,0.941,0.027,1.883,0,2.825v0.88C216.594,84.267,181.572,84.267,149.223,95.15z     M339.986,249.775c-1.794,34.857-16.445,67.812-41.123,92.496v0.08c-24.666,24.717-57.645,39.374-92.52,41.12V101.63    C284.156,105.635,343.99,171.961,339.986,249.775z"/><path d="M146.931,216.672c-11.888-11.793-31.085-11.716-42.879,0.172c-11.573,11.667-11.746,30.429-0.39,42.307l0.4,0.44    c11.807,11.874,31.005,11.929,42.879,0.122c0.054-0.054,0.108-0.107,0.161-0.162C158.896,247.662,158.819,228.465,146.931,216.672    z M136.743,249.51c-6.217,6.072-16.143,6.072-22.36,0l-0.32-0.32c-5.778-6.26-5.637-15.95,0.32-22.04l-0.04,0    c7.097-5.265,17.118-3.78,22.383,3.317C140.919,236.12,140.926,243.85,136.743,249.51z"/></g><g transform="matrix(0.035451977546152647 -0.06768104328199961 0.06768104328199961 0.035451977546152647 121.31152329102991 42.51952108811976)" id="L1_115"><path d="M183.427,191.636c-0.633-0.747-1.41-1.358-2.286-1.796l-33.48-17.36l-14.52-34.56c-1.544-3.688-5.786-5.426-9.474-3.882    c-0.835,0.349-1.596,0.852-2.246,1.482l-26.76,26.4l-37.44,3.28c-4.005,0.349-6.969,3.88-6.62,7.885    c0.099,1.133,0.462,2.227,1.06,3.195l16.56,32.96l-8.56,36.64c-0.896,3.897,1.537,7.782,5.434,8.678    c0.841,0.193,1.71,0.235,2.566,0.122l37.2-5.64l32,19.36c3.302,2.255,7.807,1.407,10.062-1.895    c0.611-0.895,1.014-1.915,1.178-2.985l6.12-37.04l28.36-24.64C185.632,199.256,186.011,194.687,183.427,191.636z M142.941,217    c-1.369,1.116-2.28,2.696-2.56,4.44l-4.72,29.04l-25-14.96c-1.517-1.048-3.377-1.477-5.2-1.2l-29.2,4.4l6.64-28.76    c0.369-1.634,0.157-3.346-0.6-4.84l-13.2-26.4l29.44-2.56c1.673-0.142,3.243-0.863,4.44-2.04l21.04-20.76l11.4,26.84    c0.612,1.725,1.856,3.155,3.48,4l26.2,13.56L142.941,217z"/><path d="M312.581,204.8c-1.945-24.143-7.263-47.893-15.8-70.56C270.701,62.64,216.661,0,171.661,0s-99.04,62.64-125.32,134.24    c-8.538,22.666-13.856,46.417-15.8,70.56v0c-1.972,22.524,1.145,45.203,9.12,66.36c16.84,42.16,57.12,72,132,72    s115.32-29.76,132-72C311.567,249.987,314.615,227.309,312.581,204.8z M285.661,275.8L285.661,275.8    c-3.812,7.251-8.679,13.896-14.44,19.72l-4.72-3c-1.588-1.019-3.511-1.378-5.36-1l-24.32,3.08l6.24-24.28    c0.419-1.616,0.263-3.326-0.44-4.84l-10.68-22.76l25-1.56c1.748-0.106,3.398-0.845,4.64-2.08l18.08-17l9.2,23.28    c0.632,1.739,1.906,3.171,3.56,4l2.64,1.44C293.027,259.506,289.867,267.91,285.661,275.8z M298.141,229.88l-9.04-22.84    c-1.465-3.721-5.668-5.549-9.389-4.085c-0.865,0.341-1.657,0.845-2.331,1.485l-24,22.64l-33,2.08    c-3.991,0.245-7.027,3.68-6.782,7.671c0.056,0.903,0.28,1.788,0.662,2.609l14.12,30l-8,32c-1.125,3.837,1.074,7.859,4.911,8.984    c1.002,0.294,2.056,0.367,3.089,0.216l30.08-3.8c-20,13.8-48,22.08-86.48,22.08c-68,0-104-25.92-118.72-62.72    c-7.114-19.152-9.847-39.654-8-60c1.857-22.763,6.892-45.154,14.96-66.52c24.16-66.96,72.44-125.16,111.44-125.16v0    c18.96,0,40,13.76,59.64,35.56l-14.96-1.32l-17.8-17.56c-2.863-2.791-7.447-2.732-10.238,0.131    c-0.628,0.645-1.131,1.401-1.482,2.229l-9.76,23l-22.2,11.52c-3.576,1.789-5.025,6.138-3.236,9.714    c0.438,0.876,1.049,1.653,1.796,2.286l18.88,16.4l4,24.68c0.642,3.947,4.362,6.625,8.309,5.983    c0.909-0.148,1.782-0.468,2.571-0.943l21.44-12.88l24.76,3.76c3.964,0.521,7.601-2.27,8.122-6.234    c0.113-0.856,0.071-1.725-0.122-2.566l-5.64-24.4l8.68-17.28c16.231,22.339,29.276,46.827,38.76,72.76    c8.066,21.367,13.102,43.757,14.96,66.52C298.711,213.87,298.711,221.89,298.141,229.88z M221.261,84.48L221.261,84.48l4,16.52    l-16.76-2.56c-1.823-0.277-3.683,0.152-5.2,1.2l-14.12,8.48l-3-16.6c-0.26-1.753-1.157-3.348-2.52-4.48l-12.68-11l15.04-8    c1.627-0.842,2.871-2.273,3.48-4l6.48-15.28l12,12c1.197,1.177,2.767,1.898,4.44,2.04l16.92,1.48l-7.52,15.24    C221.049,81.054,220.85,82.813,221.261,84.48z"/></g><path d="M363.044,5.362c-0.53-1.948-1.849-3.587-3.64-4.52h0c-3.534-1.87-7.915-0.521-9.786,3.013    c-0.005,0.009-0.01,0.018-0.014,0.027c0,0.2-36.68,71.36-149.28,83.76c-14.688,1.567-29.045,5.399-42.56,11.36    c-24.191,10.517-44.17,28.821-56.76,52c-11.754,21.773-16.622,46.601-13.96,71.2c1.961,17.932,7.95,35.189,17.52,50.48    c-20,14.36-83.44,64-89.16,117.28c-0.42,3.976,2.464,7.54,6.44,7.96c3.977,0.42,7.54-2.464,7.96-6.44    c5.24-47.56,64.76-93.68,83.32-107.04c22.28,27.36,55.64,42.8,91.44,45.32c24.095,1.555,48.219-2.554,70.44-12    c24.122-10.121,45.426-25.948,62.08-46.12C380.004,219.642,400.444,132.242,363.044,5.362z M117.284,265.522L117.284,265.522    c-2.76-4.347-5.193-8.893-7.28-13.6c-4.392-9.933-7.225-20.483-8.4-31.28c-2.45-21.665,1.734-43.564,12-62.8    c11.096-20.394,28.697-36.488,50-45.72c12.179-5.303,25.105-8.689,38.32-10.04c74.32-8,118.04-41.08,140.6-65.08    c-13.255,43.639-36.076,83.773-66.8,117.48l-4.4-44.32c-0.224-3.992-3.642-7.047-7.634-6.823    c-3.992,0.224-7.047,3.642-6.823,7.634c0.011,0.197,0.03,0.394,0.057,0.589l5.64,56.96    C228.924,202.642,182.164,236.922,117.284,265.522z M325.884,262.362v0.04c-15.132,18.423-34.515,32.892-56.48,42.16    c-20.199,8.536-42.122,12.208-64,10.72c-30.457-1.543-59.038-15.179-79.4-37.88c23.862-10.559,46.934-22.817,69.04-36.68l63.56,12    c3.95,0.619,7.654-2.082,8.273-6.032c0.597-3.81-1.898-7.42-5.673-8.208l-48.84-9.24c22.551-15.488,43.543-33.131,62.68-52.68    c0.351-0.302,0.672-0.637,0.96-1c50.48-52.56,71.96-104.56,80.92-136.56C381.644,144.442,362.724,217.802,325.884,262.362z" transform="matrix(0.0654425173997879 0 0 0.0654425173997879 -2.4236777487250265 143.93706627190113)" id="L1_116"/><path d="M305.045,152.48L305.045,152.48c10.242-7.579,18.898-17.091,25.48-28c0.261-0.352,0.488-0.727,0.68-1.12    c7.025-11.055,11.721-23.427,13.8-36.36c1.64-12.88-1.4-23.36-9.48-28.32s-18.8-3-29.6,4.2l-1.16,0.8    c-1.587-4.908-3.835-9.577-6.68-13.88c-3.883-6.803-10.941-11.182-18.76-11.64c-5.404,0.119-10.54,2.378-14.28,6.28    c0-0.48,0-0.92,0-1.4c0-10.16-3.08-18.2-9.92-22.44c-8-5-18.8-3-29.6,4.2l-1.16,0.8c-1.587-4.908-3.835-9.577-6.68-13.88    C213.837,4.909,206.811,0.501,199.005,0c-7.819,0.458-14.877,4.837-18.76,11.64c-2.845,4.303-5.093,8.972-6.68,13.88l-1.16-0.8    c-10.8-7.24-21.48-9.2-29.6-4.2c-6.84,4.2-10.04,12.28-9.92,22.44v1.4c-3.74-3.903-8.876-6.161-14.28-6.28    c-7.819,0.458-14.877,4.837-18.76,11.64c-2.846,4.302-5.093,8.972-6.68,13.88l-1.16-0.8c-10.8-7.24-21.48-9.2-29.6-4.2    c-8.12,5-11.04,15.36-9.4,28.4c2.063,12.974,6.759,25.389,13.8,36.48c0.192,0.393,0.42,0.768,0.68,1.12    c6.763,11.265,15.761,21.025,26.44,28.68c5.162,3.714,11.171,6.079,17.48,6.88v31.72h-18.96c-7.246-0.001-14.196,2.877-19.32,8    c-5.123,5.124-8.001,12.074-8,19.32c-0.001,7.246,2.877,14.196,8,19.32c3.332,3.334,7.464,5.758,12,7.04v73.8    c0.11,43.402,35.278,78.552,78.68,78.64h70.4c43.37-0.132,78.49-35.27,78.6-78.64v-73.84c4.536-1.282,8.668-3.706,12-7.04    c5.123-5.124,8.001-12.074,8-19.32c0.001-7.246-2.877-14.196-8-19.32c-5.124-5.123-12.074-8.001-19.32-8h-18.88v-31.8    C293.3,159.151,299.652,156.547,305.045,152.48z M314.005,74.76L314.005,74.76c6-4,11.12-5.64,13.92-4    c2.8,1.64,3.64,7.04,2.72,14.2c-1.811,11.127-5.896,21.762-12,31.24c-5.59,9.466-12.999,17.732-21.8,24.32    c-1.12,0.8-2.24,1.52-3.32,2.12c0.805-4.545,0.886-9.189,0.24-13.76c-1.138-7.553-3.305-14.915-6.44-21.88l1.2-2.28    c1-1.84,1.96-3.52,2.92-5.12C297.173,89.854,304.854,81.397,314.005,74.76z M267.205,99.56c6.104,9.478,10.189,20.113,12,31.24    c0.92,7.16,0,12.48-2.72,14.2l-0.76,0.36c-2.92,1.08-7.68-0.6-13.16-4.28c-9.133-6.629-16.8-15.072-22.52-24.8    c-6.104-9.478-10.189-20.113-12-31.24c-0.92-7.16,0-12.48,2.72-14.2c2.72-1.72,8,0,13.92,4    C253.809,81.446,261.475,89.861,267.205,99.56z M223.005,115.56h0.2c1.32,2.6,2.76,5.2,4.36,7.8c0.192,0.393,0.42,0.768,0.68,1.12    c6.764,11.264,15.762,21.024,26.44,28.68c5.162,3.714,11.171,6.079,17.48,6.88v31.72h-65.88v-69.72    c2.431-0.234,4.823-0.771,7.12-1.6C216.785,119.196,220.008,117.558,223.005,115.56z M233.645,36.72l0.12,0.04    c6-4,11.12-5.64,13.92-4c2.12,1.32,3.12,4.92,3.04,9.96c-0.236,5.728-1.37,11.383-3.36,16.76c-8.88-4.48-17.4-5.12-24-1    c-8,5-11.12,15.44-9.48,28.32c0.694,5.167,1.919,10.248,3.644,15.167c-1.256,0.833-2.566,1.58-3.924,2.233    c0.663-4.388,0.663-8.852,0-13.24c-1.172-7.616-3.393-15.033-6.6-22.04l1.2-2.28c1-1.84,1.96-3.52,2.92-5.12    C216.845,51.792,224.512,43.349,233.645,36.72z M192.205,19.8c2.28-3.32,4.64-5.28,6.8-5.28s4.52,1.92,6.8,5.28    c3.161,4.99,5.41,10.503,6.64,16.28c-5.048,5.396-9.55,11.278-13.44,17.56V53.4c-3.238-5.082-6.876-9.897-10.88-14.4    c-0.84-0.96-1.68-1.96-2.56-2.84C186.786,30.355,189.035,24.814,192.205,19.8z M150.445,32.8c2.8-1.72,8,0,13.92,4    c9.172,6.605,16.88,15.035,22.64,24.76c6.104,9.478,10.189,20.113,12,31.24c0.92,7.16,0,12.48-2.72,14.2l-0.68,0.32    c-1.863,0.453-3.821,0.314-5.6-0.4c-3.295-1.152-6.384-2.822-9.157-4.942c1.654-4.865,2.823-9.881,3.477-14.978    c1.64-12.88-1.4-23.36-9.48-28.32c-6.72-4-15.24-3.48-24,1c-1.99-5.377-3.124-11.032-3.36-16.76    C147.325,37.72,148.285,34.12,150.445,32.8z M191.765,122.04v69.68h-65.84v-31.68c6.695-0.889,13.047-3.493,18.44-7.56    c10.242-7.578,18.898-17.091,25.48-28c0.26-0.352,0.488-0.727,0.68-1.12c1.56-2.6,3.04-5.2,4.36-7.8    c3.312,2.203,6.904,3.952,10.68,5.2l0.04,0.04C187.606,121.441,189.672,121.856,191.765,122.04z M153.325,74.76l0.04,0.04    c6-4,11.12-5.64,13.92-4s3.64,7.04,2.72,14.2c-1.811,11.127-5.896,21.762-12,31.24c-5.591,9.465-13,17.731-21.8,24.32    c-1.12,0.8-2.24,1.52-3.32,2.12c0.805-4.545,0.886-9.189,0.24-13.76c-1.106-7.563-3.246-14.939-6.36-21.92v-0.24l1.2-2.28    c1-1.84,1.96-3.52,2.96-5.12C136.633,89.716,144.256,81.344,153.325,74.76z M111.885,57.84c2.28-3.32,4.64-5.28,6.8-5.28    c2.16,0,4.52,1.92,6.8,5.28c3.161,4.99,5.41,10.503,6.64,16.28l-0.32,0.36c-4.904,5.298-9.285,11.058-13.08,17.2v-0.24    c-3.801-6.227-8.253-12.033-13.28-17.32C106.613,68.356,108.794,62.844,111.885,57.84z M101.965,141.12    c-9.132-6.63-16.799-15.072-22.52-24.8c-6.104-9.478-10.189-20.113-12-31.24c-0.92-7.16,0-12.48,2.72-14.2c2.72-1.72,8,0,13.92,4    c9.133,6.63,16.799,15.072,22.52,24.8c6.104,9.478,10.189,20.113,12,31.24c0.92,7.16,0,12.48-2.72,14.2l-0.88,0.28    C112.245,146.48,107.485,144.8,101.965,141.12z M298.285,319.36c-0.175,35.273-28.727,63.825-64,64h-70.48    c-35.273-0.175-63.825-28.727-64-64v-72.84h198.48V319.36z M305.565,206.16v0.08c3.406-0.005,6.674,1.348,9.08,3.76    c2.392,2.386,3.744,5.621,3.76,9c0.005,3.406-1.348,6.674-3.76,9.08c-2.406,2.412-5.674,3.765-9.08,3.76H92.445    c-3.406,0.005-6.674-1.348-9.08-3.76c-2.412-2.406-3.765-5.674-3.76-9.08c-0.005-3.406,1.348-6.674,3.76-9.08    c2.406-2.412,5.674-3.765,9.08-3.76H305.565z M279.365,91.68v-0.24c-9.2-14.72-12.72-16.76-13.28-17.32    c1.23-5.778,3.479-11.29,6.64-16.28c2.28-3.32,4.64-5.28,6.8-5.28s4.52,1.92,6.8,5.28c3.161,4.99,5.41,10.503,6.64,16.28    c-1.44,1.52-2.867,3.147-4.28,4.88C285.291,83.008,282.177,87.245,279.365,91.68z" transform="matrix(0.15075376629829407 0 0 0.15075376629829407 182.99999926389762 61)" id="L1_117"/><g transform="matrix(0.05899549112536305 -0.005899549202048073 0.005899549202048073 0.05899549112536305 282.35046115653375 51.13765826323662)" id="L1_118"><path d="m178.691406 104.9375c-1.761718 0-3.535156-.546875-5.0625-1.675781-3.777344-2.792969-4.578125-8.132813-1.777344-11.914063 13.984376-18.910156 35.964844-45.835937 64.589844-72.179687-34.402344-7.578125-71.007812-4.878907-104.132812 7.964843-4.375 1.679688-9.324219-.472656-11.027344-4.863281-1.695312-4.390625.476562-9.324219 4.867188-11.027343 41.558593-16.109376 88.082031-17.570313 130.34375-4.363282 2.960937.933594 5.183593 3.382813 5.808593 6.421875.625 3.039063-.449219 6.167969-2.804687 8.1875-33.296875 28.507813-58.589844 59.238281-73.949219 79.996094-1.667969 2.257813-4.242187 3.453125-6.855469 3.453125zm0 0"/><path d="m383.445312 237.40625c-.5 0-1.003906-.039062-1.511718-.128906-4.632813-.832032-7.714844-5.261719-6.886719-9.890625 1.914063-10.6875 2.886719-21.449219 2.886719-31.992188 0-79.359375-50.847656-148.582031-126.523438-172.25-4.488281-1.402343-6.992187-6.179687-5.589844-10.671875 1.40625-4.5 6.199219-6.992187 10.675782-5.59375 82.832031 25.90625 138.480468 101.660156 138.480468 188.515625 0 11.546875-1.0625 23.316407-3.152343 34.992188-.738281 4.128906-4.332031 7.019531-8.378907 7.019531zm0 0"/><path d="m197.488281 392.882812c-30.328125 0-59.457031-6.714843-86.570312-19.960937-2.042969-1-3.601563-2.773437-4.328125-4.929687-38.921875-115.214844-4.511719-184.40625 19.464844-215.394532 2.886718-3.71875 8.234374-4.390625 11.949218-1.53125 3.726563 2.882813 4.410156 8.238282 1.53125 11.957032-26.4375 34.171874-50.796875 95.832031-17.933594 196.109374 23.851563 11.09375 49.359376 16.710938 75.886719 16.710938 33.898438 0 66.960938-9.492188 95.625-27.445312 3.988281-2.496094 9.246094-1.289063 11.746094 2.703124 2.496094 3.984376 1.289063 9.246094-2.703125 11.746094-31.371094 19.644532-67.566406 30.035156-104.667969 30.035156zm0 0"/><path d="m297.632812 364.140625c-1.835937 0-3.667968-.589844-5.1875-1.761719-73.960937-56.796875-113.578124-144.082031-130.617187-191.054687-1.609375-4.425781.683594-9.316407 5.105469-10.914063 4.410156-1.613281 9.308594.683594 10.914062 5.105469 16.03125 44.207031 52.738282 125.421875 120.25 179.636719 39.433594-26.550782 66.953125-67.703125 76.257813-114.15625-67.070313-88.472656-133.476563-105.121094-177.585938-103.398438-4.703125.210938-8.664062-3.476562-8.84375-8.179687-.191406-4.699219 3.476563-8.660157 8.183594-8.84375 48.632813-2.019531 121.894531 16.191406 194.160156 113.222656 1.402344 1.886719 1.964844 4.273437 1.550781 6.59375-9.765624 54.597656-42.449218 102.875-89.664062 132.453125-1.382812.871094-2.960938 1.296875-4.523438 1.296875zm0 0"/><path d="m114.648438 373.785156c-1.246094 0-2.53125-.273437-3.730469-.863281-68.414063-33.425781-110.917969-101.445313-110.917969-177.527344 0-1.164062.0390625-2.320312.078125-3.476562l.042969-1.4375c.054687-2.050781.84375-4.011719 2.230468-5.53125 41.914063-45.84375 86.03125-60.164063 115.652344-64.09375 4.699219-.589844 8.953125 2.65625 9.570313 7.324219.621093 4.667968-2.660157 8.949218-7.320313 9.566406-26.328125 3.496094-65.398437 16.164062-103.199218 56.410156-.003907.414062-.011719.824219-.011719 1.238281 0 69.511719 38.835937 131.671875 101.355469 162.214844 4.226562 2.0625 5.984374 7.167969 3.917968 11.394531-1.480468 3.023438-4.511718 4.78125-7.667968 4.78125zm0 0"/><path d="m8.644531 199.226562c-.066406 0-.140625 0-.214843-.003906-4.703126-.113281-8.42578175-4.023437-8.308594-8.726562 1.957031-79.96875 51.421875-150.328125 126.03125-179.253906 2.730468-1.066407 5.859375-.632813 8.226562 1.15625 2.355469 1.785156 3.617188 4.660156 3.335938 7.605468-2.589844 26.902344.871094 52.335938 10.28125 75.585938 1.769531 4.363281-.335938 9.332031-4.695313 11.097656-4.367187 1.757812-9.335937-.335938-11.097656-4.703125-8.644531-21.355469-12.824219-45.140625-12.292969-69.511719-61.203125 29.082032-101.082031 89.898438-102.757812 158.4375-.105469 4.636719-3.898438 8.316406-8.507813 8.316406zm0 0"/><path d="m158.496094 176.925781c-24.546875 0-44.519532-19.972656-44.519532-44.519531 0-24.542969 19.972657-44.511719 44.519532-44.511719 24.542968 0 44.511718 19.96875 44.511718 44.511719 0 24.546875-19.96875 44.519531-44.511718 44.519531zm0-71.988281c-15.152344 0-27.472656 12.324219-27.472656 27.46875 0 15.152344 12.320312 27.472656 27.472656 27.472656 15.144531 0 27.46875-12.320312 27.46875-27.472656-.003906-15.144531-12.324219-27.46875-27.46875-27.46875zm0 0"/><path d="m392.734375 346.058594c-2.195313 0-4.390625-.84375-6.058594-2.523438-3.308593-3.347656-3.285156-8.746094.058594-12.050781 19.914063-19.707031 31.769531-45.980469 33.386719-73.972656.277344-4.695313 4.410156-8.234375 9-8.015625 4.703125.273437 8.289062 4.300781 8.023437 9-1.863281 32.199218-15.507812 62.421875-38.414062 85.101562-1.664063 1.648438-3.828125 2.460938-5.996094 2.460938zm0 0"/><path d="m369.988281 416.691406c-3.386719 0-6.589843-2.027344-7.921875-5.363281-1.738281-4.367187.386719-9.328125 4.75-11.078125 82.269532-32.871094 122.453125-126.550781 89.574219-208.820312-1.742187-4.371094.382813-9.332032 4.746094-11.078126 4.367187-1.722656 9.328125.390626 11.082031 4.75 17.609375 44.078126 17.003906 92.386719-1.703125 136.007813-18.714844 43.628906-53.296875 77.355469-97.375 94.972656-1.03125.410157-2.101563.609375-3.152344.609375zm0 0"/></g><g transform="matrix(-0.15164928138256073 0 0 0.15164928138256073 79.82221603393555 297.17778396606445)" id="L1_119"><path d="M348.67,166.531c-0.13-0.64-0.32-1.269-0.57-1.869s-0.56-1.18-0.92-1.73c-0.36-0.541-0.78-1.06-1.24-1.52    c-1.86-1.861-4.44-2.931-7.07-2.931s-5.21,1.071-7.07,2.931c-0.46,0.46-0.88,0.98-1.24,1.52c-0.361,0.549-0.671,1.129-0.921,1.73    c-0.25,0.599-0.45,1.229-0.57,1.869c-0.13,0.65-0.2,1.301-0.2,1.95c0,0.66,0.07,1.31,0.2,1.96c0.12,0.64,0.32,1.27,0.57,1.87    c0.25,0.601,0.561,1.181,0.921,1.72c0.36,0.55,0.78,1.06,1.24,1.53c0.46,0.46,0.97,0.88,1.52,1.24c0.54,0.36,1.12,0.67,1.72,0.92    c0.61,0.25,1.24,0.44,1.88,0.57c0.64,0.129,1.3,0.189,1.95,0.189c0.65,0,1.31-0.06,1.95-0.189c0.64-0.13,1.27-0.32,1.87-0.57    c0.61-0.25,1.19-0.56,1.73-0.92c0.55-0.36,1.06-0.78,1.52-1.24c0.46-0.469,0.88-0.979,1.24-1.53c0.36-0.539,0.67-1.119,0.92-1.72    c0.25-0.6,0.44-1.229,0.57-1.87c0.13-0.649,0.2-1.3,0.2-1.96C348.87,167.832,348.8,167.181,348.67,166.531z"/><path d="M474.508,229.64h-16.791c2.914-6.353,4.467-13.335,4.467-20.545v-1.075c0-23.971-17.2-43.998-39.9-48.379    c6.472-8.34,10.33-18.808,10.33-30.159c0-27.167-22.093-49.27-49.248-49.27H283.064c-5.768-2.988-11.036-6.85-15.684-11.501    c-14.586-14.594-20.934-35.85-16.979-56.861c0.611-3.247-0.421-6.586-2.757-8.921c-2.336-2.337-5.676-3.367-8.921-2.756    c-16.564,3.12-32.188,11.344-43.994,23.155c-15.289,15.298-23.887,35.573-24.404,56.884h-41.689    c-27.155,0-49.248,22.103-49.248,49.27c0,11.352,3.857,21.819,10.33,30.159c-22.701,4.381-39.9,24.408-39.9,48.379v1.075    c0,7.21,1.553,14.192,4.467,20.545H37.492c-5.523,0-10,4.478-10,10v164.451C27.492,463.592,75.899,512,135.401,512h241.198    c59.501,0,107.909-48.408,107.909-107.909V239.64C484.508,234.117,480.031,229.64,474.508,229.64z M69.815,208.02    c0-16.14,13.121-29.27,29.248-29.27h17.111c0.025,0,0.051,0.001,0.076,0.001h183.308c5.523,0,10-4.478,10-10    c0-5.522-4.477-10-10-10H128.711c-0.026,0-0.051-0.001-0.076-0.001c-16.128,0-29.248-13.13-29.248-29.269    c0-16.14,13.121-29.27,29.248-29.27h52.089c2.837,0,5.541-1.205,7.437-3.315c1.897-2.109,2.808-4.926,2.506-7.747    c-2.052-19.214,4.584-38.052,18.207-51.683c5.776-5.779,12.762-10.432,20.374-13.651c-0.091,22.142,8.388,43.428,23.986,59.034    c6.788,6.791,14.592,12.308,23.197,16.395c1.341,0.638,2.807,0.968,4.291,0.968h102.644c16.128,0,29.248,13.13,29.248,29.27    c0,16.139-13.121,29.269-29.248,29.269c-5.523,0-10,4.477-10,10c0,5.522,4.477,10,10,10h29.57c16.127,0,29.249,13.13,29.249,29.27    v1.075c0,7.764-3.035,15.087-8.424,20.545H78.239c-5.389-5.459-8.424-12.782-8.424-20.546V208.02z M464.509,404.091h-0.001    c0,48.474-39.436,87.909-87.909,87.909H135.401c-48.473,0-87.909-39.435-87.909-87.909V302.938h417.017V404.091z M464.509,282.938    H47.492V249.64h417.017V282.938z"/><path d="M346.568,393.392c-1.241-0.529-24.79-10.374-48.403-6.562c0.777-3.485,1.168-6.964,1.168-10.43    c0-32.917-36.165-57.929-37.705-58.978c-3.397-2.314-7.862-2.314-11.259,0c-1.54,1.049-37.705,26.061-37.705,58.978    c0,3.466,0.391,6.945,1.168,10.43c-23.612-3.812-47.163,6.034-48.403,6.563c-4.15,1.77-6.601,6.1-5.982,10.568    c0.234,1.684,6.03,41.437,33.937,57.234c9.358,5.298,19.743,7.077,29.477,7.076c14.154-0.001,26.926-3.764,33.138-5.944    c6.211,2.18,18.983,5.944,33.139,5.944c9.732,0,20.121-1.779,29.477-7.076c27.908-15.797,33.703-55.551,33.936-57.235    C353.169,399.491,350.718,395.161,346.568,393.392z M203.237,443.791c-13.17-7.455-19.521-24.49-22.234-34.606    c10.076-2.884,27.948-6.203,41.115,1.251c2.735,1.548,5.176,3.51,7.352,5.737c0.239,0.28,0.49,0.544,0.752,0.792    c7.809,8.449,12.038,20.283,14.123,28.053C234.244,447.88,216.31,451.193,203.237,443.791z M267.262,403.258    c-4.675,5.053-8.365,10.776-11.262,16.447c-2.896-5.669-6.585-11.39-11.258-16.442c-0.007-0.009-0.014-0.017-0.021-0.026    c-5.499-6.516-12.055-16.46-12.055-26.837c0-15.059,13.838-30.05,23.333-38.093c9.503,8.05,23.335,23.037,23.335,38.093    c0,10.377-6.555,20.322-12.055,26.837C267.273,403.244,267.268,403.251,267.262,403.258z M308.763,443.791    c-13.159,7.447-31.016,4.14-41.09,1.259c2.131-7.869,6.462-19.927,14.413-28.388c0.063-0.065,0.126-0.132,0.188-0.199    c2.241-2.353,4.767-4.418,7.608-6.027c13.16-7.449,31.016-4.139,41.091-1.259C328.228,419.311,321.836,436.391,308.763,443.791z"/></g><path d="M383.612,18.933c-4.169,0-8.39,0.188-12.543,0.563c-42.889,3.88-81.994,29.925-110.481,73.479    c-33.048-48.743-87.674-80.042-140.218-80.042c-11.547,0-22.988,1.493-34,4.441c-34.03,9.109-61.776,34.443-76.116,69.517    c-15.892,38.857-13.157,84.373,7.14,118.784c27.875,47.263,75.667,76.111,121.879,104.004    c23.737,14.335,48.286,29.143,69.34,46.118c6.271,5.048,14.149,11.629,20.908,18.799c-8.528,8.404-25.39,36.338-25.552,36.673    c-5.299,11.146-12.578,34.713-6.251,52.344c2.704,7.521,7.561,12.97,14.452,16.194c3.534,1.65,7.253,2.493,11.049,2.493    c16.321,0,31.438-15.468,41.254-28.437c17.95-23.745,20.637-48.668,7.978-74.113c21.718-19.646,45.346-37.907,68.207-55.579    c39.329-30.396,79.993-61.834,112.351-101.346c15.808-19.309,64.683-87.212,30.138-150.473    C464.884,38.902,427.673,18.933,383.612,18.933z M242.248,427.458c-3.285,6.276-6.601,10.807-10.054,13.701    c0.695-9.323,4.248-18.424,6.53-23.431c0.64-1.406,4.837-7.896,7.855-12.237C247.527,412.874,246.097,420.105,242.248,427.458z     M202.95,77.926c10.123,8.341,19.073,17.763,26.601,27.985c0.896,1.219,2.272,3.517,3.875,6.177    c9.239,15.392,19.167,30.42,29.914,30.42c5.332,0,9.847-3.748,13.416-11.149c22.795-47.205,59.169-75.349,102.418-79.254    c2.514-0.231,5.062-0.338,7.581-0.338c33.089,0,62.186,19.368,72.412,48.19c13.472,37.996-7.851,83.022-65.186,137.646    c-24.618,23.46-51.923,44.554-78.323,64.958c-20.723,16.006-42.132,32.55-62.177,50.17    c-18.027-19.981-41.672-36.719-60.438-49.175c-11.133-7.394-23.166-14.625-35.904-22.282    c-62.626-37.638-133.599-80.298-122.41-159.73c6.396-45.417,40.2-74.763,86.12-74.763c3.374,0,6.827,0.16,10.27,0.492    C156.37,49.675,181.878,60.564,202.95,77.926z" transform="matrix(0.06450182094982027 -0.020523305892577042 0.020523305892577042 0.06450182094982027 158.93977500717108 182.10780233471274)" id="L1_122"/><path d="M52.919,16.003c-3.679-3.679-8.57-5.705-13.772-5.705c-5.203,0-10.095,2.026-13.773,5.705  c-2.981,2.981-4.623,6.944-4.623,11.16c0,4.215,1.642,8.179,4.623,11.16c2.422,2.423,5.644,3.757,9.069,3.757  s6.646-1.334,9.069-3.757c4.078-4.079,4.078-10.715,0-14.794c-3.342-3.341-8.776-3.341-12.118,0c-2.75,2.751-2.75,7.227,0,9.978  c2.28,2.279,5.986,2.278,8.265,0c0.391-0.391,0.391-1.023,0-1.414c-0.391-0.391-1.023-0.391-1.414,0c-1.498,1.498-3.937,1.5-5.437,0  c-1.971-1.971-1.971-5.178,0-7.149c2.562-2.56,6.729-2.561,9.29,0c3.299,3.299,3.299,8.667,0,11.966  c-2.045,2.045-4.764,3.171-7.655,3.171s-5.61-1.126-7.655-3.171c-2.604-2.604-4.037-6.064-4.037-9.746  c0-3.682,1.434-7.143,4.037-9.746c3.301-3.301,7.69-5.119,12.359-5.119c4.668,0,9.058,1.818,12.358,5.119  c4.174,4.174,6.473,9.723,6.473,15.625c0,5.903-2.299,11.452-6.473,15.626c-5.299,5.298-12.329,8.21-19.813,8.21  c-0.054,0-0.107,0-0.161,0c-7.401-0.041-14.304-2.954-19.437-8.202C-0.035,36.272-1.41,16.505,8.899,2.697  c0.33-0.442,0.239-1.069-0.203-1.399C8.252,0.967,7.626,1.058,7.295,1.5c-10.891,14.59-9.442,35.472,3.37,48.575  c5.509,5.633,12.916,8.76,20.855,8.804c0.058,0,0.114,0,0.172,0c8.018,0,15.551-3.12,21.227-8.796  c4.552-4.552,7.059-10.603,7.059-17.04C59.978,26.606,57.471,20.555,52.919,16.003z" transform="matrix(0.38782307505607605 0 0 0.38782307505607605 169.07004009187222 269.32914523390275)" id="L1_123"/><g transform="matrix(0.047307022255234296 0.011131063718853876 -0.011131063718853876 0.047307022255234296 318.73895461468663 242.03984999063343)" id="L1_126"><path d="M472.208,201.712c9.271-9.037,12.544-22.3,8.544-34.613c-4.001-12.313-14.445-21.118-27.257-22.979l-112.03-16.279    c-2.199-0.319-4.1-1.7-5.084-3.694L286.28,22.632c-5.729-11.61-17.331-18.822-30.278-18.822c-12.947,0-24.549,7.212-30.278,18.822    l-50.101,101.516c-0.985,1.993-2.885,3.374-5.085,3.694L58.51,144.12c-12.812,1.861-23.255,10.666-27.257,22.979    c-4.002,12.313-0.728,25.576,8.544,34.613l81.065,79.019c1.591,1.552,2.318,3.787,1.942,5.978l-19.137,111.576    c-2.188,12.761,2.958,25.414,13.432,33.024c10.474,7.612,24.102,8.595,35.56,2.572l100.201-52.679    c1.968-1.035,4.317-1.035,6.286,0l100.202,52.679c4.984,2.62,10.377,3.915,15.744,3.914c6.97,0,13.896-2.184,19.813-6.487    c10.474-7.611,15.621-20.265,13.432-33.024l-19.137-111.576c-0.375-2.191,0.351-4.426,1.942-5.978L472.208,201.712z     M362.579,291.276l19.137,111.578c0.64,3.734-1.665,5.863-2.686,6.604c-1.022,0.74-3.76,2.277-7.112,0.513l-100.202-52.679    c-4.919-2.585-10.315-3.879-15.712-3.879c-5.397,0-10.794,1.294-15.712,3.878l-100.201,52.678    c-3.354,1.763-6.091,0.228-7.112-0.513c-1.021-0.741-3.327-2.87-2.686-6.604l19.137-111.576    c1.879-10.955-1.75-22.127-9.711-29.886l-81.065-79.019c-2.713-2.646-2.099-5.723-1.708-6.923    c0.389-1.201,1.702-4.052,5.451-4.596l112.027-16.279c10.999-1.598,20.504-8.502,25.424-18.471l50.101-101.516    c1.677-3.397,4.793-3.764,6.056-3.764c1.261,0,4.377,0.366,6.055,3.764v0.001l50.101,101.516    c4.919,9.969,14.423,16.873,25.422,18.471l112.029,16.279c3.749,0.544,5.061,3.395,5.451,4.596    c0.39,1.201,1.005,4.279-1.709,6.923l-81.065,79.019C364.329,269.149,360.7,280.321,362.579,291.276z"/><path d="M413.783,22.625c-6.036-4.384-14.481-3.046-18.865,2.988l-14.337,19.732c-4.384,6.034-3.047,14.481,2.988,18.865    c2.399,1.741,5.176,2.58,7.928,2.58c4.177,0,8.295-1.931,10.937-5.567l14.337-19.732    C421.155,35.456,419.818,27.009,413.783,22.625z"/><path d="M131.36,45.265l-14.337-19.732c-4.383-6.032-12.829-7.37-18.865-2.988c-6.034,4.384-7.372,12.831-2.988,18.865    l14.337,19.732c2.643,3.639,6.761,5.569,10.939,5.569c2.753,0,5.531-0.839,7.927-2.581C134.407,59.747,135.745,51.3,131.36,45.265    z"/><path d="M49.552,306.829c-2.305-7.093-9.924-10.976-17.019-8.671l-23.197,7.538c-7.095,2.305-10.976,9.926-8.671,17.019    c1.854,5.709,7.149,9.337,12.842,9.337c1.383,0,2.79-0.215,4.177-0.666l23.197-7.538    C47.975,321.543,51.857,313.924,49.552,306.829z"/><path d="M256.005,456.786c-7.459,0-13.506,6.047-13.506,13.506v24.392c0,7.459,6.047,13.506,13.506,13.506    c7.459,0,13.506-6.047,13.506-13.506v-24.392C269.511,462.832,263.465,456.786,256.005,456.786z"/><path d="M502.664,305.715l-23.197-7.538c-7.092-2.303-14.714,1.577-17.019,8.672c-2.305,7.095,1.576,14.714,8.671,17.019    l23.197,7.538c1.387,0.45,2.793,0.664,4.176,0.664c5.694,0,10.989-3.629,12.843-9.337    C513.64,315.639,509.758,308.02,502.664,305.715z"/></g><g transform="matrix(0.0389587210041957 -0.06678638360272315 0.06678638360272315 0.0389587210041957 71.92925322062877 111.12388162522296)" id="L1_127"><path d="M472.208,201.712c9.271-9.037,12.544-22.3,8.544-34.613c-4.001-12.313-14.445-21.118-27.257-22.979l-112.03-16.279    c-2.199-0.319-4.1-1.7-5.084-3.694L286.28,22.632c-5.729-11.61-17.331-18.822-30.278-18.822c-12.947,0-24.549,7.212-30.278,18.822    l-50.101,101.516c-0.985,1.993-2.885,3.374-5.085,3.694L58.51,144.12c-12.812,1.861-23.255,10.666-27.257,22.979    c-4.002,12.313-0.728,25.576,8.544,34.613l81.065,79.019c1.591,1.552,2.318,3.787,1.942,5.978l-19.137,111.576    c-2.188,12.761,2.958,25.414,13.432,33.024c10.474,7.612,24.102,8.595,35.56,2.572l100.201-52.679    c1.968-1.035,4.317-1.035,6.286,0l100.202,52.679c4.984,2.62,10.377,3.915,15.744,3.914c6.97,0,13.896-2.184,19.813-6.487    c10.474-7.611,15.621-20.265,13.432-33.024l-19.137-111.576c-0.375-2.191,0.351-4.426,1.942-5.978L472.208,201.712z     M362.579,291.276l19.137,111.578c0.64,3.734-1.665,5.863-2.686,6.604c-1.022,0.74-3.76,2.277-7.112,0.513l-100.202-52.679    c-4.919-2.585-10.315-3.879-15.712-3.879c-5.397,0-10.794,1.294-15.712,3.878l-100.201,52.678    c-3.354,1.763-6.091,0.228-7.112-0.513c-1.021-0.741-3.327-2.87-2.686-6.604l19.137-111.576    c1.879-10.955-1.75-22.127-9.711-29.886l-81.065-79.019c-2.713-2.646-2.099-5.723-1.708-6.923    c0.389-1.201,1.702-4.052,5.451-4.596l112.027-16.279c10.999-1.598,20.504-8.502,25.424-18.471l50.101-101.516    c1.677-3.397,4.793-3.764,6.056-3.764c1.261,0,4.377,0.366,6.055,3.764v0.001l50.101,101.516    c4.919,9.969,14.423,16.873,25.422,18.471l112.029,16.279c3.749,0.544,5.061,3.395,5.451,4.596    c0.39,1.201,1.005,4.279-1.709,6.923l-81.065,79.019C364.329,269.149,360.7,280.321,362.579,291.276z"/><path d="M413.783,22.625c-6.036-4.384-14.481-3.046-18.865,2.988l-14.337,19.732c-4.384,6.034-3.047,14.481,2.988,18.865    c2.399,1.741,5.176,2.58,7.928,2.58c4.177,0,8.295-1.931,10.937-5.567l14.337-19.732    C421.155,35.456,419.818,27.009,413.783,22.625z"/><path d="M131.36,45.265l-14.337-19.732c-4.383-6.032-12.829-7.37-18.865-2.988c-6.034,4.384-7.372,12.831-2.988,18.865    l14.337,19.732c2.643,3.639,6.761,5.569,10.939,5.569c2.753,0,5.531-0.839,7.927-2.581C134.407,59.747,135.745,51.3,131.36,45.265    z"/><path d="M49.552,306.829c-2.305-7.093-9.924-10.976-17.019-8.671l-23.197,7.538c-7.095,2.305-10.976,9.926-8.671,17.019    c1.854,5.709,7.149,9.337,12.842,9.337c1.383,0,2.79-0.215,4.177-0.666l23.197-7.538    C47.975,321.543,51.857,313.924,49.552,306.829z"/><path d="M256.005,456.786c-7.459,0-13.506,6.047-13.506,13.506v24.392c0,7.459,6.047,13.506,13.506,13.506    c7.459,0,13.506-6.047,13.506-13.506v-24.392C269.511,462.832,263.465,456.786,256.005,456.786z"/><path d="M502.664,305.715l-23.197-7.538c-7.092-2.303-14.714,1.577-17.019,8.672c-2.305,7.095,1.576,14.714,8.671,17.019    l23.197,7.538c1.387,0.45,2.793,0.664,4.176,0.664c5.694,0,10.989-3.629,12.843-9.337    C513.64,315.639,509.758,308.02,502.664,305.715z"/></g></defs><g fi:class="KUsePattern" opacity="0.1"><pattern id="pattern_L1_107" width="350" height="350" patternUnits="userSpaceOnUse"><use xlink:href="#L1_107" x="-350" y="-350"/><use xlink:href="#L1_107" x="0" y="-350"/><use xlink:href="#L1_107" x="350" y="-350"/><use xlink:href="#L1_107" x="-350" y="0"/><use xlink:href="#L1_107" x="0" y="0"/><use xlink:href="#L1_107" x="350" y="0"/><use xlink:href="#L1_107" x="-350" y="350"/><use xlink:href="#L1_107" x="0" y="350"/><use xlink:href="#L1_107" x="350" y="350"/></pattern><rect x="0" y="0" width="100%" height="100%" fill="url(#pattern_L1_107)"/></g><g fi:class="KUsePattern" opacity="0.14"><pattern id="pattern_L1_108" width="350" height="350" patternUnits="userSpaceOnUse"><use xlink:href="#L1_108" x="-350" y="-350"/><use xlink:href="#L1_108" x="0" y="-350"/><use xlink:href="#L1_108" x="350" y="-350"/><use xlink:href="#L1_108" x="-350" y="0"/><use xlink:href="#L1_108" x="0" y="0"/><use xlink:href="#L1_108" x="350" y="0"/><use xlink:href="#L1_108" x="-350" y="350"/><use xlink:href="#L1_108" x="0" y="350"/><use xlink:href="#L1_108" x="350" y="350"/></pattern><rect x="0" y="0" width="100%" height="100%" fill="url(#pattern_L1_108)"/></g><g fi:class="KUsePattern" opacity="0.1"><pattern id="pattern_L1_109" width="350" height="350" patternUnits="userSpaceOnUse"><use xlink:href="#L1_109" x="-350" y="-350"/><use xlink:href="#L1_109" x="0" y="-350"/><use xlink:href="#L1_109" x="350" y="-350"/><use xlink:href="#L1_109" x="-350" y="0"/><use xlink:href="#L1_109" x="0" y="0"/><use xlink:href="#L1_109" x="350" y="0"/><use xlink:href="#L1_109" x="-350" y="350"/><use xlink:href="#L1_109" x="0" y="350"/><use xlink:href="#L1_109" x="350" y="350"/></pattern><rect x="0" y="0" width="100%" height="100%" fill="url(#pattern_L1_109)"/></g><g fi:class="KUsePattern" opacity="0.1"><pattern id="pattern_L1_110" width="350" height="350" patternUnits="userSpaceOnUse"><use xlink:href="#L1_110" x="-350" y="-350"/><use xlink:href="#L1_110" x="0" y="-350"/><use xlink:href="#L1_110" x="350" y="-350"/><use xlink:href="#L1_110" x="-350" y="0"/><use xlink:href="#L1_110" x="0" y="0"/><use xlink:href="#L1_110" x="350" y="0"/><use xlink:href="#L1_110" x="-350" y="350"/><use xlink:href="#L1_110" x="0" y="350"/><use xlink:href="#L1_110" x="350" y="350"/></pattern><rect x="0" y="0" width="100%" height="100%" fill="url(#pattern_L1_110)"/></g><g fi:class="KUsePattern" opacity="0.14"><pattern id="pattern_L1_111" width="350" height="350" patternUnits="userSpaceOnUse"><use xlink:href="#L1_111" x="-350" y="-350"/><use xlink:href="#L1_111" x="0" y="-350"/><use xlink:href="#L1_111" x="350" y="-350"/><use xlink:href="#L1_111" x="-350" y="0"/><use xlink:href="#L1_111" x="0" y="0"/><use xlink:href="#L1_111" x="350" y="0"/><use xlink:href="#L1_111" x="-350" y="350"/><use xlink:href="#L1_111" x="0" y="350"/><use xlink:href="#L1_111" x="350" y="350"/></pattern><rect x="0" y="0" width="100%" height="100%" fill="url(#pattern_L1_111)"/></g><g fi:class="KUsePattern" opacity="0.1"><pattern id="pattern_L1_112" width="350" height="350" patternUnits="userSpaceOnUse"><use xlink:href="#L1_112" x="-350" y="-350"/><use xlink:href="#L1_112" x="0" y="-350"/><use xlink:href="#L1_112" x="350" y="-350"/><use xlink:href="#L1_112" x="-350" y="0"/><use xlink:href="#L1_112" x="0" y="0"/><use xlink:href="#L1_112" x="350" y="0"/><use xlink:href="#L1_112" x="-350" y="350"/><use xlink:href="#L1_112" x="0" y="350"/><use xlink:href="#L1_112" x="350" y="350"/></pattern><rect x="0" y="0" width="100%" height="100%" fill="url(#pattern_L1_112)"/></g><g fi:class="KUsePattern" opacity="0.1"><pattern id="pattern_L1_113" width="350" height="350" patternUnits="userSpaceOnUse"><use xlink:href="#L1_113" x="-350" y="-350"/><use xlink:href="#L1_113" x="0" y="-350"/><use xlink:href="#L1_113" x="350" y="-350"/><use xlink:href="#L1_113" x="-350" y="0"/><use xlink:href="#L1_113" x="0" y="0"/><use xlink:href="#L1_113" x="350" y="0"/><use xlink:href="#L1_113" x="-350" y="350"/><use xlink:href="#L1_113" x="0" y="350"/><use xlink:href="#L1_113" x="350" y="350"/></pattern><rect x="0" y="0" width="100%" height="100%" fill="url(#pattern_L1_113)"/></g><g fi:class="KUsePattern" opacity="0.1"><pattern id="pattern_L1_114" width="350" height="350" patternUnits="userSpaceOnUse"><use xlink:href="#L1_114" x="-350" y="-350"/><use xlink:href="#L1_114" x="0" y="-350"/><use xlink:href="#L1_114" x="350" y="-350"/><use xlink:href="#L1_114" x="-350" y="0"/><use xlink:href="#L1_114" x="0" y="0"/><use xlink:href="#L1_114" x="350" y="0"/><use xlink:href="#L1_114" x="-350" y="350"/><use xlink:href="#L1_114" x="0" y="350"/><use xlink:href="#L1_114" x="350" y="350"/></pattern><rect x="0" y="0" width="100%" height="100%" fill="url(#pattern_L1_114)"/></g><g fi:class="KUsePattern" opacity="0.11"><pattern id="pattern_L1_115" width="350" height="350" patternUnits="userSpaceOnUse"><use xlink:href="#L1_115" x="-350" y="-350"/><use xlink:href="#L1_115" x="0" y="-350"/><use xlink:href="#L1_115" x="350" y="-350"/><use xlink:href="#L1_115" x="-350" y="0"/><use xlink:href="#L1_115" x="0" y="0"/><use xlink:href="#L1_115" x="350" y="0"/><use xlink:href="#L1_115" x="-350" y="350"/><use xlink:href="#L1_115" x="0" y="350"/><use xlink:href="#L1_115" x="350" y="350"/></pattern><rect x="0" y="0" width="100%" height="100%" fill="url(#pattern_L1_115)"/></g><g fi:class="KUsePattern" opacity="0.14"><pattern id="pattern_L1_116" width="350" height="350" patternUnits="userSpaceOnUse"><use xlink:href="#L1_116" x="-350" y="-350"/><use xlink:href="#L1_116" x="0" y="-350"/><use xlink:href="#L1_116" x="350" y="-350"/><use xlink:href="#L1_116" x="-350" y="0"/><use xlink:href="#L1_116" x="0" y="0"/><use xlink:href="#L1_116" x="350" y="0"/><use xlink:href="#L1_116" x="-350" y="350"/><use xlink:href="#L1_116" x="0" y="350"/><use xlink:href="#L1_116" x="350" y="350"/></pattern><rect x="0" y="0" width="100%" height="100%" fill="url(#pattern_L1_116)"/></g><g fi:class="KUsePattern" opacity="0.11"><pattern id="pattern_L1_117" width="350" height="350" patternUnits="userSpaceOnUse"><use xlink:href="#L1_117" x="-350" y="-350"/><use xlink:href="#L1_117" x="0" y="-350"/><use xlink:href="#L1_117" x="350" y="-350"/><use xlink:href="#L1_117" x="-350" y="0"/><use xlink:href="#L1_117" x="0" y="0"/><use xlink:href="#L1_117" x="350" y="0"/><use xlink:href="#L1_117" x="-350" y="350"/><use xlink:href="#L1_117" x="0" y="350"/><use xlink:href="#L1_117" x="350" y="350"/></pattern><rect x="0" y="0" width="100%" height="100%" fill="url(#pattern_L1_117)"/></g><g fi:class="KUsePattern" opacity="0.14"><pattern id="pattern_L1_118" width="350" height="350" patternUnits="userSpaceOnUse"><use xlink:href="#L1_118" x="-350" y="-350"/><use xlink:href="#L1_118" x="0" y="-350"/><use xlink:href="#L1_118" x="350" y="-350"/><use xlink:href="#L1_118" x="-350" y="0"/><use xlink:href="#L1_118" x="0" y="0"/><use xlink:href="#L1_118" x="350" y="0"/><use xlink:href="#L1_118" x="-350" y="350"/><use xlink:href="#L1_118" x="0" y="350"/><use xlink:href="#L1_118" x="350" y="350"/></pattern><rect x="0" y="0" width="100%" height="100%" fill="url(#pattern_L1_118)"/></g><g fi:class="KUsePattern" opacity="0.11"><pattern id="pattern_L1_127" width="350" height="350" patternUnits="userSpaceOnUse"><use xlink:href="#L1_127" x="-350" y="-350"/><use xlink:href="#L1_127" x="0" y="-350"/><use xlink:href="#L1_127" x="350" y="-350"/><use xlink:href="#L1_127" x="-350" y="0"/><use xlink:href="#L1_127" x="0" y="0"/><use xlink:href="#L1_127" x="350" y="0"/><use xlink:href="#L1_127" x="-350" y="350"/><use xlink:href="#L1_127" x="0" y="350"/><use xlink:href="#L1_127" x="350" y="350"/></pattern><rect x="0" y="0" width="100%" height="100%" fill="url(#pattern_L1_127)"/></g><g fi:class="KUsePattern" opacity="0.1"><pattern id="pattern_L1_119" width="350" height="350" patternUnits="userSpaceOnUse"><use xlink:href="#L1_119" x="-350" y="-350"/><use xlink:href="#L1_119" x="0" y="-350"/><use xlink:href="#L1_119" x="350" y="-350"/><use xlink:href="#L1_119" x="-350" y="0"/><use xlink:href="#L1_119" x="0" y="0"/><use xlink:href="#L1_119" x="350" y="0"/><use xlink:href="#L1_119" x="-350" y="350"/><use xlink:href="#L1_119" x="0" y="350"/><use xlink:href="#L1_119" x="350" y="350"/></pattern><rect x="0" y="0" width="100%" height="100%" fill="url(#pattern_L1_119)"/></g><g fi:class="KUsePattern" opacity="0.1"><pattern id="pattern_L1_122" width="350" height="350" patternUnits="userSpaceOnUse"><use xlink:href="#L1_122" x="-350" y="-350"/><use xlink:href="#L1_122" x="0" y="-350"/><use xlink:href="#L1_122" x="350" y="-350"/><use xlink:href="#L1_122" x="-350" y="0"/><use xlink:href="#L1_122" x="0" y="0"/><use xlink:href="#L1_122" x="350" y="0"/><use xlink:href="#L1_122" x="-350" y="350"/><use xlink:href="#L1_122" x="0" y="350"/><use xlink:href="#L1_122" x="350" y="350"/></pattern><rect x="0" y="0" width="100%" height="100%" fill="url(#pattern_L1_122)"/></g><g fi:class="KUsePattern" opacity="0.14"><pattern id="pattern_L1_123" width="350" height="350" patternUnits="userSpaceOnUse"><use xlink:href="#L1_123" x="-350" y="-350"/><use xlink:href="#L1_123" x="0" y="-350"/><use xlink:href="#L1_123" x="350" y="-350"/><use xlink:href="#L1_123" x="-350" y="0"/><use xlink:href="#L1_123" x="0" y="0"/><use xlink:href="#L1_123" x="350" y="0"/><use xlink:href="#L1_123" x="-350" y="350"/><use xlink:href="#L1_123" x="0" y="350"/><use xlink:href="#L1_123" x="350" y="350"/></pattern><rect x="0" y="0" width="100%" height="100%" fill="url(#pattern_L1_123)"/></g><g fi:class="KUsePattern" opacity="0.13"><pattern id="pattern_L1_126" width="350" height="350" patternUnits="userSpaceOnUse"><use xlink:href="#L1_126" x="-350" y="-350"/><use xlink:href="#L1_126" x="0" y="-350"/><use xlink:href="#L1_126" x="350" y="-350"/><use xlink:href="#L1_126" x="-350" y="0"/><use xlink:href="#L1_126" x="0" y="0"/><use xlink:href="#L1_126" x="350" y="0"/><use xlink:href="#L1_126" x="-350" y="350"/><use xlink:href="#L1_126" x="0" y="350"/><use xlink:href="#L1_126" x="350" y="350"/></pattern><rect x="0" y="0" width="100%" height="100%" fill="url(#pattern_L1_126)"/></g></svg>